<svg width="20" height="20" viewBox="0 0 20 20" fill="none" xmlns="http://www.w3.org/2000/svg">
<circle cx="10" cy="10" r="10" fill="#044BD9"/>
<path fill-rule="evenodd" clip-rule="evenodd" d="M4.58398 7.27026C4.59848 6.51701 4.97699 5.99406 5.63006 5.64956C5.84598 5.53567 6.07014 5.43963 6.32001 5.42117C6.58326 5.40168 6.81541 5.47078 7.01809 5.64165C7.35718 5.92743 7.6442 6.26184 7.89229 6.62414C8.12014 6.95682 8.32914 7.30487 8.5165 7.66173C8.7597 8.12498 8.57248 8.53759 8.20328 8.81782C8.09935 8.89672 7.98971 8.96973 7.8944 9.05799C7.65434 9.2802 7.65136 9.5533 7.75827 9.83464C7.92293 10.2679 8.16705 10.6563 8.47041 11.0066C8.91625 11.5215 9.46539 11.8991 10.082 12.1825C10.272 12.2698 10.4764 12.3438 10.6747 12.2274C10.7827 12.1641 10.8735 12.0608 10.9511 11.9597C11.1125 11.7495 11.2893 11.5625 11.5404 11.4596C11.8297 11.3412 12.1157 11.3732 12.3925 11.4948C12.5396 11.5593 12.6856 11.6349 12.8154 11.7284C13.2671 12.0538 13.7127 12.3875 14.1575 12.7221C14.2334 12.7793 14.2991 12.8526 14.3607 12.9258C14.6501 13.2695 14.6341 13.6465 14.4497 14.0228C14.11 14.7153 13.5645 15.1709 12.8147 15.3807C12.4841 15.4732 12.1777 15.3791 11.8828 15.2536C10.873 14.8238 9.91989 14.2915 9.03483 13.6432C8.03803 12.9131 7.16428 12.0579 6.42477 11.0688C5.71816 10.1238 5.15143 9.10158 4.72165 8.00462C4.62986 7.77026 4.58477 7.52423 4.58398 7.27026" fill="white"/>
<path fill-rule="evenodd" clip-rule="evenodd" d="M14.291 8.59763C14.2822 8.72172 14.2845 8.84767 14.2621 8.96942C14.2246 9.17363 14.0699 9.28378 13.8354 9.29247C13.6093 9.30085 13.4483 9.20362 13.3975 9.00154C13.3584 8.84582 13.3523 8.6826 13.3235 8.5241C13.2517 8.12954 13.151 7.74368 12.95 7.38777C12.6794 6.90865 12.2463 6.62324 11.7263 6.45847C11.3994 6.35489 11.0601 6.28532 10.7235 6.21289C10.3583 6.13437 10.213 5.90784 10.3314 5.57571C10.3976 5.38973 10.5675 5.28011 10.797 5.29418C12.3779 5.39132 13.661 6.31329 14.1393 7.68757C14.2414 7.98114 14.285 8.28663 14.291 8.59763" fill="white"/>
<path fill-rule="evenodd" clip-rule="evenodd" d="M12.5132 8.73199C12.5007 8.81423 12.495 8.89819 12.4741 8.97835C12.424 9.17 12.2868 9.27982 12.0952 9.29158C11.9028 9.30339 11.7405 9.20461 11.6722 9.01991C11.6398 8.93256 11.624 8.83834 11.6098 8.74589C11.5446 8.32249 11.2826 8.04604 10.855 7.95454C10.7783 7.93814 10.7006 7.92571 10.6248 7.90612C10.4009 7.84832 10.2847 7.71572 10.2913 7.53014C10.2993 7.30367 10.4312 7.14119 10.6501 7.09548C10.8502 7.05375 11.0513 7.062 11.2409 7.13462C11.9302 7.39868 12.3687 7.87142 12.4966 8.59534C12.5008 8.61928 12.5016 8.64385 12.5028 8.66816C12.5038 8.68901 12.503 8.70989 12.503 8.73078C12.5064 8.7312 12.5098 8.73157 12.5132 8.73199" fill="white"/>
</svg>
