<svg width="24" height="24" viewBox="0 0 24 24" fill="none" xmlns="http://www.w3.org/2000/svg">
<mask id="path-1-inside-1_1568_14751" fill="white">
<path fill-rule="evenodd" clip-rule="evenodd" d="M4.64835 5.73094H8.12088V5.19834C8.12088 4.5326 8.64835 4 9.30769 4H14.6923C15.3516 4 15.8791 4.5326 15.8791 5.19834V5.73094H19.3516C20.2527 5.73094 21 6.48545 21 7.3953V17.3356C21 18.2455 20.2527 19 19.3516 19H4.64835C3.74725 19 3 18.2455 3 17.3356V7.3953C3 6.46325 3.74725 5.73094 4.64835 5.73094"/>
</mask>
<path d="M4.64835 4.23094C3.81992 4.23094 3.14835 4.90251 3.14835 5.73094C3.14835 6.55936 3.81992 7.23094 4.64835 7.23094V4.23094ZM8.12088 5.73094V7.23094C8.94931 7.23094 9.62088 6.55936 9.62088 5.73094H8.12088ZM15.8791 5.73094H14.3791C14.3791 6.55936 15.0507 7.23094 15.8791 7.23094V5.73094ZM4.64835 7.23094C5.47678 7.23094 6.14835 6.55936 6.14835 5.73094C6.14835 4.90251 5.47678 4.23094 4.64835 4.23094V7.23094ZM4.64835 7.23094H8.12088V4.23094H4.64835V7.23094ZM9.62088 5.73094V5.19834H6.62088V5.73094H9.62088ZM9.62088 5.19834C9.62088 5.34732 9.49041 5.5 9.30769 5.5V2.5C7.80629 2.5 6.62088 3.71787 6.62088 5.19834H9.62088ZM9.30769 5.5H14.6923V2.5H9.30769V5.5ZM14.6923 5.5C14.5096 5.5 14.3791 5.34732 14.3791 5.19834H17.3791C17.3791 3.71787 16.1937 2.5 14.6923 2.5V5.5ZM14.3791 5.19834V5.73094H17.3791V5.19834H14.3791ZM15.8791 7.23094H19.3516V4.23094H15.8791V7.23094ZM19.3516 7.23094C19.3753 7.23094 19.411 7.24009 19.448 7.27744C19.4851 7.31493 19.5 7.35765 19.5 7.3953H22.5C22.5 5.67072 21.0948 4.23094 19.3516 4.23094V7.23094ZM19.5 7.3953V17.3356H22.5V7.3953H19.5ZM19.5 17.3356C19.5 17.3733 19.4851 17.416 19.448 17.4535C19.411 17.4908 19.3753 17.5 19.3516 17.5V20.5C21.0948 20.5 22.5 19.0603 22.5 17.3356H19.5ZM19.3516 17.5H4.64835V20.5H19.3516V17.5ZM4.64835 17.5C4.62466 17.5 4.589 17.4908 4.55203 17.4535C4.51493 17.416 4.5 17.3733 4.5 17.3356H1.5C1.5 19.0603 2.90522 20.5 4.64835 20.5V17.5ZM4.5 17.3356V7.3953H1.5V17.3356H4.5ZM4.5 7.3953C4.5 7.29105 4.57631 7.23094 4.64835 7.23094V4.23094C2.91819 4.23094 1.5 5.63546 1.5 7.3953H4.5Z" fill="#444444" mask="url(#path-1-inside-1_1568_14751)"/>
<path d="M15.25 12.0388C15.25 13.8621 13.7881 15.3277 12 15.3277C10.2119 15.3277 8.75 13.8621 8.75 12.0388C8.75 10.2156 10.2119 8.75 12 8.75C13.7881 8.75 15.25 10.2156 15.25 12.0388Z" stroke="#444444" stroke-width="1.5" stroke-linecap="round" stroke-linejoin="round"/>
</svg>
