<svg width="20" height="20" viewBox="0 0 20 20" fill="none" xmlns="http://www.w3.org/2000/svg">
<path d="M10.2391 3.33537C10.0438 3.14853 9.73545 3.15068 9.5428 3.34022L2.87051 9.90456C2.55156 10.2183 2.77375 10.761 3.22117 10.761H3.49611C3.77225 10.761 3.99611 10.9848 3.99611 11.261V16.5437C3.99611 16.8198 4.21997 17.0437 4.49611 17.0437H7.04708C7.32323 17.0437 7.54709 16.8198 7.54709 16.5437V13.0828C7.54709 12.8066 7.77094 12.5828 8.04709 12.5828H11.6504C11.9266 12.5828 12.1504 12.8066 12.1504 13.0828V16.5437C12.1504 16.8198 12.3743 17.0437 12.6504 17.0437H15.2104C15.4866 17.0437 15.7104 16.8198 15.7104 16.5437V11.261C15.7104 10.9848 15.9343 10.761 16.2104 10.761H16.7542C17.205 10.761 17.4256 10.2114 17.0998 9.89971L10.2391 3.33537Z" fill="#044BD9"/>
</svg>
