<svg width="44" height="44" viewBox="0 0 44 44" fill="none" xmlns="http://www.w3.org/2000/svg">
<g id="icon_orange_5">
<g id="Group 8">
<path id="Fill 1" fill-rule="evenodd" clip-rule="evenodd" d="M31.8478 30.8553V30.8553C31.8772 30.9337 31.9065 31.0123 31.9359 31.0907C31.9065 31.0123 31.8772 30.9337 31.8478 30.8553V30.8553ZM28.7172 19.142C28.8029 18.9003 28.8145 18.6579 28.8005 18.4157C28.8145 18.6581 28.8029 18.9003 28.7172 19.142C28.679 19.151 28.6466 19.151 28.6181 19.1454C28.6466 19.151 28.679 19.151 28.7172 19.142V19.142ZM21.9169 35.9813C21.8301 35.9567 21.7572 35.9261 21.6945 35.8873C21.7572 35.9261 21.8301 35.9567 21.9169 35.9813ZM20.4936 37.0456C20.2075 37.0511 19.9214 37.0568 19.6351 37.0626C19.9214 37.0568 20.2075 37.0511 20.4936 37.0453C20.5279 36.9434 20.574 36.9005 20.6326 36.9184C20.574 36.9005 20.5279 36.9434 20.4936 37.0456V37.0456ZM13.5915 33.7806C13.5447 33.791 13.498 33.8016 13.4514 33.8123C13.3978 33.8624 13.3443 33.9124 13.2907 33.9625C13.3443 33.9124 13.3978 33.8624 13.4514 33.8122C13.3487 33.8091 13.246 33.8058 13.1431 33.8027C13.14 33.6924 13.1194 33.5681 13.154 33.4692C13.1194 33.5681 13.14 33.6923 13.1431 33.8027C13.246 33.8058 13.3487 33.8091 13.4514 33.8122C13.498 33.8016 13.5447 33.791 13.5913 33.7805C13.6362 33.6871 13.6774 33.6588 13.7151 33.6909C13.6774 33.6588 13.6362 33.6873 13.5915 33.7806V33.7806ZM13.3013 28.3808C13.3072 28.3853 13.3105 28.3897 13.3155 28.3942C13.3105 28.3897 13.3072 28.3853 13.3013 28.3808C13.3388 28.3325 13.3846 28.3139 13.4335 28.3068C13.3846 28.3139 13.3388 28.3325 13.3013 28.3808V28.3808ZM12.985 9.83816C12.9573 9.64402 13.0076 9.44117 12.9961 9.24533C13.0076 9.44117 12.9573 9.64418 12.9851 9.83816C13.0528 9.87301 13.1142 9.92979 13.1331 9.99045C13.1142 9.92979 13.0528 9.87301 12.985 9.83816V9.83816ZM10.1072 12.7039C10.1221 12.7439 10.1414 12.781 10.1508 12.8268C10.134 12.7456 10.0861 12.6891 10.0871 12.5976C10.0863 12.6387 10.0954 12.6721 10.1072 12.7039V12.7039ZM9.50994 18.5285H9.50979C9.51968 18.4775 9.52957 18.4264 9.53947 18.3754C9.52957 18.4264 9.51968 18.4775 9.50994 18.5285V18.5285ZM8.94977 12.4019C8.81173 12.3148 8.77263 12.233 8.85021 12.1576C8.77263 12.233 8.81189 12.3148 8.95009 12.4019C8.96045 12.5298 8.97129 12.6578 8.98197 12.7857C8.97129 12.6578 8.96045 12.5298 8.94977 12.4019V12.4019ZM40.2974 35.9805C40.2315 35.5176 40.0755 35.0672 39.8334 34.6656C39.7197 34.4767 39.586 34.2941 39.5294 34.0815C39.4405 33.7475 39.554 33.3982 39.5942 33.0551C39.6768 32.3521 39.4157 31.5973 38.8544 31.1593C38.2931 30.7214 37.4333 30.6626 36.8629 31.089C36.6098 31.2781 36.4256 31.5427 36.1953 31.7588C35.2559 32.6405 34.4581 31.2322 34.425 30.3511C34.4223 30.2779 34.4234 30.2015 34.3911 30.1357C34.3311 30.0137 34.1657 29.9677 34.037 30.0136C33.9082 30.0593 33.8162 30.1769 33.7678 30.3037C33.6612 30.5831 33.7384 30.8933 33.7612 31.1912C33.7841 31.4889 33.7172 31.8416 33.4474 31.975C33.1635 32.1158 32.8218 31.9305 32.6038 31.7019C32.359 31.4452 32.1821 31.1255 32.0954 30.7828C32.0172 30.4734 31.9767 30.0962 31.6901 29.9509C31.4971 29.8532 31.208 29.8698 31.131 29.669C31.0934 29.5704 31.1306 29.461 31.1659 29.3615C31.4773 28.4827 31.2653 26.2336 32.111 25.7158C31.7958 25.9088 30.887 23.9356 31.4549 23.3855C30.8894 23.9332 30.1569 21.14 30.1151 21.0751C29.9198 20.772 29.6264 20.5466 29.3667 20.2952C28.7691 19.717 28.885 19.2475 28.863 18.4913C28.8458 17.8958 28.5479 17.6735 28.4382 17.1509C28.3717 16.8334 28.6949 16.5415 29.0209 16.5107C29.7423 16.4426 30.492 17.0911 31.0527 17.445C31.1323 17.4954 31.2146 17.5467 31.3076 17.5642C31.398 17.5811 31.4911 17.5646 31.5816 17.5481C31.9103 17.4881 32.2859 17.394 32.4295 17.095C32.5091 16.929 32.51 16.7106 32.6616 16.6045C32.7776 16.5232 32.9527 16.5356 33.0421 16.4263C33.158 16.2847 33.038 16.063 33.1085 15.8949C33.1936 15.6914 33.4796 15.6891 33.6996 15.7209C33.9311 15.7545 34.1626 15.7883 34.3941 15.8219C34.585 15.8496 34.8035 15.87 34.9484 15.7437C35.1059 15.6061 35.0986 15.3615 35.048 15.1597C34.8536 14.3853 34.3071 13.9463 33.5867 13.6859C33.4922 13.6519 33.3929 13.6162 33.3265 13.5414C33.1183 13.3067 33.3628 12.8658 33.1308 12.6541C33.0594 12.5888 32.9595 12.5661 32.8712 12.5254C32.5132 12.3609 32.3817 11.9345 32.1526 11.6159C31.7671 11.0798 31.1267 10.8831 30.5798 10.5604C30.0106 10.2246 29.5201 9.77718 28.9499 9.44009C28.749 9.32124 28.5369 9.20768 28.3044 9.18123C27.7867 9.12212 27.2739 9.59129 27.2923 10.1073C27.3149 9.99979 27.3375 9.89245 27.3601 9.78496C26.944 10.1235 26.4666 10.4819 25.9303 10.4333C25.7315 10.4153 25.5421 10.3411 25.3447 10.3114C24.5844 10.1973 23.9782 10.7277 23.3631 11.0724C22.6779 11.4564 22.1338 11.4493 21.6652 12.07C21.1907 12.6981 21.0606 11.7167 20.9401 11.4837C20.8316 11.2741 20.9019 10.9888 20.6595 10.8392C20.6571 10.8159 20.6491 10.7949 20.6354 10.774C20.6185 10.4657 20.3495 10.5953 20.2463 10.4142C20.1117 10.1782 20.1219 9.83178 20.0823 9.56344C20.0671 9.45969 20.0501 9.35188 19.9903 9.26524C19.9314 9.17983 19.8375 9.12539 19.7442 9.07872C18.5394 8.47608 17.0293 8.75609 15.8292 8.14397C15.1115 7.77793 14.5866 7.13314 13.9566 6.63302C13.8179 6.52288 13.6596 6.41492 13.4819 6.41803C13.3355 6.42052 13.2026 6.49846 13.0776 6.57406C12.7778 6.75544 12.4636 6.95191 12.3044 7.26194C11.9154 8.01983 13.1065 8.34697 12.7646 9.10921C11.7662 8.40624 11.0654 7.53371 9.64092 7.87858C9.54795 7.90114 9.45466 7.92914 9.3752 7.98156C9.05813 8.19079 9.09818 8.67022 9.2593 9.01214C9.52816 9.58242 10.0374 10.0368 10.638 10.2426C10.8269 10.3073 11.0394 10.3585 11.1579 10.5178C11.3065 10.7175 11.2374 11.015 11.0697 11.1993C10.558 11.7618 9.91228 11.8352 9.87397 12.7743C9.74189 12.7348 9.60982 12.6953 9.47775 12.6558C9.52643 12.7379 9.66337 12.7463 9.72195 12.6707C9.78053 12.5951 9.73687 12.4662 9.64421 12.4408C9.4688 12.3928 9.26841 12.6606 9.13869 12.5342C9.31694 11.9513 9.11812 11.2726 8.65234 10.8748C8.45226 10.704 8.08353 10.6183 7.96999 10.8547C7.81718 11.4662 7.36082 11.9956 6.77505 12.2411C6.85546 12.2867 6.95628 12.2008 6.97041 12.1101C6.98455 12.0194 6.94733 11.9297 6.93445 11.8388C6.88215 11.4728 7.21351 11.1757 7.51158 10.9529C7.17237 10.8512 4.97833 11.4451 5.43014 11.8992C5.66649 12.1367 5.78129 12.3862 5.76888 12.7076C5.77595 12.7614 5.78302 12.8153 5.79008 12.8691C5.77783 12.9162 5.76558 12.9633 5.75334 13.0105C5.65157 13.0156 5.54997 13.0208 5.44836 13.0259C5.40282 12.9893 5.35727 12.9528 5.31158 12.9161C5.30875 12.7476 5.21814 12.6773 5.06125 12.7297C4.96027 12.7635 4.86118 12.8317 5.00377 12.9453C4.99372 12.9935 4.98367 13.0418 4.97362 13.09C4.82506 13.1497 4.71576 13.227 4.82804 13.4051C4.8282 13.7152 4.82836 14.0252 4.82851 14.3354C4.59201 14.5431 4.46779 14.8711 4.13219 14.9726C4.12622 15.0324 4.08586 15.0734 4.0455 15.1144C4.08586 15.0734 4.12622 15.0324 4.13219 14.9724C4.07817 14.9662 4.0243 14.96 3.97043 14.9539C3.86459 14.8434 3.76565 14.8767 3.6975 14.987C3.62934 15.0972 3.67834 15.1724 3.80648 15.1945C3.85721 15.2235 3.90777 15.2526 3.9585 15.2815C4.09544 15.431 4.23254 15.5805 4.36964 15.73C4.37246 15.8106 4.37529 15.8911 4.37796 15.9716C4.36869 15.9941 4.35927 16.0165 4.34985 16.0389C4.13219 16.1671 4.15198 16.3895 4.15182 16.5879C4.15166 16.6814 4.23584 16.7808 4.36225 16.6717C4.45083 16.6675 4.52118 16.6366 4.55086 16.5457C4.67226 16.5087 4.79349 16.4714 4.91473 16.4342C5.10522 16.4219 5.14323 16.2939 5.14574 16.1375C5.14747 16.0304 5.2106 15.9348 5.30922 15.9776C5.52955 16.0733 5.79134 16.0846 5.96691 16.2752C6.00931 16.3214 6.06915 16.3647 6.04763 16.4384C6.02392 16.5199 5.94744 16.5036 5.88556 16.5112C5.13098 16.6031 4.6922 17.12 4.28468 17.6784C4.18731 17.8117 4.21778 17.945 4.35943 17.9994C4.75816 18.1523 5.18893 18.3286 5.59441 18.1187C6.12411 17.8445 6.67957 17.6462 7.22828 17.4237C7.42929 17.3422 7.49101 17.3819 7.49682 17.5791C7.50671 17.9142 7.64774 18.1662 7.95114 18.3357C8.07159 18.4031 8.20194 18.5076 8.19361 18.6666C8.16896 19.1381 8.30778 19.6224 8.0862 20.0789C7.99527 20.2664 8.06829 20.4341 8.22361 20.5139C8.53864 20.6757 8.70699 20.9017 8.69207 21.2564C8.68092 21.576 9.02295 22.0998 9.05232 22.4724C9.09598 23.0243 8.98684 23.5765 9.07462 24.1282C9.21863 25.0324 9.88637 25.8362 10.7545 26.1501C10.8721 26.1926 10.9968 26.2271 11.1214 26.2139C11.2914 26.1957 11.442 26.0885 11.5474 25.9549C11.9402 25.4563 11.7327 24.7369 11.5086 24.1448C11.2591 23.4851 11.0095 22.8252 10.76 22.1655C10.732 22.0916 10.7036 22.016 10.7008 21.9369C10.6958 21.8044 10.7624 21.681 10.8159 21.5594C11.008 21.1238 11.029 20.5649 10.7005 20.2185C10.49 19.9965 10.1766 19.901 9.93961 19.707C9.70263 19.5129 9.56993 19.1129 9.80754 18.9196C9.91747 19.0005 10.0274 19.0813 10.1373 19.1622C10.072 19.0933 9.94668 19.1905 9.96065 19.2842C9.97447 19.3777 10.0618 19.4405 10.1417 19.4923C10.4979 19.7236 10.8542 19.9548 11.2106 20.186C11.7112 19.8017 12.003 19.165 11.9656 18.5389C11.9563 18.3837 11.9293 18.2216 11.9885 18.0775C12.0476 17.9336 12.2386 17.8296 12.365 17.9216C12.2618 17.8516 12.0996 17.8963 12.0479 18.0091C12.351 18.3077 12.5559 19.3996 12.3535 19.7664C12.2612 19.9343 12.5547 20.2046 12.1922 20.3076C11.8701 20.3991 11.9183 20.6231 12.0364 20.853C12.063 20.853 12.0895 20.853 12.1161 20.853C12.0895 20.853 12.063 20.853 12.0366 20.853C12.0273 21.0599 12.0182 21.2668 12.0093 21.4737C11.7723 21.6946 11.8879 21.8293 12.1241 21.9345C12.3081 22.193 12.4923 22.4517 12.6764 22.7104L12.6685 22.9485C12.5459 23.0495 12.4735 23.1688 12.5252 23.3334C12.5186 23.593 12.512 23.8525 12.5054 24.1121C12.3965 24.2344 12.4829 24.2548 12.5872 24.266C13.4495 24.3581 13.037 25.8742 12.9119 26.285C12.8783 26.3954 12.8342 26.5138 12.7348 26.574C12.6586 26.6202 12.5506 26.6333 12.5149 26.7145C12.4663 26.8249 12.6089 26.9296 12.7304 26.9337C12.8521 26.9377 12.9809 26.8962 13.0914 26.9464C13.1681 26.9813 13.2235 27.0561 13.3049 27.0779C13.3715 27.0958 13.4415 27.0744 13.51 27.066C13.7697 27.034 14.0389 27.2176 14.1014 27.4693C14.1639 27.7211 14.0112 28.0073 13.7661 28.0982C13.6336 28.1473 13.4866 28.1433 13.3509 28.1837C13.2152 28.2242 13.0805 28.337 13.094 28.4765C13.1004 28.5425 13.1389 28.6008 13.1794 28.6535C13.483 29.0502 13.9776 29.3509 14.051 29.8432C14.0975 30.155 13.9566 30.4593 13.8589 30.759C13.6518 31.3946 14.1677 32.0329 13.7697 32.636C13.6043 32.8866 13.3207 33.0372 13.1335 33.2722C12.9463 33.5071 12.9107 33.9226 13.1838 34.0508C13.382 33.9597 13.6119 33.9824 13.8289 34.0071C14.4068 34.0727 15.0319 34.16 15.4424 34.5681C15.7243 34.8482 16.0107 35.3031 16.3862 35.169C16.2042 35.1663 16.022 35.1638 15.84 35.1612C15.8931 35.1612 16.1219 35.4392 16.1781 35.4851C15.9137 35.7606 16.0705 35.9388 16.3262 36.1543C16.7421 36.5045 16.7187 37.1979 17.1438 37.5371C17.0645 37.4737 17.0536 37.8169 17.0813 37.8675C17.159 38.0096 17.556 37.9457 17.6794 37.9681C17.801 37.9904 17.913 38.0507 18.0345 38.0722C18.1922 38.1 18.3546 38.0602 18.5036 38.0017C18.9416 37.8295 19.3091 37.4879 19.5102 37.0657C19.4966 37.1085 19.4828 37.1511 19.4689 37.1939C20.3912 37.4307 21.7996 36.8339 22.1559 35.9006C22.3392 35.4205 22.0223 34.8607 22.2932 34.4025C22.579 33.9191 23.2141 33.8788 23.7185 33.859C24.0283 33.8469 25.6796 33.8069 25.7717 34.0048C25.7114 33.8749 25.6522 33.742 25.5749 33.6264C25.6996 33.8011 25.9292 33.9121 26.141 33.8108C26.2191 34.6765 26.7211 35.4949 27.4608 35.9623C27.5786 36.0367 27.7132 36.1048 27.8517 36.0857C28.2236 36.0344 28.3591 35.6773 28.6754 35.5479C29.0941 35.3765 29.6351 35.4135 30.0737 35.3332C30.2775 35.2959 31.0462 35.2639 31.2094 35.1635C31.3683 35.066 31.4158 34.8404 31.5822 34.7561C31.6714 34.711 31.7768 34.7163 31.8768 34.7113C32.396 34.686 32.883 34.3279 33.0578 33.843C32.9915 33.9394 32.9617 34.0598 32.9755 34.1757C32.9973 34.3596 33.9636 34.5024 33.4045 34.7505C33.3662 34.6822 33.3556 34.5169 33.4829 34.5211C33.6236 35.6399 33.9242 36.7196 34.6667 37.594C34.7342 37.6736 34.8204 37.7578 34.9249 37.7499C35.0789 37.7382 35.157 37.538 35.3085 37.508C35.4844 37.4733 35.6011 37.6738 35.693 37.8264C36.0289 38.3844 37.0833 38.7128 37.6428 38.3467C38.0795 38.061 38.1581 37.4689 38.1945 36.9517C38.687 37.2395 39.1793 37.5273 39.6718 37.815C39.7415 37.8558 39.8177 37.898 39.8982 37.8892C40.0339 37.8746 40.1092 37.7292 40.1527 37.6011C40.3284 37.082 40.3746 36.5227 40.2974 35.9805V35.9805Z" fill="white"/>
<path id="Fill 4" fill-rule="evenodd" clip-rule="evenodd" d="M11.3953 26.7227C11.2197 26.753 11.0029 26.7902 10.7863 26.8281C10.6453 26.8529 10.4816 26.8611 10.4875 27.0588C10.4928 27.2478 10.6305 27.3314 10.7981 27.3424C11.2017 27.3692 11.5949 27.4141 11.9619 27.6098C12.1504 27.7105 12.2287 27.5765 12.2163 27.4076C12.2035 27.2316 11.608 26.7228 11.3953 26.7227" fill="white"/>
<path id="Fill 6" fill-rule="evenodd" clip-rule="evenodd" d="M8.68118 10.464C8.85393 10.408 8.7886 10.1742 8.8054 10.0133C8.80807 9.98799 8.80571 9.96216 8.80571 9.92545C8.84215 9.71436 8.77509 9.50451 8.73002 9.29155C8.70458 9.17161 8.65637 9.05121 8.53372 9.03052C8.39583 9.00718 8.29454 9.11685 8.21335 9.21595C8.09101 9.36544 8.08819 10.0266 8.21979 10.1729C8.34464 10.3119 8.47671 10.5301 8.68118 10.464" fill="white"/>
</g>
</g>
</svg>
