<svg width="44" height="44" viewBox="0 0 44 44" fill="none" xmlns="http://www.w3.org/2000/svg">
<g id="icon_orange_5">
<g id="Group 3">
<mask id="mask0_1585_3251" style="mask-type:luminance" maskUnits="userSpaceOnUse" x="5" y="3" width="34" height="38">
<path id="Clip 2" fill-rule="evenodd" clip-rule="evenodd" d="M5.5 3.66797H38.5V40.3346H5.5V3.66797Z" fill="white"/>
</mask>
<g mask="url(#mask0_1585_3251)">
<path id="Fill 1" fill-rule="evenodd" clip-rule="evenodd" d="M12.2415 28.8785C12.0268 28.8106 11.9253 28.6743 11.8848 28.4831C11.8782 28.4518 11.8166 28.4231 11.775 28.4094C11.3111 28.2567 11.3109 28.2576 11.0804 28.6829C11.0685 28.7048 11.0535 28.7252 11.0257 28.7681C10.8861 28.505 10.7535 28.2594 10.6268 28.0108C10.6106 27.9791 10.6188 27.9301 10.6278 27.8919C10.6517 27.7907 10.6736 27.6876 10.7123 27.5916C10.7684 27.4527 10.749 27.3509 10.6253 27.2526C10.5619 27.2022 10.5233 27.1111 10.4937 27.0311C10.4438 26.8957 10.4099 26.7544 10.3591 26.5809C10.0349 26.8531 9.8818 27.223 9.61762 27.5261C9.33023 27.2629 8.95953 27.2731 8.61504 27.2029C8.48193 27.1759 8.41741 27.1314 8.42702 26.9822C8.43937 26.7905 8.42802 26.5968 8.41964 26.4043C8.41413 26.2783 8.1244 25.9663 8.00509 25.9579C7.9709 25.9556 7.92862 25.9844 7.89939 26.0096C7.70723 26.1751 7.51861 26.2062 7.2435 26.1009C7.344 25.9936 7.43635 25.8897 7.53474 25.7918C7.59699 25.7299 7.6101 25.6737 7.55279 25.6018C7.5107 25.5488 7.48379 25.4831 7.4382 25.434C7.27891 25.2623 7.27141 25.0566 7.30931 24.8479C7.35994 24.569 7.33323 24.3196 7.1003 24.1248C7.08446 24.1115 7.07078 24.0947 7.05957 24.0773C6.87173 23.7863 6.61644 23.6022 6.26086 23.5701C6.11833 23.5571 6.0487 23.4853 6.06852 23.3312C6.1251 22.8909 6.04394 22.4918 5.73352 22.1465C5.62854 22.0297 5.57041 21.8682 5.50585 21.7207C5.4889 21.682 5.5109 21.5989 5.54442 21.571C5.64845 21.4845 5.77176 21.421 5.87715 21.3358C5.9297 21.2934 5.98172 21.2279 5.99533 21.1646C6.02904 21.0077 6.03922 20.8459 6.0614 20.6864C6.07368 20.5981 6.02551 20.5698 5.95151 20.5815C5.80069 20.6052 5.74331 20.5268 5.72665 20.395C5.72274 20.3641 5.72069 20.3313 5.70856 20.3033C5.65406 20.1777 5.68881 20.0899 5.82098 20.0522C6.09766 19.9733 6.15815 19.7504 6.18219 19.5117C6.19665 19.3678 6.26606 19.2828 6.39504 19.2341C6.39993 19.2323 6.40418 19.2288 6.40906 19.2271C6.66911 19.1333 6.80717 18.9782 6.70358 18.6852C6.67261 18.5975 6.72176 18.5359 6.8078 18.4856C7.25547 18.2235 7.68792 18.2541 8.11911 18.5249C8.39059 18.6955 8.77755 18.5263 8.82651 18.2163C8.83467 18.1647 8.79743 18.1052 8.77786 18.0505C8.77326 18.0377 8.75641 18.0276 8.74305 18.0198C8.49334 17.8737 8.39409 17.672 8.48829 17.386C8.5221 17.2834 8.46656 17.2086 8.38581 17.131C8.00654 16.7669 7.53266 16.5691 7.05963 16.3713C6.92705 16.3158 6.87875 16.2449 6.88228 16.1034C6.88717 15.9063 6.87113 15.7081 6.85229 15.5115C6.84804 15.4673 6.79854 15.4245 6.7631 15.3874C6.74731 15.3709 6.71524 15.3657 6.68975 15.363C6.409 15.3325 6.24486 15.1943 6.23865 14.8986C6.23263 14.612 6.07977 14.4159 5.83818 14.2753C5.78087 14.2419 5.73229 14.1938 5.68037 14.153C5.82885 13.9022 5.97343 13.6622 6.1136 13.4197C6.20491 13.2617 6.29356 13.1019 6.37595 12.9392C6.41946 12.8532 6.47797 12.8199 6.57447 12.8214C6.85777 12.826 7.14139 12.8287 7.4244 12.8189C7.50081 12.8163 7.58899 12.7834 7.64857 12.7358C7.82406 12.5956 7.98672 12.4396 8.15695 12.2926C8.22698 12.2322 8.26038 12.1722 8.17856 12.1001C7.97223 11.9182 7.95648 11.6899 8.0118 11.4431C8.0152 11.428 8.01549 11.4121 8.01684 11.3965C8.04359 11.087 8.04365 11.0875 8.3675 11.0419C8.51252 11.0214 8.65943 11.0075 8.80105 10.9728C8.8944 10.9499 8.98854 10.9073 9.06703 10.8521C9.22077 10.744 9.36214 10.6186 9.51192 10.5046C9.61088 10.4292 9.66318 10.3383 9.6576 10.2111C9.65165 10.0759 9.66031 9.94007 9.65508 9.80484C9.65171 9.71775 9.68085 9.66773 9.77008 9.65069C10.1657 9.57511 10.5604 9.44213 10.9565 9.43826C11.2669 9.43519 11.5802 9.58628 11.8892 9.67909C11.9862 9.70821 12.0731 9.7704 12.1921 9.83158C12.2422 9.56135 12.2928 9.31958 12.3295 9.07577C12.3442 8.97758 12.3863 8.94383 12.4796 8.91048C12.7083 8.82877 12.9198 8.86741 13.1532 8.98512C13.1532 8.84707 13.1597 8.74091 13.1514 8.63586C13.1433 8.53342 13.1868 8.48371 13.2817 8.45615C13.4123 8.41818 13.5387 8.36494 13.6702 8.3305C13.7828 8.30097 13.8186 8.2385 13.8132 8.12711C13.7898 7.64385 13.7716 7.16033 13.7522 6.67692C13.75 6.62083 13.7519 6.56462 13.7519 6.47985C13.8256 6.51125 13.877 6.5303 13.9258 6.55442C14.2876 6.73303 14.6504 6.90968 15.0093 7.09374C15.1228 7.15195 15.1867 7.12896 15.2515 7.02242C15.5605 6.51422 15.8754 6.0096 16.1884 5.50384C16.2128 5.4644 16.2387 5.42583 16.2726 5.37346C16.3129 5.40812 16.3483 5.43518 16.3798 5.46606C16.8277 5.9054 17.2771 6.34337 17.7212 6.78656C17.8104 6.87555 17.8911 6.89979 18.0131 6.85459C18.4106 6.7072 18.8114 6.56793 19.213 6.43167C19.278 6.40959 19.3562 6.4044 19.4242 6.41572C19.6667 6.45607 19.9066 6.51213 20.1495 6.55023C20.2131 6.56024 20.2978 6.54613 20.3486 6.50975C20.5227 6.38506 20.6957 6.25528 20.849 6.10704C20.9116 6.04648 20.9548 5.93274 20.9521 5.84481C20.9409 5.46612 20.9099 5.08796 20.8849 4.70971C20.8794 4.62682 20.8596 4.54367 20.8646 4.46175C20.8679 4.40885 20.8895 4.33859 20.9283 4.30928C21.2037 4.10129 21.483 3.89784 21.7682 3.7033C21.8202 3.66783 21.908 3.66201 21.9742 3.67293C22.2322 3.71553 22.4894 3.76502 22.7439 3.82458C22.8048 3.83881 22.8781 3.89011 22.9048 3.94426C23.0525 4.24325 23.1899 4.54736 23.325 4.85226C23.3492 4.90691 23.3518 4.97322 23.3544 5.03453C23.3589 5.14242 23.3556 5.25062 23.3556 5.38579C23.6087 5.33852 23.8376 5.29704 24.0659 5.25278C24.3176 5.20401 24.5683 5.1504 24.8202 5.1036C24.9303 5.08321 25.0064 5.03331 25.0654 4.93409C25.2356 4.64777 25.4161 4.36753 25.6033 4.0677C25.8483 4.22063 26.0822 4.36637 26.3158 4.51258C26.5177 4.63892 26.5166 4.63808 26.7001 4.4777C26.9679 4.24372 27.2391 4.01355 27.5048 3.77725C27.5796 3.71075 27.6397 3.70387 27.7257 3.75873C27.9373 3.8939 28.1685 4.00241 28.3661 4.15463C28.5376 4.28676 28.6816 4.45752 28.8227 4.62384C28.9204 4.73908 29.0052 4.77834 29.1566 4.7124C29.4297 4.59341 29.7172 4.50704 29.9924 4.39218C30.158 4.32308 30.2995 4.3888 30.4489 4.42968C30.4629 4.43353 30.4762 4.44554 30.4865 4.45677C30.5873 4.56679 30.5582 4.92492 30.4426 5.02046C30.0475 5.34684 29.6547 5.67595 29.2568 5.99902C29.1708 6.06887 29.1563 6.12784 29.2163 6.22187C29.3313 6.40214 29.4399 6.58667 29.5451 6.77279C29.595 6.86119 29.6461 6.88575 29.7468 6.84196C30.0203 6.72312 30.2955 6.60657 30.5766 6.50762C30.7159 6.45857 30.8689 6.43446 31.0172 6.42711C31.2526 6.41547 31.4894 6.43364 31.7252 6.42645C31.8375 6.42301 31.906 6.4567 31.9679 6.55154C32.1731 6.8661 32.3905 7.17282 32.5975 7.48625C32.6491 7.56436 32.7037 7.59411 32.8001 7.59327C33.4254 7.58779 34.0477 7.5582 34.6546 7.39332C34.7673 7.36272 34.853 7.38597 34.948 7.44565C35.36 7.70447 35.7735 7.96113 36.1929 8.20778C36.2704 8.25333 36.38 8.2726 36.4706 8.26346C36.7834 8.2319 37.094 8.18022 37.4062 8.14222C37.4518 8.13668 37.512 8.15041 37.5475 8.17797C37.8617 8.42124 38.1717 8.66968 38.5 8.93009C38.3214 9.14105 38.1502 9.34926 37.9701 9.54946C37.9426 9.57996 37.8736 9.58137 37.8234 9.58252C37.5297 9.58928 37.2357 9.59788 36.9421 9.59329C36.8171 9.59131 36.745 9.62979 36.684 9.74181C36.4572 10.1584 36.2231 10.5712 35.9817 10.9795C35.9391 11.0515 35.8567 11.1257 35.7783 11.1469C35.5173 11.2176 35.3095 11.3532 35.1182 11.5429C34.6431 12.0141 34.1518 12.4691 33.6701 12.9337C33.6197 12.9823 33.5777 13.0473 33.5528 13.1126C33.4526 13.3751 33.3535 13.6385 33.2703 13.9066C33.2459 13.9854 33.2534 14.0892 33.2839 14.1669C33.4057 14.4765 33.54 14.7813 33.6749 15.0856C33.7127 15.1711 33.7061 15.2371 33.6529 15.3156C33.445 15.6222 33.2414 15.9317 33.0428 16.2443C32.9938 16.3214 32.9413 16.3491 32.8515 16.3397C32.6951 16.3235 32.5365 16.3263 32.381 16.3051C32.2628 16.2889 32.1848 16.3306 32.1056 16.4108C31.926 16.5925 31.7382 16.7662 31.5499 16.9468C31.5144 16.9179 31.4823 16.899 31.4596 16.8723C31.222 16.5911 30.9102 16.4379 30.5639 16.3279C30.4433 16.2897 30.3257 16.2 30.2396 16.1046C29.928 15.7595 29.6216 15.4089 29.3313 15.0461C29.1949 14.8757 29.0332 14.7974 28.8274 14.7423C28.6176 14.6862 28.4949 14.749 28.3307 14.8769C27.9744 15.1543 27.8218 15.4824 27.8867 15.9272C27.9057 16.0573 27.8606 16.1966 27.8448 16.3317C27.6187 16.3403 27.3761 16.4047 27.1702 16.3447C26.8521 16.2521 26.5557 16.0808 26.2568 15.9299C26.1222 15.8619 26.0269 15.8635 25.9079 15.9678C25.5751 16.2594 25.2298 16.5368 24.8528 16.8503C24.8096 16.7915 24.7605 16.7374 24.726 16.6753C24.6398 16.5204 24.4988 16.4984 24.3477 16.5262C24.2936 16.5361 24.2436 16.5921 24.2023 16.6368C24.1804 16.6606 24.1783 16.7046 24.1723 16.7403C24.0852 17.2624 23.8685 17.7331 23.5855 18.1753C23.5059 18.2998 23.5217 18.3805 23.6281 18.4824C23.9749 18.8144 24.3115 19.1569 24.6772 19.5206C24.4339 19.5865 24.2164 19.6504 23.9957 19.7009C23.9556 19.7101 23.8979 19.6721 23.8567 19.6438C23.6323 19.49 23.4083 19.3353 23.189 19.1745C23.1041 19.1123 23.0439 19.1056 22.9573 19.1792C22.6765 19.4179 22.6734 19.4139 22.3544 19.2091C22.2443 19.1384 22.1307 19.0729 22.0229 18.999C21.9354 18.9391 21.8841 18.9596 21.8396 19.0507C21.7345 19.2663 21.6334 19.4848 21.5122 19.6916C21.449 19.7995 21.3589 19.9002 21.2598 19.9775C21.0186 20.1656 20.7851 20.3784 20.4455 20.3726C20.4193 20.3722 20.3926 20.3992 20.3027 20.4476C20.3739 20.4869 20.4271 20.5042 20.4642 20.5385C20.7518 20.805 21.0385 21.0724 21.3195 21.3457C21.3624 21.3873 21.4078 21.4684 21.3956 21.5174C21.2888 21.9447 21.1692 22.3689 21.0453 22.824C20.6166 22.3616 20.2064 21.9191 19.7796 21.4587C19.6189 21.6378 19.453 21.8166 19.2969 22.0035C19.2728 22.0322 19.283 22.1015 19.2967 22.1463C19.3283 22.25 19.3717 22.3502 19.4193 22.4754C19.2573 22.5125 19.1076 22.5489 18.9571 22.5811C18.6449 22.6479 18.3329 22.7157 18.0195 22.7766C17.8823 22.8034 17.8552 22.8555 17.908 22.99C17.9878 23.1933 18.0953 23.358 18.3097 23.4371C18.3534 23.4532 18.3952 23.478 18.4335 23.505C18.7311 23.7152 19.0584 23.8117 19.4241 23.7637C19.531 23.7496 19.5961 23.7914 19.6099 23.901C19.6629 24.3206 19.8821 24.6444 20.1988 24.9131C20.2465 24.9536 20.2807 25.0114 20.3316 25.046C20.5792 25.214 20.616 25.4442 20.5531 25.7145C20.5281 25.8215 20.5 25.9186 20.3859 25.9575C19.9565 26.1041 19.829 26.4029 19.8847 26.8362C19.9168 27.0857 19.8783 27.3452 19.8614 27.5996C19.8454 27.8392 19.874 28.0666 20.0031 28.2739C20.0535 28.3548 20.0362 28.4147 19.9699 28.4792C19.8652 28.5813 19.7707 28.6937 19.6673 28.7972C19.6046 28.8601 19.5961 28.9142 19.6543 28.9864C19.8078 29.1771 19.957 29.3713 20.1056 29.5658C20.1258 29.5922 20.1402 29.6275 20.1445 29.6604C20.1604 29.7835 20.1558 29.9115 20.1879 30.0298C20.2203 30.1491 20.1819 30.224 20.1058 30.308C19.783 30.6643 19.4674 31.0269 19.1456 31.384C19.07 31.4679 19.0507 31.5458 19.099 31.6522C19.2001 31.8752 19.2874 32.1043 19.3875 32.3277C19.4109 32.3798 19.4554 32.4482 19.5024 32.4596C19.6642 32.4992 19.8308 32.526 19.997 32.5368C20.0411 32.5397 20.1005 32.4755 20.1352 32.4291C20.2874 32.2248 20.4332 32.0158 20.5981 31.785C20.7285 31.9451 20.8542 32.0827 20.9605 32.2337C21.1359 32.4828 21.353 32.6737 21.6353 32.7968C21.8028 32.8699 21.9633 32.9605 22.1219 33.052C22.2155 33.1059 22.2833 33.0959 22.3566 33.0186C22.4392 32.9316 22.5398 32.8607 22.6177 32.7702C22.7238 32.6468 22.8544 32.6309 23.0011 32.6496C23.0687 32.6582 23.1397 32.6811 23.2037 32.669C23.5332 32.6068 23.745 32.7876 23.9477 33.0019C24.0079 33.0656 24.0098 33.1101 23.9535 33.1735C23.8634 33.275 23.7861 33.3884 23.6915 33.4852C23.6007 33.5783 23.6033 33.6537 23.6789 33.7562C23.9145 34.0753 24.1415 34.4007 24.3716 34.7238C24.4134 34.7824 24.454 34.8418 24.5074 34.9186C24.1797 34.9701 23.8745 35.0489 23.5741 34.8857C23.5239 34.8584 23.4629 34.8498 23.4145 34.8203C23.1474 34.6574 22.8785 34.6978 22.6021 34.7952C22.5087 34.8282 22.4805 34.863 22.5025 34.9624C22.5838 35.3288 22.6679 35.6938 22.8507 36.0266C22.9046 36.1246 22.9084 36.2068 22.8301 36.2953C22.7717 36.3613 22.7351 36.4465 22.6763 36.512C22.28 36.9531 22.1936 37.5008 22.1293 38.0568C22.1078 38.2425 22.094 38.4297 22.0594 38.613C22.0498 38.6635 21.9856 38.7241 21.9329 38.7429C21.6025 38.8609 21.2669 38.9645 20.9363 39.0821C20.8566 39.1104 20.7771 39.1619 20.719 39.2229C20.4849 39.469 20.257 39.7211 20.0318 39.9752C19.9648 40.0508 19.9013 40.065 19.8125 40.0199C19.6586 39.9417 19.5061 39.8572 19.3443 39.7992C19.2539 39.7668 19.1372 39.7536 19.0476 39.781C18.4919 39.951 17.9393 40.1316 17.3885 40.3172C17.2785 40.3543 17.2158 40.3355 17.187 40.2296C17.114 39.9601 16.9226 39.8609 16.6598 39.8322C16.4682 39.8113 16.2774 39.7666 16.092 39.713C16.0111 39.6896 15.9233 39.6322 15.8755 39.5645C15.7342 39.3644 15.6061 39.1546 15.4833 38.9426C15.4135 38.8221 15.3551 38.8018 15.2466 38.9035C15.1065 39.0351 14.9518 39.1514 14.7876 39.2873C14.7 39.1778 14.6247 39.0733 14.5389 38.9782C14.2106 38.6145 14.0128 38.179 13.8416 37.7301C13.7524 37.4961 13.6265 37.2944 13.4305 37.1337C13.3135 37.0377 13.2014 36.9333 13.1025 36.8193C13.0655 36.7766 13.071 36.6964 13.0606 36.6328C13.0586 36.62 13.0714 36.6039 13.0795 36.5906C13.3226 36.1889 13.3244 35.7586 13.2505 35.3125C13.2031 35.0262 13.1897 34.7346 13.153 34.4464C13.1212 34.1973 12.84 34.0017 12.5899 34.0376C12.4399 34.059 12.2881 34.076 12.1371 34.0771C12.087 34.0774 12.0211 34.0331 11.989 33.9898C11.8864 33.8517 11.7927 33.7067 11.7027 33.56C11.6531 33.479 11.5977 33.4613 11.5072 33.4895C11.2823 33.5596 11.0546 33.6209 10.8279 33.6851C10.7735 33.7005 10.7183 33.7134 10.6374 33.7341C10.6602 33.3592 10.5105 32.9978 10.6938 32.6476C10.8163 32.4137 10.8275 32.1775 10.738 31.9288C10.5945 31.5302 10.7669 31.151 10.8341 30.7678C10.8475 30.6914 10.9447 30.6158 11.0208 30.5664C11.3316 30.3647 11.4548 30.0848 11.4256 29.7218C11.4154 29.594 11.4342 29.4612 11.4595 29.3346C11.4678 29.2935 11.5365 29.2386 11.5815 29.2347C11.8063 29.2154 11.9923 29.1222 12.1553 28.9743C12.1776 28.954 12.196 28.9294 12.2415 28.8785" fill="#D8DADD"/>
</g>
</g>
</g>
</svg>
