<svg width="44" height="44" viewBox="0 0 44 44" fill="none" xmlns="http://www.w3.org/2000/svg">
<g id="icon_orange_5">
<g id="Group 3">
<mask id="mask0_1585_3336" style="mask-type:luminance" maskUnits="userSpaceOnUse" x="3" y="10" width="38" height="24">
<path id="Clip 2" fill-rule="evenodd" clip-rule="evenodd" d="M3.66675 10.082H40.3334V33.9154H3.66675V10.082Z" fill="white"/>
</mask>
<g mask="url(#mask0_1585_3336)">
<path id="Fill 1" fill-rule="evenodd" clip-rule="evenodd" d="M13.4591 32.1815C13.4638 32.1643 13.4695 32.1472 13.4766 32.1302C14.0468 32.153 14.7915 32.049 14.9047 31.4936C14.9387 31.3255 14.8995 31.1518 14.8528 30.9868C14.0799 28.2608 10.9404 26.4393 8.16897 27.1089C7.69262 27.2239 7.22711 27.4022 6.73784 27.4325C5.89051 27.4851 4.14882 26.9556 3.77233 26.1029C3.52851 25.5509 3.7796 24.5187 3.80691 23.9279C3.84488 23.106 3.88819 22.2843 3.93682 21.4631C3.94878 21.2626 3.96494 21.0502 4.08257 20.8867C4.34627 20.5202 4.94186 20.602 5.28958 20.3127C5.71212 19.9612 5.55506 19.2698 5.23707 18.8229C4.91892 18.3761 4.46697 17.9893 4.35273 17.454C5.78564 17.6786 7.26783 16.4377 7.28705 14.9977C8.18577 15.6564 9.566 15.5509 10.3526 14.7634C11.0737 14.0413 11.2434 12.9506 11.7491 12.0663C12.4279 10.88 13.7683 10.0961 15.1423 10.082C14.8129 10.7634 14.4832 11.4448 14.1536 12.1261C14.0858 12.2667 14.016 12.4223 14.0554 12.5733C14.1066 12.7701 14.3175 12.8747 14.5059 12.9544C15.721 13.4692 16.9361 13.984 18.1511 14.4988C18.4103 14.6087 18.6803 14.7205 18.962 14.7096C19.6873 14.6817 20.1257 13.9004 20.7767 13.5818C21.3615 13.2956 22.0598 13.4097 22.6961 13.2688C24.0558 12.9679 25.0158 11.54 26.4068 11.4623C26.7282 11.4443 27.0553 11.5024 27.37 11.4355C27.8144 11.3409 28.1668 11.0141 28.5743 10.8142C29.5872 10.3171 30.8679 10.6783 31.7006 11.4366C32.5334 12.1948 32.9932 13.2732 33.3135 14.349C33.4086 14.6685 33.4949 14.9942 33.6534 15.2879C33.9241 15.7896 34.3975 16.1849 34.5551 16.7319C34.7672 17.4681 34.3925 18.4056 34.9446 18.9405C36.6663 18.0925 38.9604 18.6304 40.118 20.1536C40.2242 20.2933 40.3248 20.4496 40.3329 20.6243C40.347 20.932 40.0823 21.1696 39.8716 21.3956C39.3855 21.9171 39.0957 22.6148 39.07 23.3248C39.0483 23.921 39.2059 24.5155 39.1574 25.1102C39.0721 26.1574 38.3728 27.0412 37.7032 27.8549C37.135 28.545 36.5386 29.2576 35.7249 29.634C35.3951 29.7864 35.0372 29.8794 34.7231 30.0617C34.2227 30.352 33.8776 30.841 33.4523 31.232C33.0272 31.6231 32.4243 31.9298 31.8801 31.7315C31.0298 31.4217 30.8151 30.0803 29.9159 29.9728C29.5588 29.9301 29.2188 30.1125 28.8978 30.2738C27.9693 30.7398 26.9733 31.0733 25.9502 31.2605C25.6713 31.3115 25.3873 31.3518 25.105 31.3271C24.9035 31.3095 24.7055 31.2588 24.5034 31.2515C23.9897 31.2333 23.5124 31.4931 23.0655 31.7453C21.9196 32.3917 20.7735 33.038 19.6275 33.6845C19.3601 33.8353 19.0439 33.9903 18.7589 33.8756C18.5378 33.7864 18.4079 33.5597 18.2155 33.4197C17.4113 32.8343 16.2385 34.027 15.3398 33.5979C15.1482 33.5065 14.9963 33.3491 14.8127 33.2422C14.5322 33.0791 14.1939 33.0428 13.9016 32.9009C13.6261 32.7671 13.3829 32.4661 13.4591 32.1815" fill="#D8DADD"/>
</g>
</g>
</g>
</svg>
