<svg width="44" height="44" viewBox="0 0 44 44" fill="none" xmlns="http://www.w3.org/2000/svg">
<g id="icon_orange_5">
<g id="Group 5">
<path id="Mask" fill-rule="evenodd" clip-rule="evenodd" d="M40.0759 34.8937C40.1052 35.2008 40.0165 34.2795 39.984 33.9727C39.9271 33.4381 39.8977 33.1684 39.8461 33.0517C39.7164 32.7585 39.5038 32.5321 39.3865 32.407C39.2044 32.213 39.1366 32.1936 38.9728 31.9925C38.9131 31.9193 38.7743 31.7403 38.6511 31.486C38.4261 31.0217 38.5525 30.9242 38.3753 30.7031C38.1369 30.4056 37.8478 30.5069 37.7319 30.2426C37.6331 30.0174 37.8233 29.8987 37.7319 29.5979C37.6568 29.3511 37.5142 29.3828 37.3641 29.0914C37.1772 28.7281 37.3249 28.5358 37.1343 28.3546C36.9647 28.1932 36.8026 28.3028 36.6288 28.1243C36.508 28.0003 36.5372 27.8971 36.4449 27.6177C36.3618 27.3662 36.2572 27.2047 36.0772 26.927C35.7829 26.4727 35.7067 26.5386 35.5716 26.2823C35.2777 25.7241 35.6333 25.4003 35.3419 24.9468C35.1481 24.6453 34.9813 24.7735 34.6524 24.3942C34.2893 23.9753 34.4526 23.7725 34.1009 23.4271C33.8193 23.1505 33.6259 23.1935 33.4115 22.8745C33.2612 22.6509 33.3219 22.5787 33.1817 22.368C32.9622 22.0383 32.7018 22.047 32.4003 21.8154C32.129 21.6069 32.2045 21.4958 31.7569 20.6641C31.3968 19.995 31.0651 19.5415 30.9755 19.4207C30.6289 18.9535 30.6096 19.0257 30.3321 18.6379C29.8455 17.9579 29.9434 17.79 29.5048 17.2103C29.1413 16.7299 29.0421 16.803 28.7235 16.3353C28.4608 15.9499 28.3321 15.6125 28.1719 15.1841C27.8916 14.4347 28.0006 14.4276 27.7582 13.8026C27.5698 13.3166 27.5041 13.3215 27.0688 12.375C26.8466 11.8918 26.8846 11.9359 26.7011 11.5461C26.4964 11.111 26.4217 10.9979 25.9658 10.1185C25.5127 9.24465 25.4859 9.16226 25.4602 9.05938C25.3619 8.66546 25.4059 8.4711 25.2304 8.09234C25.0685 7.74299 24.9711 7.77865 24.8627 7.49368C24.6581 6.95553 24.8924 6.53112 24.7248 6.43448C24.6571 6.39546 24.5214 6.4086 24.2193 6.66475C24.2193 6.66475 23.7813 6.77117 23.6218 7.03314C23.5549 7.14287 23.5763 7.21522 23.5758 7.53972C23.5755 7.72809 23.5687 7.45957 23.5298 8.36865C23.4939 9.20989 23.5107 9.18341 23.4839 9.28961C23.43 9.50326 23.31 9.70834 23.0702 10.1185C22.8307 10.5281 22.711 10.733 22.5646 10.9014C22.3076 11.1972 22.2234 11.1667 21.6454 11.6382C21.0725 12.1055 21.1177 12.1661 20.8181 12.329C20.4755 12.5152 20.1601 12.5753 19.761 12.6513C19.3733 12.7252 19.0846 12.7365 18.8877 12.7434C18.4126 12.7601 18.171 12.766 17.9685 12.6513C17.7559 12.5309 17.7389 12.4058 17.5089 12.329C17.2882 12.2553 17.089 12.2986 16.9574 12.329C16.7421 12.3785 16.5482 12.4729 16.3978 12.567C16.4292 12.5743 16.4486 12.5853 16.4518 12.6053C16.4674 12.7018 16.1005 12.8617 16.0841 12.8355C16.0733 12.8184 16.1964 12.6929 16.3978 12.567C16.2842 12.5404 16.0031 12.5653 15.6704 12.421C15.3581 12.2856 15.2923 12.1273 15.027 12.0987C14.8358 12.0781 14.6722 12.139 14.5674 12.1908C14.5674 12.1908 14.1727 12.4925 13.7401 12.5132C13.4576 12.5266 13.228 12.417 13.1426 12.375C12.8747 12.2434 12.8464 12.1155 12.6829 12.0527C12.5105 11.9864 12.2216 12.0058 11.7178 12.421C11.7258 12.417 11.4404 12.5811 11.2582 12.6513C10.946 12.7717 10.6416 12.7308 10.488 12.7064C10.6515 12.7597 10.756 12.7782 10.7526 12.7895C10.7462 12.8107 10.3808 12.7236 10.3849 12.6974C10.3862 12.689 10.4242 12.6963 10.488 12.7064C10.3269 12.6539 10.1086 12.5676 9.87933 12.421C9.64048 12.2684 9.56814 12.1643 9.37373 12.1448C9.2894 12.1363 9.19982 12.1455 8.86817 12.2829C8.34172 12.5011 8.33549 12.5739 8.13279 12.6053C7.90047 12.6412 7.89677 12.5474 7.3974 12.4671C7.03137 12.4083 6.76698 12.3658 6.47818 12.4671C6.20374 12.5634 6.25614 12.6672 5.97263 12.7895C5.48908 12.998 5.23419 12.7403 4.91548 12.9737C4.74144 13.1011 4.79758 13.1925 4.54781 13.3881C4.38645 13.5145 4.32421 13.5067 4.0882 13.6644C3.83361 13.8346 3.7063 13.9196 3.67454 14.0328C3.66602 14.0633 3.66289 14.0962 3.67342 14.1393C3.70183 14.2555 3.83035 14.4457 4.22608 14.8618C4.77759 15.4415 4.82212 15.3814 5.05341 15.6906C5.35978 16.1004 5.38549 16.3448 5.60496 16.3814C5.81437 16.4163 6.0405 16.2353 6.15646 16.0591C6.13703 16.0244 5.99816 15.767 6.11051 15.532C6.12401 15.5037 6.1703 15.4101 6.27389 15.3478C6.34855 15.303 6.47668 15.26 6.51906 15.3069C6.55766 15.3496 6.4854 15.4229 6.49864 15.5525C6.50655 15.6306 6.54661 15.74 6.61607 15.7828C6.77059 15.8777 6.97317 15.5823 7.35145 15.5064C7.58511 15.4596 7.95127 15.4834 8.13279 15.6906C8.4126 16.0102 8.02576 16.5054 8.27067 16.7498C8.45077 16.9296 8.73243 16.7341 9.55756 16.7498C9.99272 16.7581 10.2102 16.7622 10.3389 16.8419C10.9818 17.2398 10.6201 18.6289 11.0743 18.776C11.2888 18.8455 11.4216 18.6394 11.7178 18.6379C11.988 18.6365 11.9237 20.0788 12.8994 19.8691L12.6952 21.3325C12.4872 21.4935 12.0978 21.7062 12.0855 22.1377C12.073 22.5739 11.731 22.3362 11.6259 22.6903C11.4793 23.1837 11.5684 23.6869 11.7178 23.8876C11.9342 24.1784 11.8966 24.0264 11.9342 24.1784C11.9683 24.3164 12.095 24.3928 11.8557 24.8087C11.6333 25.1951 11.6664 25.7855 11.9476 26.006C12.1538 26.1677 12.3189 25.9936 12.9128 26.0981C13.289 26.1642 13.5731 26.2958 13.7401 26.3743C14.2681 26.623 14.2079 26.75 14.5214 26.8349C15.0413 26.9756 15.2423 26.6358 15.7164 26.8349C15.9005 26.9122 16.2214 27.1109 16.222 27.1112C16.6085 27.1612 16.6641 27.8094 16.176 28.0322C15.8896 28.1629 15.7327 28.1928 15.5785 28.3546C15.3061 28.6403 15.8703 28.7533 15.8083 29.7361C15.7838 30.1243 15.3946 30.6571 15.3946 30.6571C15.466 31.0202 15.2971 31.0071 15.3061 31.3478C15.3062 31.3531 15.3075 31.3582 15.3083 31.3634C15.3312 31.5021 15.5986 31.6395 15.4866 32.1307C15.397 32.5239 15.3971 32.5683 15.3487 32.7754C15.116 33.7719 14.858 33.8383 14.8891 34.3411C14.8934 34.4111 14.9076 34.5965 14.99 34.8043C15.044 34.9405 15.127 35.0863 15.2568 35.216C15.5338 35.493 15.8585 35.5428 16.1301 35.5845C16.229 35.5996 16.3634 35.6272 16.5437 35.6221C16.7117 35.6174 17.1669 35.6047 17.4629 35.3082C17.5609 35.21 17.6167 35.0572 17.7387 34.7555C17.9683 34.1877 17.902 34.0676 18.0604 33.8806C18.3219 33.572 18.8848 33.4473 19.1176 33.6503C19.3672 33.8681 19.0677 34.3155 19.3473 34.6174C19.5623 34.8495 20.0186 34.8869 20.2666 34.7095C20.493 34.5475 20.3917 34.3164 20.6343 34.1109C20.8279 33.9467 20.9538 34.042 21.4156 33.9266C22.0271 33.7738 22.1262 33.5267 22.4268 33.6043C22.649 33.6617 22.6138 33.8016 22.9783 34.0187C23.3619 34.2473 23.5821 34.2002 23.6218 34.3411C23.6896 34.5822 23.0712 34.8127 23.1162 35.124C23.1541 35.386 23.635 35.517 23.7137 35.5384C24.322 35.7041 24.6024 35.347 25.0006 35.5384C25.0535 35.5639 25.0957 35.593 25.1305 35.6248C25.3366 35.8123 25.2807 36.0933 25.5981 36.2752C26.0474 36.5329 26.3872 36.0998 27.0229 36.3213C27.4446 36.4682 27.3588 36.681 27.8042 36.8278C28.3771 37.0166 28.654 36.7093 29.0452 36.966C29.089 36.9948 29.1253 37.025 29.1574 37.0557C29.3129 37.2045 29.3605 37.3643 29.5967 37.4265C29.6807 37.4486 29.7481 37.4477 30.1023 37.3804C30.6707 37.2725 30.9562 37.2162 31.0215 37.1041C31.1084 36.955 30.9841 36.8741 31.0215 36.4134C31.0411 36.1721 31.0547 36.0294 31.1594 35.9529C31.2657 35.8752 31.3524 35.9488 31.7109 35.9529C32.036 35.9566 32.075 35.8973 32.2165 35.9529C32.3944 36.0227 32.5307 36.1942 32.5842 36.3673C32.6779 36.6703 32.4899 36.8873 32.5842 36.966C32.6785 37.0446 32.8657 36.8271 33.2736 36.7357C33.5739 36.6684 33.8352 36.705 34.0549 36.7357C34.3753 36.7805 34.4153 36.8419 34.7444 36.8739C35.0339 36.902 35.2525 36.8787 35.2959 36.8739C35.4921 36.8519 35.8087 36.7907 36.1691 36.5976C36.1691 36.5976 36.5955 36.8267 36.7667 36.9199C37.7593 37.4609 37.9052 37.6511 38.0996 37.5646C38.1909 37.524 38.1728 37.4757 38.4672 36.9199C38.5723 36.7217 38.6852 36.5095 38.8349 36.2752C39.0767 35.8967 39.1976 35.7075 39.3405 35.6305C39.6866 35.4439 40.0499 35.6318 40.2288 35.5874C40.2606 35.5795 40.2867 35.5644 40.3057 35.5384C40.3588 35.4657 40.3612 35.3035 40.0759 34.8937" fill="#D8DADD"/>
<mask id="mask0_1585_3202" style="mask-type:luminance" maskUnits="userSpaceOnUse" x="3" y="6" width="38" height="32">
<path id="Mask_2" fill-rule="evenodd" clip-rule="evenodd" d="M40.0759 34.8937C40.1052 35.2008 40.0165 34.2795 39.984 33.9727C39.9271 33.4381 39.8977 33.1684 39.8461 33.0517C39.7164 32.7585 39.5038 32.5321 39.3865 32.407C39.2044 32.213 39.1366 32.1936 38.9728 31.9925C38.9131 31.9193 38.7743 31.7403 38.6511 31.486C38.4261 31.0217 38.5525 30.9242 38.3753 30.7031C38.1369 30.4056 37.8478 30.5069 37.7319 30.2426C37.6331 30.0174 37.8233 29.8987 37.7319 29.5979C37.6568 29.3511 37.5142 29.3828 37.3641 29.0914C37.1772 28.7281 37.3249 28.5358 37.1343 28.3546C36.9647 28.1932 36.8026 28.3028 36.6288 28.1243C36.508 28.0003 36.5372 27.8971 36.4449 27.6177C36.3618 27.3662 36.2572 27.2047 36.0772 26.927C35.7829 26.4727 35.7067 26.5386 35.5716 26.2823C35.2777 25.7241 35.6333 25.4003 35.3419 24.9468C35.1481 24.6453 34.9813 24.7735 34.6524 24.3942C34.2893 23.9753 34.4526 23.7725 34.1009 23.4271C33.8193 23.1505 33.6259 23.1935 33.4115 22.8745C33.2612 22.6509 33.3219 22.5787 33.1817 22.368C32.9622 22.0383 32.7018 22.047 32.4003 21.8154C32.129 21.6069 32.2045 21.4958 31.7569 20.6641C31.3968 19.995 31.0651 19.5415 30.9755 19.4207C30.6289 18.9535 30.6096 19.0257 30.3321 18.6379C29.8455 17.9579 29.9434 17.79 29.5048 17.2103C29.1413 16.7299 29.0421 16.803 28.7235 16.3353C28.4608 15.9499 28.3321 15.6125 28.1719 15.1841C27.8916 14.4347 28.0006 14.4276 27.7582 13.8026C27.5698 13.3166 27.5041 13.3215 27.0688 12.375C26.8466 11.8918 26.8846 11.9359 26.7011 11.5461C26.4964 11.111 26.4217 10.9979 25.9658 10.1185C25.5127 9.24465 25.4859 9.16226 25.4602 9.05938C25.3619 8.66546 25.4059 8.4711 25.2304 8.09234C25.0685 7.74299 24.9711 7.77865 24.8627 7.49368C24.6581 6.95553 24.8924 6.53112 24.7248 6.43448C24.6571 6.39546 24.5214 6.4086 24.2193 6.66475C24.2193 6.66475 23.7813 6.77117 23.6218 7.03314C23.5549 7.14287 23.5763 7.21522 23.5758 7.53972C23.5755 7.72809 23.5687 7.45957 23.5298 8.36865C23.4939 9.20989 23.5107 9.18341 23.4839 9.28961C23.43 9.50326 23.31 9.70834 23.0702 10.1185C22.8307 10.5281 22.711 10.733 22.5646 10.9014C22.3076 11.1972 22.2234 11.1667 21.6454 11.6382C21.0725 12.1055 21.1177 12.1661 20.8181 12.329C20.4755 12.5152 20.1601 12.5753 19.761 12.6513C19.3733 12.7252 19.0846 12.7365 18.8877 12.7434C18.4126 12.7601 18.171 12.766 17.9685 12.6513C17.7559 12.5309 17.7389 12.4058 17.5089 12.329C17.2882 12.2553 17.089 12.2986 16.9574 12.329C16.7421 12.3785 16.5482 12.4729 16.3978 12.567C16.4292 12.5743 16.4486 12.5853 16.4518 12.6053C16.4674 12.7018 16.1005 12.8617 16.0841 12.8355C16.0733 12.8184 16.1964 12.6929 16.3978 12.567C16.2842 12.5404 16.0031 12.5653 15.6704 12.421C15.3581 12.2856 15.2923 12.1273 15.027 12.0987C14.8358 12.0781 14.6722 12.139 14.5674 12.1908C14.5674 12.1908 14.1727 12.4925 13.7401 12.5132C13.4576 12.5266 13.228 12.417 13.1426 12.375C12.8747 12.2434 12.8464 12.1155 12.6829 12.0527C12.5105 11.9864 12.2216 12.0058 11.7178 12.421C11.7258 12.417 11.4404 12.5811 11.2582 12.6513C10.946 12.7717 10.6416 12.7308 10.488 12.7064C10.6515 12.7597 10.756 12.7782 10.7526 12.7895C10.7462 12.8107 10.3808 12.7236 10.3849 12.6974C10.3862 12.689 10.4242 12.6963 10.488 12.7064C10.3269 12.6539 10.1086 12.5676 9.87933 12.421C9.64048 12.2684 9.56814 12.1643 9.37373 12.1448C9.2894 12.1363 9.19982 12.1455 8.86817 12.2829C8.34172 12.5011 8.33549 12.5739 8.13279 12.6053C7.90047 12.6412 7.89677 12.5474 7.3974 12.4671C7.03137 12.4083 6.76698 12.3658 6.47818 12.4671C6.20374 12.5634 6.25614 12.6672 5.97263 12.7895C5.48908 12.998 5.23419 12.7403 4.91548 12.9737C4.74144 13.1011 4.79758 13.1925 4.54781 13.3881C4.38645 13.5145 4.32421 13.5067 4.0882 13.6644C3.83361 13.8346 3.7063 13.9196 3.67454 14.0328C3.66602 14.0633 3.66289 14.0962 3.67342 14.1393C3.70183 14.2555 3.83035 14.4457 4.22608 14.8618C4.77759 15.4415 4.82212 15.3814 5.05341 15.6906C5.35978 16.1004 5.38549 16.3448 5.60496 16.3814C5.81437 16.4163 6.0405 16.2353 6.15646 16.0591C6.13703 16.0244 5.99816 15.767 6.11051 15.532C6.12401 15.5037 6.1703 15.4101 6.27389 15.3478C6.34855 15.303 6.47668 15.26 6.51906 15.3069C6.55766 15.3496 6.4854 15.4229 6.49864 15.5525C6.50655 15.6306 6.54661 15.74 6.61607 15.7828C6.77059 15.8777 6.97317 15.5823 7.35145 15.5064C7.58511 15.4596 7.95127 15.4834 8.13279 15.6906C8.4126 16.0102 8.02576 16.5054 8.27067 16.7498C8.45077 16.9296 8.73243 16.7341 9.55756 16.7498C9.99272 16.7581 10.2102 16.7622 10.3389 16.8419C10.9818 17.2398 10.6201 18.6289 11.0743 18.776C11.2888 18.8455 11.4216 18.6394 11.7178 18.6379C11.988 18.6365 11.9237 20.0788 12.8994 19.8691L12.6952 21.3325C12.4872 21.4935 12.0978 21.7062 12.0855 22.1377C12.073 22.5739 11.731 22.3362 11.6259 22.6903C11.4793 23.1837 11.5684 23.6869 11.7178 23.8876C11.9342 24.1784 11.8966 24.0264 11.9342 24.1784C11.9683 24.3164 12.095 24.3928 11.8557 24.8087C11.6333 25.1951 11.6664 25.7855 11.9476 26.006C12.1538 26.1677 12.3189 25.9936 12.9128 26.0981C13.289 26.1642 13.5731 26.2958 13.7401 26.3743C14.2681 26.623 14.2079 26.75 14.5214 26.8349C15.0413 26.9756 15.2423 26.6358 15.7164 26.8349C15.9005 26.9122 16.2214 27.1109 16.222 27.1112C16.6085 27.1612 16.6641 27.8094 16.176 28.0322C15.8896 28.1629 15.7327 28.1928 15.5785 28.3546C15.3061 28.6403 15.8703 28.7533 15.8083 29.7361C15.7838 30.1243 15.3946 30.6571 15.3946 30.6571C15.466 31.0202 15.2971 31.0071 15.3061 31.3478C15.3062 31.3531 15.3075 31.3582 15.3083 31.3634C15.3312 31.5021 15.5986 31.6395 15.4866 32.1307C15.397 32.5239 15.3971 32.5683 15.3487 32.7754C15.116 33.7719 14.858 33.8383 14.8891 34.3411C14.8934 34.4111 14.9076 34.5965 14.99 34.8043C15.044 34.9405 15.127 35.0863 15.2568 35.216C15.5338 35.493 15.8585 35.5428 16.1301 35.5845C16.229 35.5996 16.3634 35.6272 16.5437 35.6221C16.7117 35.6174 17.1669 35.6047 17.4629 35.3082C17.5609 35.21 17.6167 35.0572 17.7387 34.7555C17.9683 34.1877 17.902 34.0676 18.0604 33.8806C18.3219 33.572 18.8848 33.4473 19.1176 33.6503C19.3672 33.8681 19.0677 34.3155 19.3473 34.6174C19.5623 34.8495 20.0186 34.8869 20.2666 34.7095C20.493 34.5475 20.3917 34.3164 20.6343 34.1109C20.8279 33.9467 20.9538 34.042 21.4156 33.9266C22.0271 33.7738 22.1262 33.5267 22.4268 33.6043C22.649 33.6617 22.6138 33.8016 22.9783 34.0187C23.3619 34.2473 23.5821 34.2002 23.6218 34.3411C23.6896 34.5822 23.0712 34.8127 23.1162 35.124C23.1541 35.386 23.635 35.517 23.7137 35.5384C24.322 35.7041 24.6024 35.347 25.0006 35.5384C25.0535 35.5639 25.0957 35.593 25.1305 35.6248C25.3366 35.8123 25.2807 36.0933 25.5981 36.2752C26.0474 36.5329 26.3872 36.0998 27.0229 36.3213C27.4446 36.4682 27.3588 36.681 27.8042 36.8278C28.3771 37.0166 28.654 36.7093 29.0452 36.966C29.089 36.9948 29.1253 37.025 29.1574 37.0557C29.3129 37.2045 29.3605 37.3643 29.5967 37.4265C29.6807 37.4486 29.7481 37.4477 30.1023 37.3804C30.6707 37.2725 30.9562 37.2162 31.0215 37.1041C31.1084 36.955 30.9841 36.8741 31.0215 36.4134C31.0411 36.1721 31.0547 36.0294 31.1594 35.9529C31.2657 35.8752 31.3524 35.9488 31.7109 35.9529C32.036 35.9566 32.075 35.8973 32.2165 35.9529C32.3944 36.0227 32.5307 36.1942 32.5842 36.3673C32.6779 36.6703 32.4899 36.8873 32.5842 36.966C32.6785 37.0446 32.8657 36.8271 33.2736 36.7357C33.5739 36.6684 33.8352 36.705 34.0549 36.7357C34.3753 36.7805 34.4153 36.8419 34.7444 36.8739C35.0339 36.902 35.2525 36.8787 35.2959 36.8739C35.4921 36.8519 35.8087 36.7907 36.1691 36.5976C36.1691 36.5976 36.5955 36.8267 36.7667 36.9199C37.7593 37.4609 37.9052 37.6511 38.0996 37.5646C38.1909 37.524 38.1728 37.4757 38.4672 36.9199C38.5723 36.7217 38.6852 36.5095 38.8349 36.2752C39.0767 35.8967 39.1976 35.7075 39.3405 35.6305C39.6866 35.4439 40.0499 35.6318 40.2288 35.5874C40.2606 35.5795 40.2867 35.5644 40.3057 35.5384C40.3588 35.4657 40.3612 35.3035 40.0759 34.8937" fill="white"/>
</mask>
<g mask="url(#mask0_1585_3202)">
</g>
</g>
</g>
</svg>
