<svg width="44" height="44" viewBox="0 0 44 44" fill="none" xmlns="http://www.w3.org/2000/svg">
<g id="icon_orange_5">
<g id="Group 10">
<path id="Fill 1" fill-rule="evenodd" clip-rule="evenodd" d="M9.63582 31.7374C9.45063 31.5251 9.27527 31.3069 9.10413 31.113C8.86989 30.8471 8.70395 30.3244 8.39117 30.1505C8.14794 30.0152 7.82589 30.1564 7.66711 30.3851C7.53784 30.5715 7.20399 32.2791 7.10254 32.2824C8.1478 32.2485 8.0753 33.1962 7.97104 33.9352C7.90205 34.4242 8.15947 34.6853 8.54587 34.9223C8.92413 35.1542 9.67573 34.886 10.0783 34.792C10.2406 34.754 10.4126 34.6461 10.4255 34.4799C10.4345 34.3625 10.3661 34.2239 10.4469 34.1383C10.489 34.0935 10.5562 34.0855 10.6117 34.0589C10.7539 33.991 10.8028 33.8129 10.8091 33.6553C10.8189 33.4071 10.9384 33.1289 10.8424 32.8965C10.7422 32.6543 10.371 32.4501 10.1781 32.2867C9.98598 32.1242 9.80668 31.9332 9.63582 31.7374" fill="#D8DADD"/>
<path id="Fill 3" fill-rule="evenodd" clip-rule="evenodd" d="M7.03153 30.7829C7.02535 30.7768 7.02058 30.7723 7.01762 30.7695C6.80292 30.8343 6.55745 30.9481 6.4716 31.1758C6.39741 31.3722 6.42593 31.5929 6.48663 31.7944C6.6263 32.2531 7.09729 31.0868 7.15926 30.9485C7.17064 30.9233 7.07228 30.8225 7.03153 30.7829" fill="#D8DADD"/>
<path id="Fill 5" fill-rule="evenodd" clip-rule="evenodd" d="M40.1975 12.2196C39.8147 12.0925 38.7429 12.2219 38.5452 12.1556C38.3926 12.1046 38.2541 12.0168 38.1002 11.9702C37.5916 11.8167 37.0734 12.1392 36.6395 12.4461C36.4467 12.0206 36.2176 11.5586 35.7873 11.3773C35.4431 11.2324 35.0448 11.3027 34.6852 11.2019C34.0434 11.0221 33.5665 10.3288 33.1538 9.84241C32.6295 9.2246 32.1372 8.57559 31.53 8.03439C30.8514 7.42951 30.1054 6.87862 29.2424 6.5695C28.8829 6.44074 28.528 6.29708 28.2963 6.58764C28.0632 6.88002 28.261 7.31017 27.7796 7.4655C27.5458 7.54492 27.2668 7.49882 27.0687 7.64628C26.8121 7.83717 26.8438 8.2191 26.8077 8.53707C26.7085 9.41086 26.0185 9.75667 25.3093 10.0838C24.3322 10.5344 23.4064 11.0728 22.5554 11.7338C22.6292 11.8173 22.703 11.9008 22.7767 11.9843C22.8091 12.021 22.8436 12.0696 22.8239 12.1145C22.8048 12.158 22.7479 12.1666 22.7003 12.1679C22.5338 12.1725 22.3669 12.1631 22.2019 12.1399C22.5927 12.8468 22.788 14.2129 23.6104 14.5563C23.8615 14.6613 24.1913 14.6841 24.3111 14.9284C24.5389 15.3926 23.7347 15.5542 23.4614 15.6386L23.652 15.8685C23.7822 16.5409 23.9317 17.1853 24.0279 17.8375C24.1889 18.9293 24.3205 20.0254 24.4573 21.1204C24.4622 21.1594 24.4686 21.2017 24.4973 21.2285C24.5278 21.257 24.5739 21.259 24.6156 21.2596L25.3686 21.2679C25.5823 21.2703 25.7998 21.2721 26.0046 21.2107C26.3069 21.1199 26.7104 20.389 27.0299 20.5098C27.2297 20.5853 27.3566 21.1394 27.3838 21.3204C26.6061 21.5319 25.8448 21.8037 25.1088 22.1324C24.7606 22.288 24.4055 22.466 24.1705 22.7665C23.5897 23.5087 23.9669 24.6433 23.5467 25.487L24.2128 25.0956C24.0099 25.4874 23.6131 25.6465 23.4858 26.0643C23.4401 26.214 23.6499 27.5449 23.8171 27.4335C24.3055 27.0923 24.5091 26.8175 24.7983 26.2974C24.9926 26.4665 25.1737 26.6242 25.36 26.7863C25.1146 26.8596 24.8723 26.932 24.7648 26.9641C24.9119 27.4357 25.0163 27.7701 25.1574 28.2222C25.2339 28.4439 26.0862 28.2136 26.2503 28.2157C26.8348 28.2233 27.0831 28.5662 27.2242 29.1345C27.3087 29.4747 27.3658 29.8209 27.423 30.1667C27.4409 30.2749 27.457 30.3936 27.4014 30.4883C27.248 30.7488 26.9751 30.4245 26.9213 30.2682C26.785 29.8726 26.8615 29.4376 26.8038 29.0233C26.7858 28.8937 26.7507 28.7588 26.6579 28.6664C26.5055 28.5144 26.2602 28.5289 26.0455 28.5433C25.4008 28.5864 24.7498 28.5331 24.1207 28.3857C24.0427 28.5506 24.1483 28.7378 24.1868 28.916C24.2253 29.0943 24.0973 29.347 23.9294 29.2761C23.8675 29.2499 23.8306 29.1874 23.798 29.1286C23.6503 28.8629 23.5025 28.5972 23.3547 28.3316C23.2029 28.7148 23.0616 29.185 23.3166 29.5086C23.6028 29.8717 24.1597 29.7837 24.6162 29.8558C24.6597 29.8627 24.7067 29.8735 24.7345 29.9076C24.7581 29.9367 24.7626 29.9765 24.7658 30.0139C24.8928 31.4833 24.3758 32.7026 25.6503 33.7986C25.8396 33.9613 26.0383 34.1322 26.187 34.3265C25.7948 34.2749 25.5444 33.9001 25.1937 33.751C24.7483 33.5615 24.1521 33.5713 23.6818 33.6328C23.4355 33.6648 23.1717 33.7344 23.0215 33.9322C22.9878 33.9766 22.9601 34.0324 22.9737 34.0864C22.998 34.1834 23.1255 34.2026 23.2255 34.2019C23.6766 34.1991 24.1276 34.1962 24.5798 34.1934C24.9467 34.1921 24.7851 35.3251 24.5649 35.4658C24.2895 35.6417 23.2921 35.4519 22.9517 35.4519C22.8678 35.4512 22.7773 35.4525 22.7093 35.5022C22.5408 35.6275 22.6284 36.5143 22.6809 36.6879C22.7884 37.0432 22.7013 36.947 23.1317 36.9997C23.5397 37.0496 23.9839 37.0034 24.3954 37.0052C24.5574 37.0059 24.7216 37.0069 24.8785 37.0475C25.0783 37.0992 25.2556 37.2125 25.442 37.3015C26.0689 37.6008 26.7935 37.623 27.4842 37.5489C27.8073 37.5143 29.2339 37.4896 29.4273 37.2682C29.6449 37.0191 29.1301 36.615 29.4589 36.1805C29.7233 35.8312 30.0176 35.5012 30.3031 35.1691C30.7485 34.6509 31.1859 34.049 31.7095 33.6054C32.0106 33.3504 32.4118 33.1842 32.7998 33.2552C33.6494 33.4105 34.0907 33.3759 34.7507 32.7092C35.5475 31.9042 36.2103 30.981 36.8393 30.0423C37.277 29.3888 38.3363 28.4838 38.2913 27.6513C38.2721 27.2977 38.0742 26.918 38.2527 26.6118C38.3658 26.4178 38.5975 26.3265 38.7439 26.1562C38.8671 26.0128 38.9217 25.8236 38.9592 25.6384C39.0405 25.2369 39.1286 24.6473 38.9876 24.2498C38.8333 23.8157 38.6578 23.8874 38.2396 23.7778C38.0992 23.7409 37.9761 23.6583 37.856 23.577C37.4419 23.297 37.0277 23.0169 36.6289 22.7156C36.4203 22.5582 36.213 22.3917 36.0628 22.1778C35.7429 21.7219 35.8766 21.052 35.8872 20.5285C35.894 20.1761 35.9385 19.758 36.2473 19.5882C36.5432 19.4253 36.9982 19.5508 37.1778 19.2646C37.2338 19.1755 37.2446 19.0661 37.2541 18.9612C37.3585 17.7975 37.4688 16.6458 37.6823 15.4958C37.6954 15.4253 37.7099 15.3524 37.7522 15.2946C37.9899 14.9706 38.4831 14.9945 38.7185 14.5594C38.9157 14.1949 38.925 13.9593 39.2058 13.6318C39.5409 13.241 39.9064 12.8723 40.2554 12.4939C40.3875 12.3506 40.3408 12.2671 40.1975 12.2196" fill="#D8DADD"/>
<path id="Fill 8" fill-rule="evenodd" clip-rule="evenodd" d="M19.3111 18.8518C19.1881 18.7912 19.0698 18.7184 18.9582 18.6273C18.7912 18.491 18.6074 18.357 18.3934 18.3302C18.2907 18.3172 18.1843 18.3297 18.0847 18.3009C17.773 18.2104 17.6454 17.7637 17.372 17.5801C17.0432 17.3594 16.6016 17.2912 16.2258 17.421C15.2543 17.7568 15.4678 18.7761 15.1343 19.5363C14.7835 20.3361 13.9845 21.0345 13.0742 21.0197C12.4051 21.0087 11.7237 20.9004 11.0698 20.9924C10.0745 21.1327 9.01057 20.9847 8.12549 21.694C7.30828 22.3489 6.43767 22.9395 5.56622 23.5223C5.08075 23.8467 4.70628 23.437 4.2152 23.5878C3.82865 23.7066 3.62449 24.1634 3.67409 24.5649C3.72369 24.9664 3.9679 25.3161 4.23417 25.6206C4.50029 25.9251 4.7993 26.2076 4.99813 26.5599C4.72343 26.7443 4.43369 26.8 4.58207 27.0953C4.66722 27.2649 5.06234 27.3988 5.22744 27.4624C5.54205 27.5757 5.913 27.5831 6.1929 27.4002C6.39144 27.2705 6.52535 27.0599 6.72024 26.9247C7.31896 26.5096 7.77239 27.4344 7.29591 27.8242C7.59745 27.7521 7.82943 27.5877 8.08601 27.4222C8.34694 27.8696 8.60773 28.317 8.86866 28.7645C8.94032 28.8875 9.01718 29.0157 9.13984 29.0878C9.23877 29.1458 9.35637 29.1606 9.47019 29.1741C9.99992 29.2369 10.5718 29.3796 11.0945 29.216C11.7244 29.0186 12.2229 28.4291 12.733 28.0329C13.3955 27.5186 14.0514 26.9951 14.7003 26.4637C15.3846 25.9036 15.894 25.1637 16.5678 24.5927C17.3837 23.9013 18.2852 23.889 19.2919 23.6785C20.3579 23.4555 21.4183 23.0985 22.1981 22.3017C22.9839 21.4991 22.25 20.7627 21.6854 20.0851C21.0052 19.2683 20.178 19.2794 19.3111 18.8518" fill="#D8DADD"/>
</g>
</g>
</svg>
