<svg width="44" height="44" viewBox="0 0 44 44" fill="none" xmlns="http://www.w3.org/2000/svg">
<g id="icon_orange_5">
<path id="Mask" fill-rule="evenodd" clip-rule="evenodd" d="M21.647 24.9704C21.7668 25.0146 21.938 25.0876 22.1617 25.2241C22.3722 25.3526 22.4747 25.4429 22.5444 25.5044C22.616 25.5675 22.653 25.6001 22.737 25.6122C22.8822 25.633 22.9688 25.5638 23.1458 25.4223C23.253 25.3366 23.3933 25.2245 23.5999 25.0898C23.8187 24.9471 23.9639 24.8756 24.0738 24.8215C24.2213 24.7488 24.305 24.7076 24.4174 24.5675C24.5935 24.3479 24.6742 24.0924 24.7504 23.8511C24.8105 23.6608 24.8264 23.5503 24.8381 23.4695C24.8511 23.3791 24.8588 23.3257 24.9169 23.2392C25.0262 23.0766 25.1606 23.025 25.2955 22.9731C25.4229 22.9241 25.5508 22.8749 25.6587 22.7318C25.869 22.4528 25.8716 21.9909 25.689 21.8662C25.5201 21.7509 25.19 21.9219 24.7504 22.1498C24.616 22.2194 24.515 22.2798 24.434 22.3282C24.2648 22.4294 24.1835 22.478 24.0692 22.4482C23.8296 22.3859 23.7016 22.0465 23.6907 21.8065C23.6889 21.7655 23.6769 21.3952 23.9026 21.2543C23.9641 21.2159 24.0141 21.2128 24.0613 21.2098C24.1091 21.2068 24.1541 21.204 24.2054 21.1648C24.3698 21.0393 24.3934 20.6981 24.2508 20.4932C24.1835 20.3964 24.1085 20.3724 24.0296 20.3471C23.9593 20.3247 23.8859 20.3012 23.8118 20.2245C23.6915 20.1001 23.6899 19.9601 23.6861 19.6432C23.6847 19.5291 23.6831 19.3921 23.6756 19.2247C23.6519 18.6983 23.6374 18.4336 23.509 18.359C23.4097 18.3014 23.3112 18.3522 23.1858 18.4169C23.0438 18.4901 22.8673 18.5812 22.6159 18.553C22.4285 18.5321 22.1145 18.4354 21.8438 18.2247C21.8077 18.1966 21.7751 18.1686 21.7452 18.1429C21.6563 18.0666 21.5907 18.0102 21.5259 18.0307C21.4182 18.0647 21.4006 18.2831 21.3905 18.4086L21.3897 18.4187L21.3896 18.4197C21.3307 19.1433 21.2954 19.5771 21.1172 19.8515C21.0164 20.0066 20.9097 20.0406 20.7357 20.0959C20.5595 20.152 20.3142 20.2301 19.9364 20.4783C19.9025 20.5005 19.8691 20.5223 19.8364 20.5436C19.4491 20.7961 19.1498 20.9913 19.1189 21.2842C19.0925 21.5342 19.2703 21.7256 19.4135 21.8797C19.524 21.9987 19.6139 22.0954 19.573 22.1796C19.4654 22.4015 18.5679 22.2936 17.8472 21.911C17.6847 21.8247 17.562 21.684 17.4516 21.5574C17.3102 21.3952 17.189 21.2561 17.0298 21.2842C16.9644 21.2957 16.8789 21.3345 16.8178 21.4035C16.7323 21.5003 16.7294 21.6177 16.727 21.8364C16.726 21.9271 16.7255 21.9972 16.729 22.0547C16.7336 22.1288 16.745 22.1813 16.7724 22.2244C16.8035 22.2731 16.8401 22.3024 16.8793 22.3238C16.9072 22.339 16.9364 22.3501 16.9659 22.3614C17.0298 22.3858 17.0949 22.4108 17.1509 22.4781C17.2371 22.5819 17.2295 22.6999 17.219 22.8641C17.216 22.9106 17.2128 22.9608 17.2114 23.0154C17.2043 23.294 17.1944 23.6875 17.3628 23.9108C17.5181 24.1166 17.7916 24.1338 18.0531 24.1501C18.3096 24.1662 18.5545 24.1815 18.6648 24.3735C18.71 24.4523 18.7058 24.5143 18.7004 24.595C18.6946 24.6828 18.6872 24.7928 18.7405 24.9704C18.7681 25.063 18.8545 25.351 19.0735 25.5375C19.5096 25.9092 20.3874 25.8066 20.7236 25.3883C20.7958 25.2984 20.8324 25.2072 20.8652 25.1254C20.9117 25.0097 20.9505 24.9129 21.0717 24.866C21.2141 24.8108 21.363 24.8657 21.6464 24.9702L21.647 24.9704ZM39.8964 21.8411L39.8989 21.8426C40.4493 21.9127 40.5286 22.8208 39.8334 23.133C39.7264 23.181 39.6321 23.2194 39.5472 23.2539C39.3086 23.3508 39.1445 23.4175 38.9826 23.5847C38.8046 23.7684 38.8776 23.9012 39 24.1241C39.1444 24.387 39.3576 24.7752 39.3099 25.5203C39.275 26.0642 38.7209 26.8107 38.7209 26.8107C38.7768 27.0908 38.729 27.2112 38.6769 27.3424C38.6344 27.4496 38.589 27.564 38.5947 27.7784C38.5949 27.7858 38.5967 27.793 38.598 27.8003C38.6072 27.8556 38.6447 27.9108 38.69 27.9773C38.8035 28.1444 38.9658 28.3831 38.8517 28.8753C38.7805 29.1826 38.7491 29.3378 38.7233 29.4654C38.7028 29.5665 38.6859 29.6503 38.6554 29.7786C38.498 30.4416 38.3325 30.8108 38.2069 31.0911C38.0679 31.401 37.9777 31.6024 38.001 31.9723C38.0071 32.0705 38.0273 32.3301 38.1446 32.6212C38.0862 32.9108 37.956 33.4071 37.569 33.5836C37.2246 33.7406 36.8108 33.5966 36.4444 33.4691C36.1206 33.3565 35.8339 33.2567 35.6649 33.3891C35.5899 33.4478 35.5565 33.57 35.5797 33.7897C35.4488 36.1949 34.9795 36.1674 33.7993 36.0983C33.3451 36.0717 32.7857 36.039 32.0998 36.1362C32.0061 36.1799 31.9831 36.3251 31.9544 36.506C31.9139 36.7611 31.8622 37.0874 31.5853 37.3006C31.5507 37.3287 31.5212 37.3538 31.4945 37.3764C31.3521 37.4969 31.292 37.5479 30.9851 37.6304C30.2938 37.5649 30.2652 37.8289 30.2681 38.1598C30.2682 38.1759 30.2685 38.1921 30.2687 38.2085C30.2738 38.6031 30.2799 39.0722 29.2721 39.194C28.7918 39.1187 28.6377 39.455 28.4881 39.7816C28.3214 40.1456 28.1602 40.4975 27.5593 40.2541C27.2052 40.1106 26.6986 39.7609 25.9479 39.0846C25.5059 38.7269 24.8395 38.2499 23.8901 38.7727C23.6728 39.2406 22.0817 39.8995 21.5483 39.5369C21.4321 39.458 21.3652 39.3314 21.3745 39.143C21.4435 38.8764 21.6601 38.8071 21.8822 38.736C22.1911 38.6371 22.5104 38.5349 22.4567 37.8936C22.4622 37.414 21.2976 38.2897 21.0169 38.5405C20.6704 39.6608 20.0318 39.826 19.3227 39.2763C17.4963 37.9832 17.7394 37.7263 18.2826 37.1524C18.6388 36.7762 19.124 36.2636 19.2393 35.2332L19.2394 35.2313C19.25 34.9433 19.2517 34.8966 18.9765 34.8702C18.4426 34.9181 18.38 35.4414 18.3188 35.9524C18.2699 36.3614 18.2218 36.7626 17.9338 36.9061C17.4252 37.0544 15.774 36.4903 16.1303 35.673C16.239 35.6009 16.4247 35.623 16.5986 35.6437C16.9096 35.6806 17.1827 35.7131 16.9102 35.1951C16.0622 34.7713 16.2069 34.2006 17.1192 33.6657C17.2585 33.6314 17.4702 33.6484 17.7015 33.6671C18.2779 33.7137 18.977 33.7701 18.9866 33.0663C19.1165 32.5872 18.7524 32.7504 18.3328 32.9386C17.8095 33.1732 17.1999 33.4465 17.3535 32.5618C17.4564 32.0708 16.0415 33.1629 15.7041 33.4943C15.4727 33.7788 14.4818 34.1763 14.4865 33.7809C14.5963 33.6473 14.6892 33.5666 14.7644 33.5012C14.8943 33.3884 14.9713 33.3215 14.9909 33.107C14.9291 32.9049 14.667 32.8661 14.4332 32.8314C14.0983 32.7819 13.8216 32.7409 14.2752 32.2408C15.8117 31.8315 15.453 31.6437 14.9729 31.3925C14.6729 31.2354 14.3255 31.0536 14.3636 30.7774C14.6254 29.7597 15.1115 30.1564 15.6583 30.6025C15.9655 30.8532 16.2918 31.1194 16.6082 31.1593C16.9214 31.1403 17.007 30.8306 17.09 30.5305C17.2167 30.0722 17.3372 29.6363 18.2526 30.2923C18.7463 30.9368 18.7877 28.912 18.1752 29.1782C16.9383 29.2367 16.5037 29.2122 16.2761 28.4125C15.266 28.4279 14.8621 28.2703 15.9218 27.7618C15.958 27.7445 15.9957 27.7267 16.0353 27.7085C17.0562 25.0647 16.9675 25.0036 16.7028 24.8214C16.4955 24.6787 16.1803 24.4616 16.2057 22.8714C16.212 22.4787 16.0564 22.2722 15.8217 22.1613C15.8738 22.2708 15.9021 22.4107 15.8995 22.5899C15.8768 24.1585 16.1587 24.3727 16.3441 24.5135C16.5807 24.6932 16.6601 24.7535 15.7471 27.3615C15.7117 27.3795 15.678 27.3969 15.6457 27.4141C15.6053 27.4257 15.564 27.4356 15.521 27.4415C15.4453 27.4518 15.2079 27.4821 14.971 27.3475C14.8349 27.2702 14.7737 27.1806 14.704 27.0786C14.6615 27.0164 14.6158 26.9495 14.548 26.8781C14.3252 26.6432 14.0926 26.6003 13.9025 26.5653C13.7337 26.5342 13.5984 26.5093 13.5328 26.3617C13.5087 26.3074 13.4914 26.2306 13.7866 25.3289C13.8259 25.209 13.8573 25.1154 13.8826 25.0397C13.9565 24.8196 13.9796 24.7506 13.9981 24.6248C14.0542 24.2432 13.9839 23.9109 13.9135 23.6859C13.8573 23.017 13.8289 22.8878 13.8289 22.8878C13.7896 22.8105 13.7415 22.6944 13.7199 22.5465C13.6629 22.1551 13.8215 21.7439 14.0853 21.5064C13.9085 21.0541 13.6507 20.7377 12.9602 20.5489C12.1331 20.2507 12.0145 19.5889 11.8387 18.6085C11.7779 18.2695 11.7103 17.8923 11.6042 17.4789C11.1726 16.3078 12.8443 16.2855 14.0061 16.606C14.1245 16.6878 14.1554 17.0405 14.1872 17.4042C14.2518 18.1415 14.3203 18.924 15.1292 17.5882C14.9892 17.0703 15.0022 16.5394 15.0156 15.9911C15.0311 15.3573 15.0471 14.7001 14.8282 14.0129C15.0258 13.1518 14.9661 12.5469 14.9234 12.1151C14.8379 11.2497 14.8211 11.0799 17.0831 10.9384C17.4012 10.6001 17.4729 10.3889 17.5372 10.1991C17.6345 9.9121 17.7152 9.67424 18.6073 9.12035C18.7085 8.93445 18.763 8.74029 18.8202 8.53667C18.9154 8.19755 19.018 7.83218 19.356 7.43503C19.5586 7.13985 19.8474 6.85337 20.2902 6.58715C20.6154 6.47776 20.7965 6.34013 20.8974 6.17975C21.0522 5.93352 21.0479 5.68731 21.0431 5.41966C21.0389 5.17886 21.0343 4.92071 21.1451 4.62959C21.2908 4.24676 21.5622 4.0296 21.8314 3.8142L21.8315 3.81417C21.8954 3.76312 21.9618 3.71461 22.0303 3.66797C22.0707 3.8307 22.2537 4.09728 22.8172 4.68009C23.1983 5.07432 23.4094 5.2574 23.5634 5.39093C23.7267 5.53256 23.8258 5.61846 23.9952 5.84149C24.1566 6.05386 24.2633 6.23453 24.3495 6.38049C24.4964 6.6291 24.5837 6.777 24.7806 6.80932C25.0789 6.85825 25.4009 6.60459 25.566 6.35768C25.5384 6.30905 25.3406 5.94841 25.5005 5.61926C25.5198 5.57962 25.5857 5.44844 25.7332 5.36119C25.8395 5.29832 26.0219 5.23816 26.0823 5.30381C26.1098 5.33376 26.0978 5.37444 26.0813 5.43037C26.0648 5.4862 26.0438 5.55722 26.0532 5.64792C26.0645 5.75731 26.1215 5.9107 26.2204 5.97055C26.3359 6.04037 26.4702 5.95959 26.6496 5.85167C26.8121 5.75394 27.0116 5.63395 27.2676 5.58342C27.6004 5.51777 28.1217 5.55108 28.3802 5.84149C28.587 6.07386 28.5381 6.3726 28.4919 6.65407C28.4492 6.91483 28.4089 7.16079 28.5766 7.32546C28.7206 7.46694 28.9104 7.44251 29.2573 7.39783C29.5279 7.36298 29.8942 7.3158 30.4091 7.32546L30.4096 7.32547C31.0288 7.3371 31.3385 7.34293 31.5217 7.45452C32.0152 7.75504 32.093 8.45924 32.1611 9.07682C32.2194 9.60474 32.2707 10.0694 32.5688 10.1644C32.7305 10.2159 32.8596 10.1592 33.0077 10.0942C33.1396 10.0363 33.2865 9.97179 33.4851 9.97082C33.615 9.97017 33.6906 10.1998 33.7871 10.4931C33.9767 11.0691 34.2471 11.8905 35.1678 11.6959L34.8769 13.7462C34.8357 13.7776 34.7895 13.8104 34.7405 13.8452C34.4369 14.0606 34.0238 14.3538 34.0087 14.8744C33.9991 15.2041 33.8529 15.259 33.6967 15.3176C33.5636 15.3676 33.4231 15.4202 33.3542 15.6486C33.1455 16.3399 33.2724 17.0449 33.4851 17.3262C33.6833 17.5882 33.7319 17.5936 33.7556 17.6208C33.7687 17.6358 33.7742 17.6576 33.7933 17.7336C33.8025 17.7702 33.8164 17.8037 33.8306 17.8379C33.8914 17.9844 33.9577 18.1442 33.6815 18.6166C33.3647 19.158 33.4119 19.9852 33.8123 20.2941C33.9656 20.4124 34.103 20.4024 34.3196 20.3868C34.5179 20.3724 34.7826 20.3532 35.1867 20.4232C35.7225 20.5158 36.1271 20.7001 36.3648 20.8102C36.7466 20.9872 36.9124 21.1201 37.0416 21.2237C37.1669 21.3241 37.2577 21.3969 37.4773 21.4554C37.8326 21.55 38.0832 21.4897 38.3225 21.4321C38.5818 21.3696 38.8278 21.3104 39.179 21.4554C39.4301 21.5592 39.8599 21.819 39.8964 21.8411ZM14.0884 21.5144C14.1042 21.5702 14.12 21.6277 14.1361 21.6869C14.1411 21.6884 14.1462 21.6899 14.1514 21.6913C14.1311 21.6302 14.1104 21.5712 14.0884 21.5144ZM10.2632 20.1271C10.463 20.1462 10.5916 20.2234 10.7011 20.2892C10.8126 20.3561 10.9043 20.4111 11.0313 20.3811C11.4094 20.2916 11.5069 19.5881 11.5201 19.4926L11.5202 19.4922C11.5543 19.2449 11.5236 19.1004 11.4745 18.8691L11.4745 18.8691C11.4463 18.7364 11.4121 18.5751 11.3805 18.3494C11.3624 18.2194 11.3451 17.8606 11.3107 17.1431L11.3001 16.9198C11.2593 16.0535 11.2527 15.914 11.1012 15.7463C11.0026 15.6372 10.9207 15.6025 10.8071 15.5545C10.6838 15.5023 10.5231 15.4344 10.2632 15.2384C10.1002 15.1154 10.0109 15.0272 9.93861 14.9556C9.84798 14.866 9.78395 14.8027 9.6347 14.7304L9.63449 14.7303C9.5497 14.6893 9.13739 14.4898 8.65707 14.6034C8.09377 14.7367 7.83639 15.2063 7.7493 15.3652L7.74926 15.3653C7.47471 15.8663 7.57352 16.3461 7.60957 16.5082C7.64951 16.6879 7.78354 16.9185 8.03832 17.357L8.09845 17.4605C8.1302 17.5152 8.1594 17.5646 8.1869 17.611L8.18692 17.611L8.18692 17.6111C8.28352 17.7742 8.35906 17.9018 8.44979 18.1037C8.4754 18.1606 8.49919 18.2118 8.52083 18.2585C8.60758 18.4454 8.65989 18.5581 8.65707 18.6668C8.64609 19.0887 8.31051 19.3702 8.03316 19.6028C7.80569 19.7936 7.61739 19.9515 7.67945 20.1271C7.79092 20.4427 8.64284 20.6224 9.28557 20.4446C9.45941 20.3965 9.58776 20.3306 9.70384 20.2709L9.70386 20.2709C9.87986 20.1805 10.0277 20.1046 10.2632 20.1271ZM4.66555 19.7783C4.54281 19.9238 4.58901 20.074 4.60598 20.1291L4.60599 20.1291C4.62696 20.1972 4.67402 20.3498 4.88396 20.4409C4.92073 20.4569 5.18368 20.571 5.40017 20.4799C5.43183 20.4666 5.53335 20.4157 5.55901 20.1421C5.58641 19.8505 5.60847 19.6153 5.40017 19.5445C5.18785 19.4723 4.8172 19.5986 4.66555 19.7783ZM6.89925 21.5065C6.97316 21.871 7.1112 21.9952 7.22673 22.0396C7.27628 22.0587 7.32731 22.0652 7.37431 22.0713C7.44713 22.0806 7.51028 22.0887 7.54327 22.1402C7.58912 22.2117 7.54382 22.3155 7.49959 22.3716C7.4062 22.49 7.22044 22.5181 7.08483 22.4823C6.94293 22.4447 6.87393 22.3418 6.77925 22.2007L6.77918 22.2006C6.69544 22.0757 6.47403 21.7455 6.61546 21.5869C6.63577 21.5642 6.7049 21.4986 6.89925 21.5065ZM10.5343 22.8666C10.5208 22.8204 10.4928 22.8008 9.82124 22.5426C9.7184 22.503 9.66622 22.4837 9.62999 22.5066C9.46684 22.6095 9.54626 23.3875 9.89084 23.4787C10.1903 23.5581 10.6012 23.0954 10.5343 22.8666ZM12.7468 22.9052L12.7468 22.9052L12.7468 22.9052C12.8109 22.9796 12.8546 23.0303 12.8799 23.0167C13.0679 22.916 13.4528 23.1406 13.5197 23.4432C13.5311 23.4946 13.4496 23.5979 13.3621 23.7088C13.2977 23.7903 13.2301 23.876 13.1936 23.9483C13.0402 24.2528 12.6363 24.422 12.3594 24.538L12.3594 24.538L12.3594 24.538L12.3594 24.538C12.2463 24.5853 12.1544 24.6238 12.1094 24.659C11.7794 24.9175 11.627 25.124 11.5238 25.264C11.4179 25.4075 11.3637 25.481 11.2226 25.4684C11.1081 25.4581 11.0253 25.3776 10.9278 25.2828C10.823 25.1808 10.7011 25.0623 10.5043 24.9968C10.3391 24.9419 10.2315 24.9539 10.135 24.9648C10.034 24.9761 9.94522 24.9861 9.81546 24.9165C9.57602 24.788 9.49925 24.4031 9.57877 24.1158C9.66639 23.7994 9.95138 23.5734 10.2283 23.5102C10.3039 23.493 10.3893 23.4686 10.4834 23.4417C10.7669 23.3608 11.1288 23.2574 11.5346 23.2597C11.7627 23.261 11.8312 22.8776 11.8699 22.6612C11.8847 22.5787 11.8951 22.5204 11.9083 22.5171C12.3238 22.4141 12.5937 22.7274 12.7468 22.9052ZM11.1001 25.9006C11.1883 25.9018 11.2733 25.9031 11.3635 25.9532C11.3925 25.9693 11.5429 26.0567 11.5343 26.1879C11.5268 26.3006 11.4069 26.3717 11.3825 26.3856C11.2384 26.4672 11.0525 26.4621 10.965 26.4597C10.3864 26.4438 9.42797 25.9769 9.56106 25.6937C9.63912 25.5278 10.0959 25.4164 10.3579 25.4961C10.4657 25.5288 10.5151 25.586 10.571 25.6507C10.6282 25.7169 10.6921 25.791 10.8323 25.8543C10.9292 25.8981 11.0161 25.8994 11.1001 25.9006ZM7.4656 15.8473C7.68785 16.0634 7.49911 16.4381 7.18676 16.5273C7.02777 16.5727 6.89653 16.527 6.73318 16.4701C6.56689 16.4122 6.36733 16.3428 6.07134 16.346C5.78352 16.3491 5.57604 16.419 5.40607 16.4763C5.23204 16.535 5.09732 16.5805 4.95592 16.5273C4.73107 16.4427 4.50849 15.9178 4.60739 16.074L4.60741 16.0737C4.6082 16.062 4.63501 15.6615 4.88623 15.5754C5.01157 15.5324 5.14072 15.5856 5.30047 15.6514C5.48174 15.726 5.70241 15.8169 6.00165 15.802C6.14807 15.7947 6.23209 15.7661 6.31779 15.737C6.41321 15.7045 6.51071 15.6713 6.69878 15.666L6.69897 15.666C6.79847 15.6633 7.26291 15.6503 7.4656 15.8473ZM6.29902 18.958C6.3569 19.03 6.3686 19.0913 6.3799 19.1504C6.39355 19.2219 6.40661 19.2903 6.49986 19.3711C6.53436 19.401 6.65647 19.5037 6.85125 19.5213C7.11267 19.5449 7.30371 19.3969 7.35309 19.3586L7.35319 19.3586L7.35326 19.3585C7.39722 19.3244 7.60653 19.162 7.55403 19.0081C7.52051 18.9098 7.40315 18.8817 7.25985 18.8474C7.12495 18.815 6.96705 18.7772 6.83449 18.6701C6.68124 18.5464 6.66553 18.4139 6.64837 18.2692C6.62995 18.1138 6.60985 17.9443 6.4162 17.7563L6.41608 17.7562C6.3458 17.688 6.17632 17.5236 5.99784 17.5435C5.72518 17.574 5.62822 18.0126 5.61297 18.0816L5.61293 18.0818L5.61288 18.082C5.5755 18.2517 5.5311 18.4532 5.6799 18.62C5.76929 18.7203 5.87862 18.7521 5.98707 18.7837C6.09981 18.8166 6.21159 18.8492 6.29902 18.958Z" fill="#D8DADD"/>
<mask id="mask0_1585_3218" style="mask-type:luminance" maskUnits="userSpaceOnUse" x="4" y="3" width="37" height="38">
<path id="Mask_2" fill-rule="evenodd" clip-rule="evenodd" d="M21.647 24.9704C21.7668 25.0146 21.938 25.0876 22.1617 25.2241C22.3722 25.3526 22.4747 25.4429 22.5444 25.5044C22.616 25.5675 22.653 25.6001 22.737 25.6122C22.8822 25.633 22.9688 25.5638 23.1458 25.4223C23.253 25.3366 23.3933 25.2245 23.5999 25.0898C23.8187 24.9471 23.9639 24.8756 24.0738 24.8215C24.2213 24.7488 24.305 24.7076 24.4174 24.5675C24.5935 24.3479 24.6742 24.0924 24.7504 23.8511C24.8105 23.6608 24.8264 23.5503 24.8381 23.4695C24.8511 23.3791 24.8588 23.3257 24.9169 23.2392C25.0262 23.0766 25.1606 23.025 25.2955 22.9731C25.4229 22.9241 25.5508 22.8749 25.6587 22.7318C25.869 22.4528 25.8716 21.9909 25.689 21.8662C25.5201 21.7509 25.19 21.9219 24.7504 22.1498C24.616 22.2194 24.515 22.2798 24.434 22.3282C24.2648 22.4294 24.1835 22.478 24.0692 22.4482C23.8296 22.3859 23.7016 22.0465 23.6907 21.8065C23.6889 21.7655 23.6769 21.3952 23.9026 21.2543C23.9641 21.2159 24.0141 21.2128 24.0613 21.2098C24.1091 21.2068 24.1541 21.204 24.2054 21.1648C24.3698 21.0393 24.3934 20.6981 24.2508 20.4932C24.1835 20.3964 24.1085 20.3724 24.0296 20.3471C23.9593 20.3247 23.8859 20.3012 23.8118 20.2245C23.6915 20.1001 23.6899 19.9601 23.6861 19.6432C23.6847 19.5291 23.6831 19.3921 23.6756 19.2247C23.6519 18.6983 23.6374 18.4336 23.509 18.359C23.4097 18.3014 23.3112 18.3522 23.1858 18.4169C23.0438 18.4901 22.8673 18.5812 22.6159 18.553C22.4285 18.5321 22.1145 18.4354 21.8438 18.2247C21.8077 18.1966 21.7751 18.1686 21.7452 18.1429C21.6563 18.0666 21.5907 18.0102 21.5259 18.0307C21.4182 18.0647 21.4006 18.2831 21.3905 18.4086L21.3897 18.4187L21.3896 18.4197C21.3307 19.1433 21.2954 19.5771 21.1172 19.8515C21.0164 20.0066 20.9097 20.0406 20.7357 20.0959C20.5595 20.152 20.3142 20.2301 19.9364 20.4783C19.9025 20.5005 19.8691 20.5223 19.8364 20.5436C19.4491 20.7961 19.1498 20.9913 19.1189 21.2842C19.0925 21.5342 19.2703 21.7256 19.4135 21.8797C19.524 21.9987 19.6139 22.0954 19.573 22.1796C19.4654 22.4015 18.5679 22.2936 17.8472 21.911C17.6847 21.8247 17.562 21.684 17.4516 21.5574C17.3102 21.3952 17.189 21.2561 17.0298 21.2842C16.9644 21.2957 16.8789 21.3345 16.8178 21.4035C16.7323 21.5003 16.7294 21.6177 16.727 21.8364C16.726 21.9271 16.7255 21.9972 16.729 22.0547C16.7336 22.1288 16.745 22.1813 16.7724 22.2244C16.8035 22.2731 16.8401 22.3024 16.8793 22.3238C16.9072 22.339 16.9364 22.3501 16.9659 22.3614C17.0298 22.3858 17.0949 22.4108 17.1509 22.4781C17.2371 22.5819 17.2295 22.6999 17.219 22.8641C17.216 22.9106 17.2128 22.9608 17.2114 23.0154C17.2043 23.294 17.1944 23.6875 17.3628 23.9108C17.5181 24.1166 17.7916 24.1338 18.0531 24.1501C18.3096 24.1662 18.5545 24.1815 18.6648 24.3735C18.71 24.4523 18.7058 24.5143 18.7004 24.595C18.6946 24.6828 18.6872 24.7928 18.7405 24.9704C18.7681 25.063 18.8545 25.351 19.0735 25.5375C19.5096 25.9092 20.3874 25.8066 20.7236 25.3883C20.7958 25.2984 20.8324 25.2072 20.8652 25.1254C20.9117 25.0097 20.9505 24.9129 21.0717 24.866C21.2141 24.8108 21.363 24.8657 21.6464 24.9702L21.647 24.9704ZM39.8964 21.8411L39.8989 21.8426C40.4493 21.9127 40.5286 22.8208 39.8334 23.133C39.7264 23.181 39.6321 23.2194 39.5472 23.2539C39.3086 23.3508 39.1445 23.4175 38.9826 23.5847C38.8046 23.7684 38.8776 23.9012 39 24.1241C39.1444 24.387 39.3576 24.7752 39.3099 25.5203C39.275 26.0642 38.7209 26.8107 38.7209 26.8107C38.7768 27.0908 38.729 27.2112 38.6769 27.3424C38.6344 27.4496 38.589 27.564 38.5947 27.7784C38.5949 27.7858 38.5967 27.793 38.598 27.8003C38.6072 27.8556 38.6447 27.9108 38.69 27.9773C38.8035 28.1444 38.9658 28.3831 38.8517 28.8753C38.7805 29.1826 38.7491 29.3378 38.7233 29.4654C38.7028 29.5665 38.6859 29.6503 38.6554 29.7786C38.498 30.4416 38.3325 30.8108 38.2069 31.0911C38.0679 31.401 37.9777 31.6024 38.001 31.9723C38.0071 32.0705 38.0273 32.3301 38.1446 32.6212C38.0862 32.9108 37.956 33.4071 37.569 33.5836C37.2246 33.7406 36.8108 33.5966 36.4444 33.4691C36.1206 33.3565 35.8339 33.2567 35.6649 33.3891C35.5899 33.4478 35.5565 33.57 35.5797 33.7897C35.4488 36.1949 34.9795 36.1674 33.7993 36.0983C33.3451 36.0717 32.7857 36.039 32.0998 36.1362C32.0061 36.1799 31.9831 36.3251 31.9544 36.506C31.9139 36.7611 31.8622 37.0874 31.5853 37.3006C31.5507 37.3287 31.5212 37.3538 31.4945 37.3764C31.3521 37.4969 31.292 37.5479 30.9851 37.6304C30.2938 37.5649 30.2652 37.8289 30.2681 38.1598C30.2682 38.1759 30.2685 38.1921 30.2687 38.2085C30.2738 38.6031 30.2799 39.0722 29.2721 39.194C28.7918 39.1187 28.6377 39.455 28.4881 39.7816C28.3214 40.1456 28.1602 40.4975 27.5593 40.2541C27.2052 40.1106 26.6986 39.7609 25.9479 39.0846C25.5059 38.7269 24.8395 38.2499 23.8901 38.7727C23.6728 39.2406 22.0817 39.8995 21.5483 39.5369C21.4321 39.458 21.3652 39.3314 21.3745 39.143C21.4435 38.8764 21.6601 38.8071 21.8822 38.736C22.1911 38.6371 22.5104 38.5349 22.4567 37.8936C22.4622 37.414 21.2976 38.2897 21.0169 38.5405C20.6704 39.6608 20.0318 39.826 19.3227 39.2763C17.4963 37.9832 17.7394 37.7263 18.2826 37.1524C18.6388 36.7762 19.124 36.2636 19.2393 35.2332L19.2394 35.2313C19.25 34.9433 19.2517 34.8966 18.9765 34.8702C18.4426 34.9181 18.38 35.4414 18.3188 35.9524C18.2699 36.3614 18.2218 36.7626 17.9338 36.9061C17.4252 37.0544 15.774 36.4903 16.1303 35.673C16.239 35.6009 16.4247 35.623 16.5986 35.6437C16.9096 35.6806 17.1827 35.7131 16.9102 35.1951C16.0622 34.7713 16.2069 34.2006 17.1192 33.6657C17.2585 33.6314 17.4702 33.6484 17.7015 33.6671C18.2779 33.7137 18.977 33.7701 18.9866 33.0663C19.1165 32.5872 18.7524 32.7504 18.3328 32.9386C17.8095 33.1732 17.1999 33.4465 17.3535 32.5618C17.4564 32.0708 16.0415 33.1629 15.7041 33.4943C15.4727 33.7788 14.4818 34.1763 14.4865 33.7809C14.5963 33.6473 14.6892 33.5666 14.7644 33.5012C14.8943 33.3884 14.9713 33.3215 14.9909 33.107C14.9291 32.9049 14.667 32.8661 14.4332 32.8314C14.0983 32.7819 13.8216 32.7409 14.2752 32.2408C15.8117 31.8315 15.453 31.6437 14.9729 31.3925C14.6729 31.2354 14.3255 31.0536 14.3636 30.7774C14.6254 29.7597 15.1115 30.1564 15.6583 30.6025C15.9655 30.8532 16.2918 31.1194 16.6082 31.1593C16.9214 31.1403 17.007 30.8306 17.09 30.5305C17.2167 30.0722 17.3372 29.6363 18.2526 30.2923C18.7463 30.9368 18.7877 28.912 18.1752 29.1782C16.9383 29.2367 16.5037 29.2122 16.2761 28.4125C15.266 28.4279 14.8621 28.2703 15.9218 27.7618C15.958 27.7445 15.9957 27.7267 16.0353 27.7085C17.0562 25.0647 16.9675 25.0036 16.7028 24.8214C16.4955 24.6787 16.1803 24.4616 16.2057 22.8714C16.212 22.4787 16.0564 22.2722 15.8217 22.1613C15.8738 22.2708 15.9021 22.4107 15.8995 22.5899C15.8768 24.1585 16.1587 24.3727 16.3441 24.5135C16.5807 24.6932 16.6601 24.7535 15.7471 27.3615C15.7117 27.3795 15.678 27.3969 15.6457 27.4141C15.6053 27.4257 15.564 27.4356 15.521 27.4415C15.4453 27.4518 15.2079 27.4821 14.971 27.3475C14.8349 27.2702 14.7737 27.1806 14.704 27.0786C14.6615 27.0164 14.6158 26.9495 14.548 26.8781C14.3252 26.6432 14.0926 26.6003 13.9025 26.5653C13.7337 26.5342 13.5984 26.5093 13.5328 26.3617C13.5087 26.3074 13.4914 26.2306 13.7866 25.3289C13.8259 25.209 13.8573 25.1154 13.8826 25.0397C13.9565 24.8196 13.9796 24.7506 13.9981 24.6248C14.0542 24.2432 13.9839 23.9109 13.9135 23.6859C13.8573 23.017 13.8289 22.8878 13.8289 22.8878C13.7896 22.8105 13.7415 22.6944 13.7199 22.5465C13.6629 22.1551 13.8215 21.7439 14.0853 21.5064C13.9085 21.0541 13.6507 20.7377 12.9602 20.5489C12.1331 20.2507 12.0145 19.5889 11.8387 18.6085C11.7779 18.2695 11.7103 17.8923 11.6042 17.4789C11.1726 16.3078 12.8443 16.2855 14.0061 16.606C14.1245 16.6878 14.1554 17.0405 14.1872 17.4042C14.2518 18.1415 14.3203 18.924 15.1292 17.5882C14.9892 17.0703 15.0022 16.5394 15.0156 15.9911C15.0311 15.3573 15.0471 14.7001 14.8282 14.0129C15.0258 13.1518 14.9661 12.5469 14.9234 12.1151C14.8379 11.2497 14.8211 11.0799 17.0831 10.9384C17.4012 10.6001 17.4729 10.3889 17.5372 10.1991C17.6345 9.9121 17.7152 9.67424 18.6073 9.12035C18.7085 8.93445 18.763 8.74029 18.8202 8.53667C18.9154 8.19755 19.018 7.83218 19.356 7.43503C19.5586 7.13985 19.8474 6.85337 20.2902 6.58715C20.6154 6.47776 20.7965 6.34013 20.8974 6.17975C21.0522 5.93352 21.0479 5.68731 21.0431 5.41966C21.0389 5.17886 21.0343 4.92071 21.1451 4.62959C21.2908 4.24676 21.5622 4.0296 21.8314 3.8142L21.8315 3.81417C21.8954 3.76312 21.9618 3.71461 22.0303 3.66797C22.0707 3.8307 22.2537 4.09728 22.8172 4.68009C23.1983 5.07432 23.4094 5.2574 23.5634 5.39093C23.7267 5.53256 23.8258 5.61846 23.9952 5.84149C24.1566 6.05386 24.2633 6.23453 24.3495 6.38049C24.4964 6.6291 24.5837 6.777 24.7806 6.80932C25.0789 6.85825 25.4009 6.60459 25.566 6.35768C25.5384 6.30905 25.3406 5.94841 25.5005 5.61926C25.5198 5.57962 25.5857 5.44844 25.7332 5.36119C25.8395 5.29832 26.0219 5.23816 26.0823 5.30381C26.1098 5.33376 26.0978 5.37444 26.0813 5.43037C26.0648 5.4862 26.0438 5.55722 26.0532 5.64792C26.0645 5.75731 26.1215 5.9107 26.2204 5.97055C26.3359 6.04037 26.4702 5.95959 26.6496 5.85167C26.8121 5.75394 27.0116 5.63395 27.2676 5.58342C27.6004 5.51777 28.1217 5.55108 28.3802 5.84149C28.587 6.07386 28.5381 6.3726 28.4919 6.65407C28.4492 6.91483 28.4089 7.16079 28.5766 7.32546C28.7206 7.46694 28.9104 7.44251 29.2573 7.39783C29.5279 7.36298 29.8942 7.3158 30.4091 7.32546L30.4096 7.32547C31.0288 7.3371 31.3385 7.34293 31.5217 7.45452C32.0152 7.75504 32.093 8.45924 32.1611 9.07682C32.2194 9.60474 32.2707 10.0694 32.5688 10.1644C32.7305 10.2159 32.8596 10.1592 33.0077 10.0942C33.1396 10.0363 33.2865 9.97179 33.4851 9.97082C33.615 9.97017 33.6906 10.1998 33.7871 10.4931C33.9767 11.0691 34.2471 11.8905 35.1678 11.6959L34.8769 13.7462C34.8357 13.7776 34.7895 13.8104 34.7405 13.8452C34.4369 14.0606 34.0238 14.3538 34.0087 14.8744C33.9991 15.2041 33.8529 15.259 33.6967 15.3176C33.5636 15.3676 33.4231 15.4202 33.3542 15.6486C33.1455 16.3399 33.2724 17.0449 33.4851 17.3262C33.6833 17.5882 33.7319 17.5936 33.7556 17.6208C33.7687 17.6358 33.7742 17.6576 33.7933 17.7336C33.8025 17.7702 33.8164 17.8037 33.8306 17.8379C33.8914 17.9844 33.9577 18.1442 33.6815 18.6166C33.3647 19.158 33.4119 19.9852 33.8123 20.2941C33.9656 20.4124 34.103 20.4024 34.3196 20.3868C34.5179 20.3724 34.7826 20.3532 35.1867 20.4232C35.7225 20.5158 36.1271 20.7001 36.3648 20.8102C36.7466 20.9872 36.9124 21.1201 37.0416 21.2237C37.1669 21.3241 37.2577 21.3969 37.4773 21.4554C37.8326 21.55 38.0832 21.4897 38.3225 21.4321C38.5818 21.3696 38.8278 21.3104 39.179 21.4554C39.4301 21.5592 39.8599 21.819 39.8964 21.8411ZM14.0884 21.5144C14.1042 21.5702 14.12 21.6277 14.1361 21.6869C14.1411 21.6884 14.1462 21.6899 14.1514 21.6913C14.1311 21.6302 14.1104 21.5712 14.0884 21.5144ZM10.2632 20.1271C10.463 20.1462 10.5916 20.2234 10.7011 20.2892C10.8126 20.3561 10.9043 20.4111 11.0313 20.3811C11.4094 20.2916 11.5069 19.5881 11.5201 19.4926L11.5202 19.4922C11.5543 19.2449 11.5236 19.1004 11.4745 18.8691L11.4745 18.8691C11.4463 18.7364 11.4121 18.5751 11.3805 18.3494C11.3624 18.2194 11.3451 17.8606 11.3107 17.1431L11.3001 16.9198C11.2593 16.0535 11.2527 15.914 11.1012 15.7463C11.0026 15.6372 10.9207 15.6025 10.8071 15.5545C10.6838 15.5023 10.5231 15.4344 10.2632 15.2384C10.1002 15.1154 10.0109 15.0272 9.93861 14.9556C9.84798 14.866 9.78395 14.8027 9.6347 14.7304L9.63449 14.7303C9.5497 14.6893 9.13739 14.4898 8.65707 14.6034C8.09377 14.7367 7.83639 15.2063 7.7493 15.3652L7.74926 15.3653C7.47471 15.8663 7.57352 16.3461 7.60957 16.5082C7.64951 16.6879 7.78354 16.9185 8.03832 17.357L8.09845 17.4605C8.1302 17.5152 8.1594 17.5646 8.1869 17.611L8.18692 17.611L8.18692 17.6111C8.28352 17.7742 8.35906 17.9018 8.44979 18.1037C8.4754 18.1606 8.49919 18.2118 8.52083 18.2585C8.60758 18.4454 8.65989 18.5581 8.65707 18.6668C8.64609 19.0887 8.31051 19.3702 8.03316 19.6028C7.80569 19.7936 7.61739 19.9515 7.67945 20.1271C7.79092 20.4427 8.64284 20.6224 9.28557 20.4446C9.45941 20.3965 9.58776 20.3306 9.70384 20.2709L9.70386 20.2709C9.87986 20.1805 10.0277 20.1046 10.2632 20.1271ZM4.66555 19.7783C4.54281 19.9238 4.58901 20.074 4.60598 20.1291L4.60599 20.1291C4.62696 20.1972 4.67402 20.3498 4.88396 20.4409C4.92073 20.4569 5.18368 20.571 5.40017 20.4799C5.43183 20.4666 5.53335 20.4157 5.55901 20.1421C5.58641 19.8505 5.60847 19.6153 5.40017 19.5445C5.18785 19.4723 4.8172 19.5986 4.66555 19.7783ZM6.89925 21.5065C6.97316 21.871 7.1112 21.9952 7.22673 22.0396C7.27628 22.0587 7.32731 22.0652 7.37431 22.0713C7.44713 22.0806 7.51028 22.0887 7.54327 22.1402C7.58912 22.2117 7.54382 22.3155 7.49959 22.3716C7.4062 22.49 7.22044 22.5181 7.08483 22.4823C6.94293 22.4447 6.87393 22.3418 6.77925 22.2007L6.77918 22.2006C6.69544 22.0757 6.47403 21.7455 6.61546 21.5869C6.63577 21.5642 6.7049 21.4986 6.89925 21.5065ZM10.5343 22.8666C10.5208 22.8204 10.4928 22.8008 9.82124 22.5426C9.7184 22.503 9.66622 22.4837 9.62999 22.5066C9.46684 22.6095 9.54626 23.3875 9.89084 23.4787C10.1903 23.5581 10.6012 23.0954 10.5343 22.8666ZM12.7468 22.9052L12.7468 22.9052L12.7468 22.9052C12.8109 22.9796 12.8546 23.0303 12.8799 23.0167C13.0679 22.916 13.4528 23.1406 13.5197 23.4432C13.5311 23.4946 13.4496 23.5979 13.3621 23.7088C13.2977 23.7903 13.2301 23.876 13.1936 23.9483C13.0402 24.2528 12.6363 24.422 12.3594 24.538L12.3594 24.538L12.3594 24.538L12.3594 24.538C12.2463 24.5853 12.1544 24.6238 12.1094 24.659C11.7794 24.9175 11.627 25.124 11.5238 25.264C11.4179 25.4075 11.3637 25.481 11.2226 25.4684C11.1081 25.4581 11.0253 25.3776 10.9278 25.2828C10.823 25.1808 10.7011 25.0623 10.5043 24.9968C10.3391 24.9419 10.2315 24.9539 10.135 24.9648C10.034 24.9761 9.94522 24.9861 9.81546 24.9165C9.57602 24.788 9.49925 24.4031 9.57877 24.1158C9.66639 23.7994 9.95138 23.5734 10.2283 23.5102C10.3039 23.493 10.3893 23.4686 10.4834 23.4417C10.7669 23.3608 11.1288 23.2574 11.5346 23.2597C11.7627 23.261 11.8312 22.8776 11.8699 22.6612C11.8847 22.5787 11.8951 22.5204 11.9083 22.5171C12.3238 22.4141 12.5937 22.7274 12.7468 22.9052ZM11.1001 25.9006C11.1883 25.9018 11.2733 25.9031 11.3635 25.9532C11.3925 25.9693 11.5429 26.0567 11.5343 26.1879C11.5268 26.3006 11.4069 26.3717 11.3825 26.3856C11.2384 26.4672 11.0525 26.4621 10.965 26.4597C10.3864 26.4438 9.42797 25.9769 9.56106 25.6937C9.63912 25.5278 10.0959 25.4164 10.3579 25.4961C10.4657 25.5288 10.5151 25.586 10.571 25.6507C10.6282 25.7169 10.6921 25.791 10.8323 25.8543C10.9292 25.8981 11.0161 25.8994 11.1001 25.9006ZM7.4656 15.8473C7.68785 16.0634 7.49911 16.4381 7.18676 16.5273C7.02777 16.5727 6.89653 16.527 6.73318 16.4701C6.56689 16.4122 6.36733 16.3428 6.07134 16.346C5.78352 16.3491 5.57604 16.419 5.40607 16.4763C5.23204 16.535 5.09732 16.5805 4.95592 16.5273C4.73107 16.4427 4.50849 15.9178 4.60739 16.074L4.60741 16.0737C4.6082 16.062 4.63501 15.6615 4.88623 15.5754C5.01157 15.5324 5.14072 15.5856 5.30047 15.6514C5.48174 15.726 5.70241 15.8169 6.00165 15.802C6.14807 15.7947 6.23209 15.7661 6.31779 15.737C6.41321 15.7045 6.51071 15.6713 6.69878 15.666L6.69897 15.666C6.79847 15.6633 7.26291 15.6503 7.4656 15.8473ZM6.29902 18.958C6.3569 19.03 6.3686 19.0913 6.3799 19.1504C6.39355 19.2219 6.40661 19.2903 6.49986 19.3711C6.53436 19.401 6.65647 19.5037 6.85125 19.5213C7.11267 19.5449 7.30371 19.3969 7.35309 19.3586L7.35319 19.3586L7.35326 19.3585C7.39722 19.3244 7.60653 19.162 7.55403 19.0081C7.52051 18.9098 7.40315 18.8817 7.25985 18.8474C7.12495 18.815 6.96705 18.7772 6.83449 18.6701C6.68124 18.5464 6.66553 18.4139 6.64837 18.2692C6.62995 18.1138 6.60985 17.9443 6.4162 17.7563L6.41608 17.7562C6.3458 17.688 6.17632 17.5236 5.99784 17.5435C5.72518 17.574 5.62822 18.0126 5.61297 18.0816L5.61293 18.0818L5.61288 18.082C5.5755 18.2517 5.5311 18.4532 5.6799 18.62C5.76929 18.7203 5.87862 18.7521 5.98707 18.7837C6.09981 18.8166 6.21159 18.8492 6.29902 18.958Z" fill="white"/>
</mask>
<g mask="url(#mask0_1585_3218)">
</g>
</g>
</svg>
