<svg width="44" height="44" viewBox="0 0 44 44" fill="none" xmlns="http://www.w3.org/2000/svg">
<g id="icon_orange_5">
<g id="Group 3">
<mask id="mask0_1585_3359" style="mask-type:luminance" maskUnits="userSpaceOnUse" x="5" y="4" width="35" height="34">
<path id="Clip 2" fill-rule="evenodd" clip-rule="evenodd" d="M5.5 4.58203H39.4167V37.582H5.5V4.58203Z" fill="white"/>
</mask>
<g mask="url(#mask0_1585_3359)">
<path id="Fill 1" fill-rule="evenodd" clip-rule="evenodd" d="M6.81477 19.3203C6.5227 19.3203 6.30673 19.3342 6.09431 19.3129C6.01789 19.3052 5.90929 19.2271 5.88479 19.1566C5.74865 18.7651 5.63391 18.3661 5.5 17.9313C5.85924 17.7775 6.23299 17.6712 6.54726 17.4703C7.02236 17.1667 7.45888 16.8007 7.90309 16.45C7.94936 16.4135 7.95382 16.2998 7.94886 16.2238C7.90296 15.527 7.82264 14.831 7.81098 14.1336C7.80416 13.7267 7.53994 13.5872 7.23181 13.4002C7.71646 12.935 8.17605 12.4764 8.66033 12.0462C8.7404 11.975 8.93255 12.0038 9.06596 12.0272C9.71689 12.141 9.71522 12.1453 10.0465 11.579C10.1932 11.3283 10.3439 11.0801 10.5057 10.8092C11.0843 11.0624 11.6566 11.3128 12.2466 11.5709C12.4127 11.3394 12.5687 11.1219 12.7373 10.8868C12.4774 10.5552 12.2146 10.235 11.9717 9.9C11.9084 9.81257 11.8699 9.67426 11.8839 9.56781C11.9419 9.12409 11.9586 8.65827 12.1142 8.24828C12.3144 7.72088 12.5336 7.12677 12.9294 6.77017C13.3065 6.43033 13.9181 6.34954 14.4331 6.17449C14.6061 6.11566 14.7985 6.10421 14.9833 6.0935C15.5039 6.06353 15.9184 5.85675 16.2548 5.44169C16.6175 4.99421 17.0349 4.60306 17.7007 4.58203C17.7155 4.59981 17.7763 4.64699 17.8024 4.70908C17.9809 5.13396 18.2754 5.30676 18.7493 5.33961C19.1242 5.36552 19.3612 5.22871 19.5891 5.00135C19.7652 4.82567 19.9573 4.75026 20.2013 4.78249C20.3132 4.79726 20.4301 4.80039 20.5418 4.78587C21.6044 4.64781 22.3102 5.26802 23.0285 5.91877C23.3067 6.1708 23.6955 6.30667 24.0478 6.46363C24.2227 6.54161 24.4293 6.54693 24.6212 6.58661C25.0685 6.67904 25.2637 6.99077 25.1605 7.4442C25.0335 8.00201 24.9022 8.55895 24.7854 9.11902C24.7589 9.24606 24.7715 9.38588 24.788 9.51699C24.8601 10.0896 25.1631 10.4019 25.7475 10.5181C26.2354 10.6151 26.6962 10.8463 27.1753 10.9978C27.265 11.0261 27.4123 10.991 27.4854 10.9285C27.7925 10.6657 28.0911 10.3909 28.3731 10.1011C28.52 9.9502 28.6643 9.89012 28.8659 9.94525C29.1729 10.0292 29.4362 9.95977 29.7056 9.77071C30.239 9.39658 30.7959 9.05593 31.3516 8.71547C31.4664 8.64519 31.6163 8.61327 31.7529 8.60307C32.3612 8.55788 32.9261 8.71804 33.4996 8.92356C35.1316 9.50848 36.7798 10.0472 38.4218 10.6036C38.5186 10.6364 38.6169 10.6652 38.7378 10.703C38.7203 10.7873 38.7018 10.8633 38.6891 10.9403C38.6039 11.4517 38.4966 11.9607 38.4424 12.4754C38.3896 12.9779 38.5273 13.4328 38.8516 13.8431C39.4049 14.5429 39.5587 15.3441 39.2828 16.1987C39.0077 17.051 38.8644 17.908 38.9383 18.8103C38.9901 19.4422 38.7279 20.0111 38.426 20.554C38.0428 21.243 37.6019 21.906 37.4467 22.7003C37.3868 23.0067 37.362 23.3218 37.2807 23.6217C37.1645 24.0509 37.0124 24.4702 36.8715 24.8923C36.8601 24.9267 36.8221 24.9672 36.7886 24.9766C36.3556 25.0977 35.9235 25.2241 35.4858 25.3262C35.3019 25.3691 35.1811 25.2577 35.0525 25.1059C34.6373 24.6154 34.5835 24.0369 34.5659 23.4353C34.5537 23.0198 34.559 22.5963 34.4764 22.1929C34.4185 21.9102 34.2853 21.5896 34.0811 21.4019C33.6504 21.0061 33.1673 20.6609 32.6739 20.3454C32.3762 20.155 32.0832 20.3605 32.0093 20.7093C31.945 21.0131 31.8427 21.3092 31.7469 21.6054C31.6756 21.8259 31.7507 21.9604 31.9503 22.0566C32.201 22.1774 32.4413 22.3208 32.6937 22.4378C32.9179 22.5418 33.0653 22.7074 33.109 22.9444C33.2464 23.6906 33.416 24.4349 33.4884 25.1882C33.569 26.0253 33.0927 26.5188 32.2591 26.5788C31.9809 26.5989 31.7023 26.6282 31.424 26.6273C31.1935 26.6265 31.1224 26.7589 31.0883 26.9488C31.0154 27.3554 31.1556 27.7085 31.3628 28.0424C31.4668 28.21 31.5789 28.3726 31.6913 28.5347C32.4306 29.6001 32.3948 30.6707 31.7124 31.7447C31.5843 31.9462 31.4442 32.14 31.3158 32.3413C31.0664 32.7325 31.0799 33.0368 31.3803 33.3954C31.5399 33.586 31.7259 33.7541 31.8982 33.9341C32.3762 34.4338 32.2248 35.2006 31.5825 35.4694C31.3658 35.5602 31.1295 35.6126 30.8972 35.6543C30.3568 35.7513 29.9402 36.0209 29.6522 36.4948C29.4371 36.849 29.2154 37.1992 28.9775 37.582C28.454 37.2003 27.9581 36.7897 27.4151 36.4575C26.9297 36.1607 26.7216 35.7726 26.7159 35.215C26.7125 34.8738 26.6759 34.5202 26.5766 34.1963C26.4848 33.8964 26.2699 33.6374 26.1447 33.3449C25.9194 32.8186 25.562 32.6697 24.9879 32.6907C24.1863 32.7199 23.4076 32.8453 22.6296 33.0024C22.3323 33.0624 22.0676 33.0593 21.803 32.8995C21.601 32.7776 21.385 32.6794 21.1602 32.563C21.4465 31.8989 21.7194 31.2483 22.0088 30.6052C22.0896 30.4259 22.0769 30.3 21.9341 30.1664C21.8059 30.0464 21.7062 29.8952 21.5772 29.7761C21.3561 29.5721 21.2531 29.3259 21.2653 29.0274C21.2824 28.6073 20.94 28.4271 20.7001 28.1833C20.6706 28.1533 20.5388 28.1871 20.4819 28.2292C19.9289 28.6381 19.3892 28.5525 18.752 28.3666C17.8859 28.1138 17.2817 27.5314 16.5857 27.0393C15.7298 26.4342 15.3173 25.5349 14.9062 24.6532C14.5004 23.7825 13.9401 23.2129 13.0059 22.9807C12.2326 22.7885 11.5698 22.3613 10.9981 21.8009C10.8739 21.6791 10.7785 21.6817 10.6207 21.7517C10.4736 21.8169 10.2726 21.8486 10.1228 21.803C9.09604 21.4904 8.07762 21.1497 7.05343 20.8283C6.87908 20.7736 6.80342 20.6971 6.81055 20.5048C6.82475 20.1226 6.81477 19.7395 6.81477 19.3203" fill="#D8DADD"/>
</g>
</g>
</g>
</svg>
