<svg width="44" height="44" viewBox="0 0 44 44" fill="none" xmlns="http://www.w3.org/2000/svg">
<g id="icon_orange_5">
<g id="Group 3">
<mask id="mask0_1585_3304" style="mask-type:luminance" maskUnits="userSpaceOnUse" x="7" y="3" width="30" height="38">
<path id="Clip 2" fill-rule="evenodd" clip-rule="evenodd" d="M7.33325 3.66797H36.6666V40.3346H7.33325V3.66797Z" fill="white"/>
</mask>
<g mask="url(#mask0_1585_3304)">
<path id="Fill 1" fill-rule="evenodd" clip-rule="evenodd" d="M14.4791 10.4573C14.542 10.6504 15.4951 10.7762 15.673 10.8601C16.3704 11.1887 15.961 12.4214 15.6699 12.9039C15.4124 13.3304 15.2055 13.7768 15.5741 14.2283C15.7966 14.501 16.1732 14.6308 16.5185 14.5696C16.6962 14.5381 16.8762 14.4604 17.0508 14.5066C17.2613 14.5622 17.3843 14.7737 17.507 14.9546C17.8554 15.4679 18.3476 15.2577 18.3002 14.6545C18.2849 14.4593 18.2326 14.2656 18.2504 14.0706C18.3011 13.5202 18.854 13.1897 19.2561 12.8133C20.3237 11.814 20.4637 10.1308 20.1015 8.7097C19.992 8.28018 19.843 7.85435 19.8306 7.41113C19.8282 7.32525 19.8326 7.23397 19.8803 7.16271C19.9624 7.04008 20.1463 7.02678 20.2773 7.09356C20.4084 7.16034 20.4988 7.28507 20.5841 7.40533C20.8382 7.76346 21.091 8.26016 21.4219 8.53228C21.6477 8.05376 22.4274 7.42785 22.9353 7.27454C23.5959 7.06551 24.0439 7.07262 24.6382 6.66101C24.718 6.60556 24.8111 6.57263 24.8951 6.52363C25.0845 6.41338 25.2182 6.22951 25.3461 6.0509C25.6377 5.64351 25.9303 5.2348 26.1683 4.79355C26.3892 4.38418 26.7808 4.21625 27.237 4.21493C27.5918 4.21387 27.9431 4.29488 28.2979 4.29356C29.431 4.28948 30.5312 3.40567 31.672 3.74589C31.9851 3.83915 32.2642 4.02829 32.5793 4.11509C32.8366 4.18608 33.1107 4.18648 33.3633 4.27288C33.7847 4.41685 34.5316 5.06805 34.5687 5.55223C34.5956 5.90299 34.3196 6.09687 34.5546 6.46884C34.6833 6.6726 34.8799 6.82117 35.0546 6.98648C35.2295 7.15191 35.3926 7.35343 35.4186 7.59342C35.4731 8.09644 34.9699 8.47473 35.0308 8.98446C35.0644 9.26594 35.2732 9.5025 35.3078 9.78384C35.3643 10.2452 34.9419 10.6622 34.991 11.1246C35.0733 11.9014 36.1702 12.0707 36.3973 12.8041C36.4998 13.1351 36.4149 13.494 36.4533 13.8384C36.4947 14.2079 36.678 14.5579 36.666 14.9294C36.6569 15.2097 36.5545 15.4763 36.5557 15.7586C36.557 16.0871 36.6766 16.3776 36.5765 16.7097C36.5019 16.957 36.335 17.1644 36.1626 17.356C35.9279 17.6171 35.6698 17.8664 35.3544 18.0184C35.1718 18.1063 34.9636 18.1597 34.7656 18.1139C34.6224 18.0804 34.4749 17.9677 34.3606 17.8819C33.9479 18.2943 34.387 18.986 34.0942 19.4604C33.9063 19.7649 33.4862 19.8499 33.2789 20.1417C32.8765 20.7076 33.3633 21.6091 33.6483 22.1155C33.2112 22.6092 32.665 23.0028 32.0632 23.267C31.7614 23.3994 31.4216 23.519 31.2533 23.8036C31.0635 24.1242 31.1644 24.5394 31.3307 24.873C31.9485 26.1135 32.2643 27.3714 31.8197 28.7462C31.6809 29.1755 31.4415 29.6774 31.0294 29.9052C30.5822 30.1521 30.0278 29.9767 29.5705 30.1944C29.2645 30.34 29.0631 30.6367 28.8131 30.8663C28.3395 31.3012 27.4943 31.5747 26.8596 31.3801C26.6667 31.3211 26.4894 31.1659 26.4639 30.9647C26.4283 30.6848 26.6841 30.4037 26.5796 30.142C26.5071 29.9602 26.283 29.8675 26.2303 29.6791C26.1394 29.3554 26.5215 29.1844 26.5284 28.8942C26.5401 28.4106 25.9987 28.3554 25.6168 28.4502C25.1925 28.5555 24.8652 28.8455 24.4773 29.0278C24.5303 29.0029 23.981 28.5032 23.7808 28.5348C23.8252 28.5278 22.6523 28.9226 22.8091 28.698C22.4718 29.1814 22.0545 29.6085 21.5805 29.9572C21.4359 30.0636 20.0658 30.8426 20.0594 30.8208C20.2182 31.3601 20.3187 31.9166 20.3589 32.4776C20.3785 32.7527 20.3824 33.0366 20.2882 33.2955C20.0998 33.8134 19.4136 34.0024 18.9658 34.2283C18.8706 34.2763 18.7675 34.3329 18.7303 34.4333C18.7125 34.4815 18.7125 34.5343 18.7128 34.5857C18.7147 35.0918 18.5875 35.7482 18.859 36.1989C19.0745 36.5576 19.0726 36.9391 18.737 37.2248C18.5659 37.3705 18.3545 37.4577 18.147 37.5427C17.7534 37.7039 17.2783 37.8579 16.9293 37.6139C16.8564 37.5631 16.7925 37.496 16.7093 37.4651C16.4942 37.3847 16.279 37.5719 16.0557 37.625C15.6756 37.7152 15.3019 37.4574 14.9146 37.4985C14.5719 37.5349 14.2545 37.7238 13.9779 37.917C13.3551 38.3518 12.8731 39.0042 12.1852 39.3439C11.362 39.7506 10.4799 40.0198 9.60477 40.2873C9.49351 40.3213 9.40358 40.3512 9.29154 40.3241C9.3596 40.0213 9.80595 40.0301 10.0293 39.8433C10.2507 39.658 10.3276 39.3556 10.4651 39.1011C10.6117 38.8299 10.8328 38.6072 10.9973 38.3465C11.2551 37.9381 11.2983 37.3014 10.8696 36.9801C9.51563 35.965 8.30473 35.1794 7.57591 33.5584C7.3581 33.074 6.98087 31.2772 8.08299 31.6595C8.88799 31.9386 9.70438 32.1825 10.5226 32.4188C11.0975 32.5846 11.994 33.091 12.5141 32.6215C12.5707 32.5705 12.6164 32.5036 12.6795 32.4641C13.5173 31.9384 13.6735 30.664 13.1567 29.8368C13.1041 29.7525 13.0416 29.6748 12.9745 29.6018C12.6046 29.1998 12.0344 28.7696 11.4848 28.6777C10.9985 28.5963 10.4854 28.222 10.1655 27.8573C9.88265 27.5347 9.71 27.0815 9.82833 26.6681C9.88697 26.4631 10.0108 26.2843 10.1272 26.1058C10.7109 25.2097 10.9946 24.1944 11.5191 23.2761C11.6517 23.0439 11.802 22.8148 12.0132 22.652C12.4097 22.3467 12.9513 22.3239 13.4485 22.3708C14.0342 22.426 14.5855 22.4288 15.1701 22.4277C15.4076 22.4273 15.6501 22.426 15.8745 22.3479C16.5551 22.1111 16.8137 21.2421 16.3361 20.7016C15.3417 19.5765 14.5041 19.0352 13.0441 18.7428C12.2253 18.5789 11.3775 18.5594 10.5527 18.6919C10.3759 18.7203 10.1778 18.751 10.0316 18.6469C9.9532 18.5911 9.90281 18.5042 9.86223 18.4166C9.26797 17.1337 10.313 16.0433 10.8922 15.0054C11.1972 14.4589 11.3515 13.8425 11.5823 13.2603C11.9982 12.2111 12.8491 11.4259 13.943 11.1283C14.0436 11.1009 14.147 11.0773 14.2372 11.0247C14.4283 10.9134 14.5315 10.6682 14.4778 10.4526C14.4782 10.4541 14.4786 10.4557 14.4791 10.4573" fill="#D8DADD"/>
</g>
</g>
</g>
</svg>
