<svg width="44" height="44" viewBox="0 0 44 44" fill="none" xmlns="http://www.w3.org/2000/svg">
<path fill-rule="evenodd" clip-rule="evenodd" d="M25.641 2.98886C25.502 3.59343 25.2627 4.11174 24.6959 4.43701V4.43701C24.1427 4.7545 23.4792 4.83087 22.8394 4.80753V4.80753C22.0068 4.77713 21.0638 4.47732 20.237 4.58409V4.58409C19.9489 4.62086 19.7082 4.85774 19.418 4.8542V4.8542C19.2295 4.85279 19.059 4.74955 18.877 4.705V4.705C18.7129 4.66541 18.5417 4.6746 18.3733 4.68308V4.68308C17.4798 4.73258 16.4673 4.84006 15.9307 5.54575V5.54575C15.4986 6.11356 15.1203 6.77046 14.7885 7.3715V7.3715C14.2798 7.68192 14.5392 7.69818 14.2655 7.98527V7.98527C13.1018 8.05669 13.6951 8.15073 13.4916 9.02401V9.02401C13.6313 9.45676 13.4916 9.85486 13.5948 10.231V10.231C13.1807 10.9056 13.3318 9.98355 13.21 9.90011V9.90011C12.8109 9.79192 12.2377 9.799 12.3853 10.1943V10.1943C12.4856 10.4616 12.4548 10.767 12.591 11.0244V11.0244C12.7536 11.3299 13.1348 11.1998 13.1814 11.6495V11.6495C13.2387 12.2046 13.2036 12.7681 13.0796 13.3112V13.3112C13.5812 13.5877 13.8513 13.8882 14.3787 14.0989V14.0989C14.5678 14.1739 14.7549 14.3393 14.7305 14.5394V14.5394C14.7276 14.3994 14.4969 14.4129 14.4023 14.5168V14.5168C14.3077 14.6215 14.2411 14.7756 14.1021 14.7975V14.7975C13.9989 14.8138 13.9008 14.7318 13.8055 14.6505V14.6505C13.6973 14.5585 13.5934 14.4659 13.4902 14.514V14.514C13.1857 14.6561 13.4802 14.9022 13.6579 14.9814V14.9814C13.5181 15.091 13.3777 15.2006 13.238 15.3102V15.3102C13.4357 15.3257 13.5575 15.5944 13.4379 15.7514V15.7514C13.7281 15.6369 14.0204 15.2904 14.3529 15.3696V15.3696C14.5592 15.4184 14.7283 15.4304 14.8437 15.5591V15.5591C14.7677 15.6227 14.6789 15.6574 14.5772 15.6623V15.6623C14.2483 15.6552 13.7395 16.0724 14.2483 16.2916V16.2916C14.1515 16.2959 14.0598 16.3199 13.9731 16.3609V16.3609C13.9832 16.7039 14.4761 16.9775 14.6639 16.5512V16.5512C14.7061 16.455 14.704 16.3447 14.7384 16.2457V16.2457C14.7735 16.146 14.8752 16.0519 14.9763 16.0859V16.0859C15.1289 16.4203 14.6273 16.7103 14.5965 17.0765V17.0765C14.5743 17.3403 14.8308 17.5708 15.0981 17.5885V17.5885C15.2063 17.5963 15.313 17.5765 15.4069 17.5362V17.5362C15.4857 17.4669 15.5645 17.406 15.6398 17.3587V17.3587C15.581 17.4343 15.5 17.4958 15.4069 17.5362V17.5362C15.0909 17.8169 14.7864 18.2475 14.7763 18.6308V18.6308C14.7728 18.7333 14.7835 18.8379 14.7477 18.9334V18.9334C14.7111 19.0289 14.6065 19.1095 14.5084 19.0776V19.0776C14.4776 18.6647 14.446 18.2524 14.4152 17.8402V17.8402C14.3357 17.8275 14.2562 17.8148 14.1766 17.802V17.802C14.35 17.8296 14.0176 17.3113 13.9008 17.2625V17.2625C13.6321 17.1501 13.2552 17.4273 13.061 17.5842V17.5842C12.8969 17.213 12.6411 16.8821 12.3223 16.6282V16.6282C12.3559 16.933 12.3903 17.2385 12.4233 17.5439V17.5439C12.1646 17.7575 11.9583 18.0332 11.8286 18.3415V18.3415C11.7232 18.1117 11.7455 17.8487 11.7261 17.5977V17.5977C11.7075 17.3459 11.6236 17.068 11.3965 16.9528V16.9528C11.1694 16.8382 10.8168 17.0475 10.9057 17.283V17.283C10.958 17.4237 11.1206 17.4838 11.2382 17.5786V17.5786C11.6272 17.8932 10.9014 18.4688 10.7172 18.6916V18.6916C10.6936 18.7206 10.6678 18.751 10.6334 18.7665V18.7665C10.5324 18.8153 10.412 18.7128 10.3955 18.6032V18.6032C10.379 18.4929 10.4278 18.3861 10.4643 18.2814V18.2814C10.5811 17.9456 10.5754 17.5708 10.4486 17.2392V17.2392C10.2802 17.2936 10.3805 17.5425 10.3669 17.7165V17.7165C10.3468 17.9724 9.92047 18.0615 9.79652 17.8367V17.8367C9.63387 18.0905 9.58872 18.4144 9.67614 18.7022V18.7022C9.33722 18.7594 9.09504 19.1392 9.18604 19.4658V19.4658C9.26844 19.3789 9.35872 19.2877 9.47623 19.2679V19.2679C9.59446 19.2481 9.73633 19.3449 9.70838 19.4602V19.4602C9.68689 19.5542 9.57869 19.5945 9.49343 19.6412V19.6412C9.40816 19.6879 9.32791 19.7982 9.39168 19.8717V19.8717C9.67184 19.8774 9.95343 19.7756 10.1648 19.5924V19.5924C10.2558 19.8908 10.3468 20.1885 10.4364 20.4862V20.4862C10.4772 20.1015 10.6048 19.7268 10.8075 19.3958V19.3958C11.0046 19.6172 11.0891 19.9297 11.0304 20.2189V20.2189C11.2023 20.2847 11.3514 20.0754 11.3807 19.8965V19.8965C11.4144 19.6942 11.413 19.5507 11.5799 19.4305V19.4305C12.3524 19.9573 11.5656 21.2294 11.8135 21.9725V21.9725C11.8343 22.0355 11.8615 22.1012 11.9203 22.133V22.133C12.0493 22.2045 12.4039 21.9471 12.5021 21.882V21.882C12.52 22.0213 12.4391 22.0432 12.3201 22.0871V22.0871C12.1403 22.1514 12.0278 22.3579 12.0715 22.5418V22.5418C12.1152 22.7249 12.3094 22.8607 12.5 22.8394V22.8394L12.1668 23.2595C12.2606 23.3351 12.3538 23.4115 12.4476 23.4879V23.4879C12.1668 23.7834 12.2219 24.3208 12.5558 24.5563V24.5563C12.2807 24.6016 12.0313 24.7861 11.911 25.035V25.035C12.8102 24.7635 13.0366 25.7824 13.4207 26.3184V26.3184C13.3626 26.2371 12.0858 26.9583 13.0861 27.1768V27.1768C13.4579 27.2574 13.8449 27.2716 14.2218 27.2164V27.2164C14.153 27.4943 13.8162 27.6732 13.5439 27.5756V27.5756C13.4873 27.7602 13.7238 27.8846 13.9022 27.9624V27.9624C14.0455 28.0247 14.1272 28.1102 14.1057 28.2622V28.2622C13.1584 28.4935 12.2678 28.6858 11.8157 29.6757V29.6757C11.7834 29.7458 11.7555 29.8306 11.797 29.8957V29.8957C11.8164 29.9268 11.8479 29.9473 11.8809 29.9628V29.9628C12.0743 30.0569 12.3043 30.0081 12.5136 29.9565V29.9565C12.7228 29.9056 12.9528 29.8575 13.1463 29.9515V29.9515C13.339 30.0463 13.4243 30.3539 13.243 30.4691V30.4691C13.124 30.5448 12.9693 30.4995 12.8296 30.472V30.472C12.3538 30.3786 11.8336 30.5533 11.514 30.9139V30.9139C11.1952 31.2752 11.0898 31.8077 11.2482 32.2602V32.2602C11.0146 32.128 10.7875 32.4448 10.7151 32.7015V32.7015C10.5524 33.2855 10.599 33.8456 11.0504 34.3002V34.3002C11.1586 34.4084 11.2854 34.5053 11.3478 34.6439V34.6439C11.4108 34.7832 11.3729 34.9819 11.2274 35.0307V35.0307C11.1529 35.0554 11.0712 35.0349 10.9996 35.0031V35.0031C10.7043 34.8723 10.5202 34.5329 10.5725 34.2175V34.2175C10.4822 34.2988 10.3382 34.2698 10.2028 34.2408V34.2408C10.048 34.2083 9.90184 34.1751 9.85742 34.3052V34.3052C9.83378 34.3759 9.8696 34.4508 9.90543 34.5166V34.5166C9.99428 34.6828 10.0838 34.8489 10.1734 35.0158V35.0158C10.2099 34.9055 10.2458 34.7952 10.2816 34.6849V34.6849C10.5646 34.9762 10.6169 35.4592 10.4041 35.8035V35.8035C10.3289 35.9259 10.2436 36.1196 10.3776 36.1769V36.1769C10.4514 36.208 10.5324 36.1543 10.5947 36.104V36.104L11.155 35.6565C11.2217 36.2342 11.1006 36.8324 10.8147 37.3408V37.3408C10.9537 37.2934 11.1042 37.246 11.2446 37.2877V37.2877C11.3858 37.3295 11.494 37.502 11.413 37.6236V37.6236C11.2654 37.8449 10.7746 37.6102 10.7051 37.8655V37.8655C11.0726 37.9446 11.446 38.026 11.7756 38.2042V38.2042C12.1052 38.3831 12.391 38.6765 12.467 39.04V39.04C12.3086 39.0011 12.1618 38.9183 12.0478 38.8038V38.8038C11.9712 38.9664 11.7139 38.9282 11.5828 38.8059V38.8059C11.3227 38.5634 11.2088 38.2317 10.8498 38.482V38.482C10.9372 38.7875 11.1565 38.6857 11.3306 38.9134V38.9134C11.499 39.134 11.1056 39.4204 10.8627 39.2839V39.2839C10.6191 39.1481 10.5553 38.837 10.5173 38.5641V38.5641C10.4794 38.2904 10.4192 37.98 10.1784 37.8386V37.8386C9.96275 37.9736 9.9692 38.2826 10.0014 38.533V38.533C10.0451 38.8717 10.1096 39.2478 10.3862 39.4529V39.4529C10.7438 39.7174 11.2439 39.5604 11.6889 39.5229V39.5229C11.7548 39.5173 11.8236 39.5151 11.883 39.5434V39.5434C12.0242 39.6085 12.0364 39.8227 11.9353 39.9394V39.9394C11.8343 40.0568 11.6638 40.0914 11.5076 40.0851V40.0851C11.36 40.2816 11.3958 40.5878 11.5842 40.7462V40.7462C11.6853 40.8311 11.84 40.9272 11.7884 41.0481V41.0481C11.7584 41.1167 11.6745 41.1415 11.6215 41.1952V41.1952C11.4882 41.3281 11.6036 41.5537 11.7369 41.6874V41.6874C11.8694 41.8217 12.0335 41.9865 11.9769 42.1654V42.1654C12.7916 41.4045 13.4214 40.4506 13.7961 39.4069V39.4069C13.8399 39.2839 13.9738 39.1333 14.0677 39.2238V39.2238C14.1028 39.257 14.1071 39.3087 14.1078 39.356V39.356C14.1143 39.6693 14.0355 39.9868 14.1078 40.2915V40.2915C14.1795 40.5963 14.4933 40.8841 14.79 40.7738V40.7738C15.0465 40.6783 15.1239 40.3679 15.2141 40.1126V40.1126C15.4957 39.315 16.1915 38.7628 16.8328 38.2473V38.2473C17.0255 38.3795 17.3365 38.3951 17.4504 38.12V38.12C17.5149 37.9652 17.5579 37.7042 17.7191 37.7601V37.7601C17.838 37.8004 17.8123 37.9715 17.8581 38.0868V38.0868C17.9448 38.3039 18.3253 38.3597 18.3081 38.5924V38.5924C18.2973 38.7444 18.0917 38.8186 17.9491 38.7606V38.7606C17.8058 38.7041 17.7148 38.5662 17.6331 38.4361V38.4361C17.6854 38.5202 17.6589 39.4663 17.3644 39.4911V39.4911C17.1359 39.5102 16.9682 39.233 17.037 39.0315V39.0315C16.8765 39.2896 16.7153 39.5477 16.5555 39.8058V39.8058C16.8614 39.6523 17.2469 39.7435 17.5242 39.9443V39.9443C17.7585 40.1162 17.952 40.3764 18.1497 40.568V40.568C18.2995 40.474 18.4442 40.3721 18.5961 40.2795V40.2795C18.771 40.1734 18.9293 39.9352 18.791 39.786V39.786C18.6721 39.658 18.4098 39.7025 18.3425 39.5427V39.5427C18.2844 39.402 18.4636 39.2627 18.6169 39.2768V39.2768C18.7695 39.2917 18.8978 39.3928 19.0389 39.4543V39.4543C19.1794 39.5158 19.3743 39.5236 19.4574 39.3956V39.3956C19.5434 39.2634 19.4495 39.0923 19.3578 38.9636V38.9636C19.1729 38.7041 18.427 37.9185 18.5101 37.6067V37.6067C18.5324 37.5218 18.5933 37.4539 18.6542 37.3917V37.3917C18.9422 37.0982 19.2876 36.8592 19.6652 36.6924V36.6924C20.0005 37.3146 20.1818 38.0168 20.1868 38.7218V38.7218C20.1875 38.8002 20.189 38.8872 20.242 38.9452V38.9452C20.3552 39.0711 20.5759 38.9431 20.6296 38.784V38.784C20.6841 38.6249 20.6554 38.4446 20.7242 38.2911V38.2911C20.8331 38.0493 21.1305 37.9666 21.3691 37.8449V37.8449C21.6084 37.7233 21.8305 37.4263 21.67 37.2142V37.2142C21.5898 37.1074 21.445 37.0742 21.311 37.0608V37.0608C21.0667 37.0367 20.8159 37.0558 20.5802 36.9858V36.9858C20.3459 36.9158 20.123 36.7214 20.1295 36.4788V36.4788C20.1302 36.4123 20.1546 36.3402 20.2112 36.3035V36.3035C20.3058 36.2426 20.4268 36.307 20.5343 36.3416V36.3416C20.8911 36.4548 21.3125 36.1302 21.2874 35.7604V35.7604C21.5195 35.7448 21.746 35.8255 21.971 35.882V35.882C22.1967 35.9386 22.4482 35.9683 22.6524 35.8587V35.8587C22.7957 35.7823 22.8731 35.6239 22.8824 35.4684V35.4684C23.0235 35.5575 23.2614 35.6685 23.4563 35.648V35.648C23.4169 35.368 23.5666 35.0717 23.8167 34.9338V34.9338C23.7458 34.9734 24.1327 36.307 24.2008 36.4279V36.4279C24.2538 36.5205 24.3161 36.6217 24.42 36.6506V36.6506C24.5146 36.6775 24.6142 36.6351 24.7016 36.5905V36.5905C24.8277 36.5283 25.1093 36.2745 25.2412 36.273V36.273C25.3429 36.2723 25.3988 36.3353 25.4554 36.3968V36.3968C25.5142 36.4626 25.5729 36.5269 25.6861 36.5191V36.5191C25.8681 36.5057 25.9928 36.2766 25.9047 36.1196V36.1196C25.9641 36.051 26.0845 36.1253 26.1024 36.2137V36.2137C26.1196 36.302 26.0831 36.3918 26.0867 36.4824V36.4824C26.0945 36.6945 26.3761 36.843 26.5588 36.7305V36.7305C26.4621 36.8797 26.7494 37.0318 26.8791 36.9094V36.9094C27.0095 36.7871 26.983 36.5771 26.9257 36.4088V36.4088C26.8691 36.2412 26.791 36.0609 26.8483 35.8933V35.8933C26.9035 35.7342 27.0626 35.6388 27.1736 35.5122V35.5122C27.2854 35.3856 27.3327 35.1594 27.188 35.0724V35.0724C27.0282 34.9783 26.8512 35.1509 26.7136 35.2739V35.2739C26.576 35.3969 26.2751 35.4167 26.278 35.2336V35.2336C26.2794 35.1558 26.3453 35.0964 26.4062 35.0476V35.0476C26.6104 34.8829 26.8204 34.7153 27.0683 34.6276V34.6276C27.3169 34.5392 27.6157 34.5442 27.8221 34.7061V34.7061C27.9647 34.8178 28.0428 34.9437 28.2126 35.0137V35.0137C28.1452 34.9861 27.9116 33.8187 27.8679 33.6348V33.6348C28.2556 33.8993 28.6762 34.2953 29.1089 34.477V34.477C29.4149 34.605 29.776 34.5463 30.0727 34.7047V34.7047C30.1608 34.7514 30.2411 34.8171 30.3378 34.8369V34.8369C30.4352 34.8567 30.5592 34.803 30.5635 34.7047V34.7047C30.6717 34.803 30.7885 34.8928 30.906 34.984V34.984C31.4355 35.3913 31.6211 34.7443 31.9879 34.4346V34.4346C31.9937 34.5951 32.185 34.7188 32.3369 34.6594V34.6594C32.4873 34.6 32.5418 34.3808 32.4343 34.2599V34.2599C32.5576 34.1086 32.8141 34.2041 32.9918 34.1213V34.1213C33.1064 34.0669 33.1702 33.9474 33.2261 33.8349V33.8349C33.7921 32.7078 34.1869 31.7723 34.0229 30.5123V30.5123C34.0415 30.6551 34.4521 30.9492 34.5617 31.032V31.032C35.1492 30.3178 35.2173 27.8825 35.3147 26.9004V26.9004C35.3269 26.7745 35.3628 26.6797 35.3893 26.6104V26.6104C35.471 26.3955 35.5297 26.3983 35.5992 26.2314V26.2314C35.9933 25.2754 35.5498 25.5618 35.0224 25.8475V25.8475C34.6068 26.0723 34.1389 26.2979 33.9863 25.9168V25.9168C33.9584 25.8475 34.3611 24.8363 34.3467 24.5641V24.5641C34.3059 23.782 34.1805 23.275 34.4012 22.5191V22.5191C34.6376 21.7116 34.4069 21.5348 34.3353 20.8101V20.8101C34.2629 20.081 34.7659 19.4213 34.5703 18.681V18.681C34.4248 18.1294 34.3718 17.5581 34.2758 16.9959V16.9959C33.6453 13.2985 31.0729 10.6935 29.0179 7.71728V7.71728C27.7898 5.93749 26.8669 3.95759 26.2027 1.90981V1.90981C26.1848 1.85607 26.1633 1.83203 26.1382 1.83203V1.83203C25.9648 1.83203 25.6453 2.97047 25.641 2.98886V2.98886ZM17.037 39.0315C17.0578 38.9982 17.0785 38.9643 17.0993 38.9311V38.9311C17.0699 38.9601 17.0492 38.9947 17.037 39.0315V39.0315Z" fill="white"/>
<mask id="mask0_1585_3182" style="mask-type:luminance" maskUnits="userSpaceOnUse" x="9" y="1" width="27" height="42">
<path fill-rule="evenodd" clip-rule="evenodd" d="M25.641 2.98886C25.502 3.59343 25.2627 4.11174 24.6959 4.43701V4.43701C24.1427 4.7545 23.4792 4.83087 22.8394 4.80753V4.80753C22.0068 4.77713 21.0638 4.47732 20.237 4.58409V4.58409C19.9489 4.62086 19.7082 4.85774 19.418 4.8542V4.8542C19.2295 4.85279 19.059 4.74955 18.877 4.705V4.705C18.7129 4.66541 18.5417 4.6746 18.3733 4.68308V4.68308C17.4798 4.73258 16.4673 4.84006 15.9307 5.54575V5.54575C15.4986 6.11356 15.1203 6.77046 14.7885 7.3715V7.3715C14.2798 7.68192 14.5392 7.69818 14.2655 7.98527V7.98527C13.1018 8.05669 13.6951 8.15073 13.4916 9.02401V9.02401C13.6313 9.45676 13.4916 9.85486 13.5948 10.231V10.231C13.1807 10.9056 13.3318 9.98355 13.21 9.90011V9.90011C12.8109 9.79192 12.2377 9.799 12.3853 10.1943V10.1943C12.4856 10.4616 12.4548 10.767 12.591 11.0244V11.0244C12.7536 11.3299 13.1348 11.1998 13.1814 11.6495V11.6495C13.2387 12.2046 13.2036 12.7681 13.0796 13.3112V13.3112C13.5812 13.5877 13.8513 13.8882 14.3787 14.0989V14.0989C14.5678 14.1739 14.7549 14.3393 14.7305 14.5394V14.5394C14.7276 14.3994 14.4969 14.4129 14.4023 14.5168V14.5168C14.3077 14.6215 14.2411 14.7756 14.1021 14.7975V14.7975C13.9989 14.8138 13.9008 14.7318 13.8055 14.6505V14.6505C13.6973 14.5585 13.5934 14.4659 13.4902 14.514V14.514C13.1857 14.6561 13.4802 14.9022 13.6579 14.9814V14.9814C13.5181 15.091 13.3777 15.2006 13.238 15.3102V15.3102C13.4357 15.3257 13.5575 15.5944 13.4379 15.7514V15.7514C13.7281 15.6369 14.0204 15.2904 14.3529 15.3696V15.3696C14.5592 15.4184 14.7283 15.4304 14.8437 15.5591V15.5591C14.7677 15.6227 14.6789 15.6574 14.5772 15.6623V15.6623C14.2483 15.6552 13.7395 16.0724 14.2483 16.2916V16.2916C14.1515 16.2959 14.0598 16.3199 13.9731 16.3609V16.3609C13.9832 16.7039 14.4761 16.9775 14.6639 16.5512V16.5512C14.7061 16.455 14.704 16.3447 14.7384 16.2457V16.2457C14.7735 16.146 14.8752 16.0519 14.9763 16.0859V16.0859C15.1289 16.4203 14.6273 16.7103 14.5965 17.0765V17.0765C14.5743 17.3403 14.8308 17.5708 15.0981 17.5885V17.5885C15.2063 17.5963 15.313 17.5765 15.4069 17.5362V17.5362C15.4857 17.4669 15.5645 17.406 15.6398 17.3587V17.3587C15.581 17.4343 15.5 17.4958 15.4069 17.5362V17.5362C15.0909 17.8169 14.7864 18.2475 14.7763 18.6308V18.6308C14.7728 18.7333 14.7835 18.8379 14.7477 18.9334V18.9334C14.7111 19.0289 14.6065 19.1095 14.5084 19.0776V19.0776C14.4776 18.6647 14.446 18.2524 14.4152 17.8402V17.8402C14.3357 17.8275 14.2562 17.8148 14.1766 17.802V17.802C14.35 17.8296 14.0176 17.3113 13.9008 17.2625V17.2625C13.6321 17.1501 13.2552 17.4273 13.061 17.5842V17.5842C12.8969 17.213 12.6411 16.8821 12.3223 16.6282V16.6282C12.3559 16.933 12.3903 17.2385 12.4233 17.5439V17.5439C12.1646 17.7575 11.9583 18.0332 11.8286 18.3415V18.3415C11.7232 18.1117 11.7455 17.8487 11.7261 17.5977V17.5977C11.7075 17.3459 11.6236 17.068 11.3965 16.9528V16.9528C11.1694 16.8382 10.8168 17.0475 10.9057 17.283V17.283C10.958 17.4237 11.1206 17.4838 11.2382 17.5786V17.5786C11.6272 17.8932 10.9014 18.4688 10.7172 18.6916V18.6916C10.6936 18.7206 10.6678 18.751 10.6334 18.7665V18.7665C10.5324 18.8153 10.412 18.7128 10.3955 18.6032V18.6032C10.379 18.4929 10.4278 18.3861 10.4643 18.2814V18.2814C10.5811 17.9456 10.5754 17.5708 10.4486 17.2392V17.2392C10.2802 17.2936 10.3805 17.5425 10.3669 17.7165V17.7165C10.3468 17.9724 9.92047 18.0615 9.79652 17.8367V17.8367C9.63387 18.0905 9.58872 18.4144 9.67614 18.7022V18.7022C9.33722 18.7594 9.09504 19.1392 9.18604 19.4658V19.4658C9.26844 19.3789 9.35872 19.2877 9.47623 19.2679V19.2679C9.59446 19.2481 9.73633 19.3449 9.70838 19.4602V19.4602C9.68689 19.5542 9.57869 19.5945 9.49343 19.6412V19.6412C9.40816 19.6879 9.32791 19.7982 9.39168 19.8717V19.8717C9.67184 19.8774 9.95343 19.7756 10.1648 19.5924V19.5924C10.2558 19.8908 10.3468 20.1885 10.4364 20.4862V20.4862C10.4772 20.1015 10.6048 19.7268 10.8075 19.3958V19.3958C11.0046 19.6172 11.0891 19.9297 11.0304 20.2189V20.2189C11.2023 20.2847 11.3514 20.0754 11.3807 19.8965V19.8965C11.4144 19.6942 11.413 19.5507 11.5799 19.4305V19.4305C12.3524 19.9573 11.5656 21.2294 11.8135 21.9725V21.9725C11.8343 22.0355 11.8615 22.1012 11.9203 22.133V22.133C12.0493 22.2045 12.4039 21.9471 12.5021 21.882V21.882C12.52 22.0213 12.4391 22.0432 12.3201 22.0871V22.0871C12.1403 22.1514 12.0278 22.3579 12.0715 22.5418V22.5418C12.1152 22.7249 12.3094 22.8607 12.5 22.8394V22.8394L12.1668 23.2595C12.2606 23.3351 12.3538 23.4115 12.4476 23.4879V23.4879C12.1668 23.7834 12.2219 24.3208 12.5558 24.5563V24.5563C12.2807 24.6016 12.0313 24.7861 11.911 25.035V25.035C12.8102 24.7635 13.0366 25.7824 13.4207 26.3184V26.3184C13.3626 26.2371 12.0858 26.9583 13.0861 27.1768V27.1768C13.4579 27.2574 13.8449 27.2716 14.2218 27.2164V27.2164C14.153 27.4943 13.8162 27.6732 13.5439 27.5756V27.5756C13.4873 27.7602 13.7238 27.8846 13.9022 27.9624V27.9624C14.0455 28.0247 14.1272 28.1102 14.1057 28.2622V28.2622C13.1584 28.4935 12.2678 28.6858 11.8157 29.6757V29.6757C11.7834 29.7458 11.7555 29.8306 11.797 29.8957V29.8957C11.8164 29.9268 11.8479 29.9473 11.8809 29.9628V29.9628C12.0743 30.0569 12.3043 30.0081 12.5136 29.9565V29.9565C12.7228 29.9056 12.9528 29.8575 13.1463 29.9515V29.9515C13.339 30.0463 13.4243 30.3539 13.243 30.4691V30.4691C13.124 30.5448 12.9693 30.4995 12.8296 30.472V30.472C12.3538 30.3786 11.8336 30.5533 11.514 30.9139V30.9139C11.1952 31.2752 11.0898 31.8077 11.2482 32.2602V32.2602C11.0146 32.128 10.7875 32.4448 10.7151 32.7015V32.7015C10.5524 33.2855 10.599 33.8456 11.0504 34.3002V34.3002C11.1586 34.4084 11.2854 34.5053 11.3478 34.6439V34.6439C11.4108 34.7832 11.3729 34.9819 11.2274 35.0307V35.0307C11.1529 35.0554 11.0712 35.0349 10.9996 35.0031V35.0031C10.7043 34.8723 10.5202 34.5329 10.5725 34.2175V34.2175C10.4822 34.2988 10.3382 34.2698 10.2028 34.2408V34.2408C10.048 34.2083 9.90184 34.1751 9.85742 34.3052V34.3052C9.83378 34.3759 9.8696 34.4508 9.90543 34.5166V34.5166C9.99428 34.6828 10.0838 34.8489 10.1734 35.0158V35.0158C10.2099 34.9055 10.2458 34.7952 10.2816 34.6849V34.6849C10.5646 34.9762 10.6169 35.4592 10.4041 35.8035V35.8035C10.3289 35.9259 10.2436 36.1196 10.3776 36.1769V36.1769C10.4514 36.208 10.5324 36.1543 10.5947 36.104V36.104L11.155 35.6565C11.2217 36.2342 11.1006 36.8324 10.8147 37.3408V37.3408C10.9537 37.2934 11.1042 37.246 11.2446 37.2877V37.2877C11.3858 37.3295 11.494 37.502 11.413 37.6236V37.6236C11.2654 37.8449 10.7746 37.6102 10.7051 37.8655V37.8655C11.0726 37.9446 11.446 38.026 11.7756 38.2042V38.2042C12.1052 38.3831 12.391 38.6765 12.467 39.04V39.04C12.3086 39.0011 12.1618 38.9183 12.0478 38.8038V38.8038C11.9712 38.9664 11.7139 38.9282 11.5828 38.8059V38.8059C11.3227 38.5634 11.2088 38.2317 10.8498 38.482V38.482C10.9372 38.7875 11.1565 38.6857 11.3306 38.9134V38.9134C11.499 39.134 11.1056 39.4204 10.8627 39.2839V39.2839C10.6191 39.1481 10.5553 38.837 10.5173 38.5641V38.5641C10.4794 38.2904 10.4192 37.98 10.1784 37.8386V37.8386C9.96275 37.9736 9.9692 38.2826 10.0014 38.533V38.533C10.0451 38.8717 10.1096 39.2478 10.3862 39.4529V39.4529C10.7438 39.7174 11.2439 39.5604 11.6889 39.5229V39.5229C11.7548 39.5173 11.8236 39.5151 11.883 39.5434V39.5434C12.0242 39.6085 12.0364 39.8227 11.9353 39.9394V39.9394C11.8343 40.0568 11.6638 40.0914 11.5076 40.0851V40.0851C11.36 40.2816 11.3958 40.5878 11.5842 40.7462V40.7462C11.6853 40.8311 11.84 40.9272 11.7884 41.0481V41.0481C11.7584 41.1167 11.6745 41.1415 11.6215 41.1952V41.1952C11.4882 41.3281 11.6036 41.5537 11.7369 41.6874V41.6874C11.8694 41.8217 12.0335 41.9865 11.9769 42.1654V42.1654C12.7916 41.4045 13.4214 40.4506 13.7961 39.4069V39.4069C13.8399 39.2839 13.9738 39.1333 14.0677 39.2238V39.2238C14.1028 39.257 14.1071 39.3087 14.1078 39.356V39.356C14.1143 39.6693 14.0355 39.9868 14.1078 40.2915V40.2915C14.1795 40.5963 14.4933 40.8841 14.79 40.7738V40.7738C15.0465 40.6783 15.1239 40.3679 15.2141 40.1126V40.1126C15.4957 39.315 16.1915 38.7628 16.8328 38.2473V38.2473C17.0255 38.3795 17.3365 38.3951 17.4504 38.12V38.12C17.5149 37.9652 17.5579 37.7042 17.7191 37.7601V37.7601C17.838 37.8004 17.8123 37.9715 17.8581 38.0868V38.0868C17.9448 38.3039 18.3253 38.3597 18.3081 38.5924V38.5924C18.2973 38.7444 18.0917 38.8186 17.9491 38.7606V38.7606C17.8058 38.7041 17.7148 38.5662 17.6331 38.4361V38.4361C17.6854 38.5202 17.6589 39.4663 17.3644 39.4911V39.4911C17.1359 39.5102 16.9682 39.233 17.037 39.0315V39.0315C16.8765 39.2896 16.7153 39.5477 16.5555 39.8058V39.8058C16.8614 39.6523 17.2469 39.7435 17.5242 39.9443V39.9443C17.7585 40.1162 17.952 40.3764 18.1497 40.568V40.568C18.2995 40.474 18.4442 40.3721 18.5961 40.2795V40.2795C18.771 40.1734 18.9293 39.9352 18.791 39.786V39.786C18.6721 39.658 18.4098 39.7025 18.3425 39.5427V39.5427C18.2844 39.402 18.4636 39.2627 18.6169 39.2768V39.2768C18.7695 39.2917 18.8978 39.3928 19.0389 39.4543V39.4543C19.1794 39.5158 19.3743 39.5236 19.4574 39.3956V39.3956C19.5434 39.2634 19.4495 39.0923 19.3578 38.9636V38.9636C19.1729 38.7041 18.427 37.9185 18.5101 37.6067V37.6067C18.5324 37.5218 18.5933 37.4539 18.6542 37.3917V37.3917C18.9422 37.0982 19.2876 36.8592 19.6652 36.6924V36.6924C20.0005 37.3146 20.1818 38.0168 20.1868 38.7218V38.7218C20.1875 38.8002 20.189 38.8872 20.242 38.9452V38.9452C20.3552 39.0711 20.5759 38.9431 20.6296 38.784V38.784C20.6841 38.6249 20.6554 38.4446 20.7242 38.2911V38.2911C20.8331 38.0493 21.1305 37.9666 21.3691 37.8449V37.8449C21.6084 37.7233 21.8305 37.4263 21.67 37.2142V37.2142C21.5898 37.1074 21.445 37.0742 21.311 37.0608V37.0608C21.0667 37.0367 20.8159 37.0558 20.5802 36.9858V36.9858C20.3459 36.9158 20.123 36.7214 20.1295 36.4788V36.4788C20.1302 36.4123 20.1546 36.3402 20.2112 36.3035V36.3035C20.3058 36.2426 20.4268 36.307 20.5343 36.3416V36.3416C20.8911 36.4548 21.3125 36.1302 21.2874 35.7604V35.7604C21.5195 35.7448 21.746 35.8255 21.971 35.882V35.882C22.1967 35.9386 22.4482 35.9683 22.6524 35.8587V35.8587C22.7957 35.7823 22.8731 35.6239 22.8824 35.4684V35.4684C23.0235 35.5575 23.2614 35.6685 23.4563 35.648V35.648C23.4169 35.368 23.5666 35.0717 23.8167 34.9338V34.9338C23.7458 34.9734 24.1327 36.307 24.2008 36.4279V36.4279C24.2538 36.5205 24.3161 36.6217 24.42 36.6506V36.6506C24.5146 36.6775 24.6142 36.6351 24.7016 36.5905V36.5905C24.8277 36.5283 25.1093 36.2745 25.2412 36.273V36.273C25.3429 36.2723 25.3988 36.3353 25.4554 36.3968V36.3968C25.5142 36.4626 25.5729 36.5269 25.6861 36.5191V36.5191C25.8681 36.5057 25.9928 36.2766 25.9047 36.1196V36.1196C25.9641 36.051 26.0845 36.1253 26.1024 36.2137V36.2137C26.1196 36.302 26.0831 36.3918 26.0867 36.4824V36.4824C26.0945 36.6945 26.3761 36.843 26.5588 36.7305V36.7305C26.4621 36.8797 26.7494 37.0318 26.8791 36.9094V36.9094C27.0095 36.7871 26.983 36.5771 26.9257 36.4088V36.4088C26.8691 36.2412 26.791 36.0609 26.8483 35.8933V35.8933C26.9035 35.7342 27.0626 35.6388 27.1736 35.5122V35.5122C27.2854 35.3856 27.3327 35.1594 27.188 35.0724V35.0724C27.0282 34.9783 26.8512 35.1509 26.7136 35.2739V35.2739C26.576 35.3969 26.2751 35.4167 26.278 35.2336V35.2336C26.2794 35.1558 26.3453 35.0964 26.4062 35.0476V35.0476C26.6104 34.8829 26.8204 34.7153 27.0683 34.6276V34.6276C27.3169 34.5392 27.6157 34.5442 27.8221 34.7061V34.7061C27.9647 34.8178 28.0428 34.9437 28.2126 35.0137V35.0137C28.1452 34.9861 27.9116 33.8187 27.8679 33.6348V33.6348C28.2556 33.8993 28.6762 34.2953 29.1089 34.477V34.477C29.4149 34.605 29.776 34.5463 30.0727 34.7047V34.7047C30.1608 34.7514 30.2411 34.8171 30.3378 34.8369V34.8369C30.4352 34.8567 30.5592 34.803 30.5635 34.7047V34.7047C30.6717 34.803 30.7885 34.8928 30.906 34.984V34.984C31.4355 35.3913 31.6211 34.7443 31.9879 34.4346V34.4346C31.9937 34.5951 32.185 34.7188 32.3369 34.6594V34.6594C32.4873 34.6 32.5418 34.3808 32.4343 34.2599V34.2599C32.5576 34.1086 32.8141 34.2041 32.9918 34.1213V34.1213C33.1064 34.0669 33.1702 33.9474 33.2261 33.8349V33.8349C33.7921 32.7078 34.1869 31.7723 34.0229 30.5123V30.5123C34.0415 30.6551 34.4521 30.9492 34.5617 31.032V31.032C35.1492 30.3178 35.2173 27.8825 35.3147 26.9004V26.9004C35.3269 26.7745 35.3628 26.6797 35.3893 26.6104V26.6104C35.471 26.3955 35.5297 26.3983 35.5992 26.2314V26.2314C35.9933 25.2754 35.5498 25.5618 35.0224 25.8475V25.8475C34.6068 26.0723 34.1389 26.2979 33.9863 25.9168V25.9168C33.9584 25.8475 34.3611 24.8363 34.3467 24.5641V24.5641C34.3059 23.782 34.1805 23.275 34.4012 22.5191V22.5191C34.6376 21.7116 34.4069 21.5348 34.3353 20.8101V20.8101C34.2629 20.081 34.7659 19.4213 34.5703 18.681V18.681C34.4248 18.1294 34.3718 17.5581 34.2758 16.9959V16.9959C33.6453 13.2985 31.0729 10.6935 29.0179 7.71728V7.71728C27.7898 5.93749 26.8669 3.95759 26.2027 1.90981V1.90981C26.1848 1.85607 26.1633 1.83203 26.1382 1.83203V1.83203C25.9648 1.83203 25.6453 2.97047 25.641 2.98886V2.98886ZM17.037 39.0315C17.0578 38.9982 17.0785 38.9643 17.0993 38.9311V38.9311C17.0699 38.9601 17.0492 38.9947 17.037 39.0315V39.0315Z" fill="white"/>
</mask>
<g mask="url(#mask0_1585_3182)">
</g>
</svg>
