<svg width="44" height="44" viewBox="0 0 44 44" fill="none" xmlns="http://www.w3.org/2000/svg">
<g id="icon_orange_5">
<g id="Group 7">
<path id="Fill 1" fill-rule="evenodd" clip-rule="evenodd" d="M40.2444 21.0661C40.0601 20.4079 39.6185 19.8038 39.1582 19.3347C38.9521 19.1246 38.7293 18.9198 38.6042 18.653C38.3558 18.1234 38.3356 17.6411 37.9605 17.1608C37.6158 16.7193 37.1459 16.3049 37.088 15.7119C37.0614 15.4401 37.1305 15.1645 37.0937 14.8939C37.0517 14.5854 36.8771 14.3136 36.707 14.0533C36.707 13.7194 35.8624 12.683 35.6185 12.4536C35.1951 12.0555 34.4983 11.8216 33.9273 11.8112C33.6014 11.8052 33.2567 11.9183 33.0594 12.1786C32.9204 12.3619 32.858 12.6094 32.6705 12.7421C32.5403 12.8342 32.3736 12.8526 32.2148 12.8637C31.5393 12.911 30.8063 12.9272 30.1591 12.6968C29.7475 12.5507 29.3579 12.3006 28.9214 12.2924C28.4299 12.2832 28.5813 12.0526 28.2819 11.8476C28.1631 11.7662 28.0052 11.8541 27.8896 11.9399C27.5605 12.1842 27.2416 12.4407 26.8825 12.6396C26.7646 12.7049 26.6387 12.7671 26.5039 12.7695C26.0605 12.7773 25.8393 12.1834 25.4135 12.0588C25.2875 12.0219 25.1154 11.9973 25.0982 11.8666C25.0879 11.7891 25.1453 11.721 25.1988 11.6643C25.3572 11.4963 25.6642 11.2791 25.747 11.0556C25.8183 10.8632 25.6068 10.6978 25.4859 10.5322C25.2693 10.2355 25.334 9.82443 25.4223 9.46747C25.5069 9.12492 25.6759 8.43447 25.3255 8.1642C25.0189 7.92765 24.4055 8.20716 24.187 8.44007C23.9705 8.67096 23.8501 8.97763 23.7811 9.28717C23.7235 9.54588 23.7042 9.83677 23.8512 10.0569C23.3832 10.3074 22.7422 10.146 22.4657 9.68501C22.4387 9.64008 22.4149 9.59236 22.4049 9.54094C22.3969 9.49953 22.3981 9.45698 22.3993 9.41486C22.4078 9.11295 22.4749 8.628 22.2263 8.38704C22.1424 8.30565 22.0162 8.29338 21.9025 8.2668C21.5551 8.18559 21.2552 7.92223 21.1288 7.58719C21.1005 7.51212 21.0774 7.4293 21.0154 7.37812C20.8058 7.20509 20.4983 7.56956 20.3058 7.64553C20.0387 7.75093 19.757 7.72471 19.4776 7.69862C19.1415 7.66727 18.6172 7.83417 18.6552 8.32353C18.6759 8.59004 18.9456 8.7959 18.9384 9.0632C18.927 9.48481 18.1097 9.88414 18.5487 10.3485C18.6387 10.4437 17.6228 10.7803 17.531 10.7896C17.1557 10.8272 16.8022 10.8058 16.6587 11.2675C16.6342 11.3463 16.616 11.439 16.5443 11.4794C16.4825 11.5143 16.4055 11.495 16.3377 11.4742C16.0993 11.401 15.5594 11.078 15.3262 11.1415C15.0953 11.2043 15.0639 11.5559 14.8234 11.6238C14.7389 11.6477 14.649 11.629 14.5633 11.61C14.406 11.5752 14.2366 11.5328 14.1344 11.4076C14.0304 11.2802 14.0241 11.1021 14.0047 10.9385C13.9532 10.5031 13.728 10.2039 13.5742 9.81353C13.4223 9.42814 13.534 9.315 13.669 8.95672C14.0909 7.83691 12.1576 8.06398 12.2417 9.23867C12.2511 9.36969 12.2857 9.50203 12.2593 9.63067C12.1856 9.99025 11.7208 10.0929 11.4798 10.369C11.1786 10.714 11.2766 11.2677 11.0307 11.6545C10.8443 11.9476 10.5086 12.0897 10.2779 12.3396C10.041 12.5963 9.9961 12.8475 9.58714 12.8548C9.471 12.8569 9.33326 12.9631 9.34976 13.0932C9.37812 13.3172 9.40649 13.5412 9.43492 13.7652C9.45278 13.9065 9.57367 14.0518 9.73551 13.995C10.0191 13.8957 10.7742 14.3695 10.6869 14.69C10.6641 14.7737 10.6113 14.8472 10.591 14.9316C10.5485 15.1081 10.6538 15.2828 10.7542 15.4336C11.0634 15.8975 11.3819 16.3715 11.8311 16.7002C11.9833 16.8115 12.7517 17.2096 12.3352 17.3918C12.0736 17.5063 11.8773 17.7599 11.8314 18.0427C11.7805 18.3562 11.6212 18.8657 11.3973 18.2977C11.3222 18.1072 11.285 17.9077 11.1731 17.7323C10.8608 17.2429 10.026 17.1183 9.8307 17.7924C9.7196 18.1757 10.0209 18.6226 10.4166 18.6614C10.0683 19.1728 9.59943 19.6009 9.05937 19.9007C8.96667 19.9521 8.86305 20.0103 8.83332 20.1123C8.81469 20.1762 8.82976 20.2447 8.84798 20.3087C8.9424 20.6412 9.13486 20.9615 9.43682 21.1275C9.73883 21.2935 10.1595 21.2637 10.3826 21.0004C10.5815 21.6292 10.6532 22.3154 10.5664 22.9708C10.5123 23.3793 10.4886 23.2651 10.2268 23.4615C10.0107 23.6237 9.83248 23.7335 9.76554 24.0231C9.67432 24.4177 9.90144 24.7874 9.81948 25.1625C9.75165 25.473 9.48228 25.705 9.23599 25.8796C9.13273 25.9528 8.40336 26.2095 8.39813 26.227C8.42585 26.135 8.47339 26.0567 8.52502 25.9751C8.60591 25.847 8.52834 25.6609 8.38318 25.625C8.13042 25.5623 7.7985 25.4549 7.62111 25.7227C7.54183 25.8424 7.54782 25.9872 7.54188 26.1241C7.53334 26.3204 7.56182 26.5747 7.48521 26.7567C7.38871 26.9861 7.12557 27.1537 7.01857 27.3971C6.85406 27.7713 6.88545 28.2096 7.02171 28.5951C7.19702 29.0908 7.66432 30.035 8.09671 30.3564C8.46846 30.6325 9.01831 30.5263 9.4053 30.7805C9.62061 30.922 9.77301 31.1679 10.0208 31.2375C10.1943 31.2864 10.3995 31.2427 10.5426 31.3526C10.6469 31.4328 10.6846 31.5711 10.7158 31.6993C10.8167 32.1135 10.9478 32.5313 11.0243 32.9503C11.088 33.2987 11.0497 33.6853 11.2475 33.9994C11.339 34.1447 11.816 34.4078 11.7138 34.5842C11.663 34.6719 11.4071 34.7579 11.3234 34.8312C11.0899 35.0358 10.9789 35.3832 11.0617 35.6875C11.1077 35.8565 11.214 35.9168 11.3142 36.0406C11.5463 36.3276 11.4919 36.9001 11.5737 37.2465C11.5998 37.3567 11.6355 37.4758 11.7291 37.539C11.9658 37.6985 12.2497 37.3628 12.5345 37.3722C12.7796 37.3803 12.9269 37.5466 13.1739 37.4986C13.4 37.4545 13.6577 37.2284 13.814 37.0696C14.3307 36.545 14.1328 35.6668 14.6674 35.2792L15.6545 34.5635C15.7369 34.5038 15.8351 34.441 15.9328 34.469C15.9982 34.4878 16.0452 34.5432 16.0973 34.587C16.6464 35.0483 16.8473 34.3075 17.012 34.0198C17.2245 33.6485 17.6032 33.6697 18.0136 33.7234C18.0538 33.7287 18.0971 33.7353 18.1261 33.7638C18.1537 33.7907 18.1622 33.8313 18.1691 33.8694C18.1885 33.9783 18.2059 34.0912 18.2648 34.1845C18.3238 34.278 18.4374 34.3469 18.5434 34.3167C18.5886 34.3038 18.6284 34.2743 18.6747 34.2662C18.8582 34.2336 19.3534 35.0067 19.4976 35.138C19.5653 35.1997 19.6505 35.263 19.7395 35.242C19.8957 35.2051 19.8867 34.9805 19.9618 34.8382C20.0579 34.6563 20.3033 34.6172 20.5059 34.6493C20.7084 34.6815 20.9085 34.7623 21.1121 34.736C21.4274 34.695 21.8352 34.3135 22.0299 34.0779C22.3354 33.7083 22.1288 33.5257 22.1698 33.0721C22.1963 32.7793 22.4735 32.5825 22.6168 32.3261C22.7851 32.0248 22.7599 31.6581 22.7915 31.3142C22.839 30.7989 23.0963 30.5763 23.4955 30.3052C23.6794 30.1802 23.8497 30.036 24.0299 29.9056C24.4207 29.6229 25.0263 29.2239 25.5006 29.126C25.8037 29.0634 26.1169 29.182 26.4253 29.1553C27.029 29.1028 27.4402 28.532 27.7351 28.0004C28.1607 27.2333 28.5758 27.9108 29.2158 28.0767C29.3494 28.1114 29.4889 28.0188 29.5139 27.8909C29.5618 27.6461 29.7975 28.0613 29.8081 28.0902C29.878 28.28 29.7679 28.6853 29.7447 28.8864C29.7146 29.1477 29.6554 29.4403 29.4347 29.5819L29.1083 28.8559C29.0556 28.7388 29.0004 28.6181 28.9048 28.5326C28.6953 28.3452 28.3468 28.3961 28.1372 28.5834C27.9274 28.7706 27.8327 29.0561 27.7894 29.3346C27.725 29.749 27.8646 30.6755 27.5696 30.9916C27.34 31.2376 27.1863 30.5103 27.1231 30.3513C27.0567 30.1845 26.7835 30.0871 26.6892 30.2944C26.6136 30.4604 26.5206 30.622 26.462 30.7953C26.3977 30.9856 26.4213 31.1274 26.1917 31.1401C25.4466 31.1813 24.9571 31.935 25.009 32.6488C25.0216 32.8213 25.0704 33.0018 25.1979 33.118C25.3182 33.2277 25.488 33.262 25.6498 33.2774C26.3257 33.3418 27.1568 33.1634 27.7727 33.5839C28.4473 34.0445 28.3469 34.9603 28.8115 35.5697C28.9527 35.755 29.207 35.8752 29.4226 35.7882C29.583 35.7235 29.6856 35.5613 29.7357 35.3953C29.7858 35.2291 29.7938 35.0536 29.8261 34.8831C29.8357 34.8327 29.8494 34.7792 29.888 34.7456C30.001 34.6467 30.1607 34.8041 30.31 34.8171C30.4493 34.8293 30.5652 34.7089 30.6296 34.5843C30.694 34.4598 30.7328 34.3179 30.8298 34.2169C30.9684 34.0728 31.1853 34.0497 31.3774 33.9957C31.7061 33.9034 31.9038 33.571 31.8266 33.231C31.7891 33.0657 31.6453 32.9608 31.6046 32.8037C31.5565 32.6181 31.6613 32.3819 31.8562 32.3276C32.0273 32.2798 32.3132 32.4655 32.4885 32.4933C32.7066 32.5279 32.9187 32.4219 33.1225 32.4566C33.257 32.4795 33.3671 32.4218 33.4146 32.2901C33.542 31.9365 33.8727 31.3709 33.6525 30.9941C33.5369 30.7963 33.3238 30.7774 33.1493 30.6582C32.8756 30.4712 32.9226 30.1475 32.7641 29.8998C32.5736 29.6021 32.1801 29.4195 31.9268 29.1798C31.6333 28.9019 31.4118 28.4612 31.5905 28.0981C31.6775 27.9216 31.845 27.7959 31.9345 27.6208C32.024 27.4456 31.9771 27.168 31.7831 27.1397C32.01 26.7491 32.2718 26.3788 32.5642 26.0349C32.6361 25.9503 32.7128 25.8651 32.8134 25.8188C32.9212 25.7694 33.0441 25.77 33.1625 25.7715C33.4633 25.7753 33.7641 25.7792 34.0649 25.783C34.1671 25.7843 34.2758 25.7876 34.3608 25.8445C34.5124 25.946 34.52 26.1606 34.5735 26.3354C34.7427 26.889 35.4867 27.2571 35.3612 27.8223C35.296 28.1157 35.0121 28.2977 34.8332 28.5386C34.415 29.1021 34.6144 29.8943 34.8313 30.5625C34.8732 30.6914 34.9236 30.8315 35.0401 30.9002C35.1398 30.9589 35.2637 30.9505 35.376 30.9777C35.6136 31.0354 35.7813 31.246 35.9982 31.3592C36.5098 31.6264 36.6745 31.0657 36.6278 30.6797C36.5762 30.2538 36.5246 29.8278 36.4729 29.4019C36.6693 29.3207 37.0301 28.9778 37.2209 28.9717C37.4498 28.9645 37.5109 29.1946 37.7059 29.2473C37.9192 29.3048 38.0268 29.2079 38.2362 29.1615C38.4964 29.1037 38.543 29.31 38.7358 29.4518C39.0037 29.6487 39.9992 30.4529 39.8745 29.4999C39.8454 29.2777 39.7071 29.0881 39.5852 28.9004C39.4633 28.7126 39.3499 28.4981 39.3797 28.276C39.4138 28.0213 39.6169 27.8394 39.701 27.605C39.7874 27.364 39.7916 27.0892 39.8073 26.8366C39.8298 26.4736 39.9814 25.5731 39.3795 25.5928C39.2027 25.5986 39.0404 25.686 38.8718 25.7401C38.6737 25.8038 38.4635 25.8217 38.2554 25.8206C37.8169 25.8183 37.728 25.7306 37.4096 26.0051C37.2651 26.1297 37.0295 26.0753 36.8934 25.9416C36.7573 25.8078 36.6943 25.6185 36.6299 25.4386C36.4424 24.915 36.0203 24.561 35.9383 23.9767C36.2326 23.9988 36.4788 24.1981 36.7471 24.3215C37.0744 24.472 37.4599 24.5088 37.7979 24.3845C38.4894 24.13 38.2966 23.5254 38.7027 23.0857C38.9541 22.8137 39.3965 22.8761 39.7345 22.7259C40.155 22.5391 40.3582 22.0318 40.331 21.5708C40.3208 21.4 40.2907 21.2314 40.2444 21.0661" fill="white"/>
<path id="Fill 4" fill-rule="evenodd" clip-rule="evenodd" d="M9.11661 33.0646C8.77768 33.0319 8.48297 32.7898 8.44742 32.4346C8.44457 32.4062 8.43798 32.3726 8.42071 32.352C8.1203 31.9927 7.81793 31.6351 7.52933 31.293C7.44238 31.3979 7.34844 31.5112 7.25147 31.6281C7.37437 31.8261 7.53075 32.0152 7.61348 32.2326C7.67223 32.387 7.65758 32.5848 7.62345 32.7525C7.60861 32.8254 7.45164 32.9315 7.37811 32.918C7.16423 32.8791 6.95984 32.7874 6.75563 32.7178C6.61076 32.8153 6.42347 32.8788 6.33937 33.0092C6.02347 33.4992 5.53297 33.6131 5.06906 33.6954C4.89547 34.0049 4.70823 34.2538 4.40604 34.4113C4.23364 34.5012 4.0067 34.5786 3.92474 34.7281C3.80813 34.9408 3.58457 35.1522 3.69792 35.4468C3.7521 35.5876 3.79715 35.7374 3.87946 35.8609C4.00492 36.049 4.13643 36.2452 4.30687 36.388C4.52082 36.5672 4.78319 36.6865 5.0125 36.8491C5.21683 36.994 5.43588 36.972 5.64152 36.9083C5.84407 36.8454 6.02555 36.7168 6.22234 36.6313C6.29605 36.5992 6.38863 36.6144 6.46964 36.5955C6.70168 36.5416 6.94862 36.6193 7.17147 36.435C7.35699 36.2815 7.60126 36.1472 7.83437 36.116C8.22321 36.064 8.5502 35.8837 8.82896 35.6603C9.08047 35.4587 9.25215 35.1475 9.43126 34.8667C9.60438 34.5953 9.77832 34.3136 9.88146 34.0122C9.94283 33.8328 9.9166 33.5871 9.84402 33.4058C9.72028 33.0967 9.38705 33.0907 9.11661 33.0646" fill="white"/>
</g>
</g>
</svg>
