<svg width="44" height="44" viewBox="0 0 44 44" fill="none" xmlns="http://www.w3.org/2000/svg">
<g id="icon_orange_5">
<g id="Group 3">
<mask id="mask0_1585_3328" style="mask-type:luminance" maskUnits="userSpaceOnUse" x="5" y="3" width="35" height="38">
<path id="Clip 2" fill-rule="evenodd" clip-rule="evenodd" d="M5.5 3.66797H39.4167V40.3346H5.5V3.66797Z" fill="white"/>
</mask>
<g mask="url(#mask0_1585_3328)">
<path id="Fill 1" fill-rule="evenodd" clip-rule="evenodd" d="M39.3113 30.1133C39.2307 29.9264 39.1393 29.7935 38.9599 29.8175C38.8753 29.8288 38.8164 30.0102 38.7402 30.1104C38.5769 30.3251 38.5957 30.6637 38.2786 30.7747C37.8098 30.9389 37.3651 31.1296 37.2279 31.6847C37.215 31.7367 37.0766 31.808 37.0222 31.7906C36.7987 31.7188 36.5514 31.6949 36.4195 31.4332C36.3442 31.284 36.2299 31.1102 35.9868 31.1576C35.9475 31.1653 35.8764 31.0333 35.8271 30.961C35.7556 30.856 35.7096 30.7257 35.6188 30.6436C35.4498 30.4906 35.3814 30.2027 35.5269 30.1128C35.6462 30.0389 35.7762 29.9813 35.904 29.9221C36.208 29.7812 36.5403 29.2043 36.4575 28.8762C36.3162 28.3158 36.295 27.7151 35.8601 27.2465C35.7512 27.1293 35.7322 26.8377 35.7948 26.6728C35.9063 26.3796 35.939 26.1021 35.9021 25.7974C35.8757 25.5794 35.8455 25.3443 35.8997 25.1384C35.9683 24.8771 35.8848 24.7636 35.6196 24.6902C35.9375 24.6796 35.9654 24.5297 35.9549 24.267C35.9392 23.8742 35.9855 23.7219 36.2134 23.6657C36.2206 23.5608 36.2447 23.4583 36.2788 23.3578C36.2048 23.317 36.14 23.2589 36.1307 23.2087C36.0253 22.6416 36.5071 22.3961 37.0107 22.3681C37.3445 22.3495 37.6811 22.4052 38.0126 22.3623C38.1158 22.349 37.8293 22.1714 37.8013 22.1561C37.5765 22.0334 37.2538 22.0716 37.0073 22.0552C37.1492 21.8764 37.2419 21.6592 37.2728 21.4332C37.2962 21.2626 37.2854 21.0862 37.3348 20.9213C37.3842 20.7563 37.5187 20.5977 37.6911 20.5961C37.7534 20.5955 37.8148 20.6154 37.8771 20.6115C38.2674 20.5864 37.5738 20.3165 37.5386 20.2509C37.3955 19.9839 37.6995 19.5757 37.5128 19.2363C37.2636 18.7832 36.6222 18.535 36.6114 18.0182C36.6068 17.7974 36.7284 17.5962 36.8458 17.4092C37.1991 16.8463 37.5524 16.2834 37.9057 15.7206C37.8271 15.7003 37.7484 15.68 37.6698 15.6597C38.2389 15.1395 38.4982 14.3415 38.491 13.5711C38.4858 13.0132 38.3525 12.4669 38.1638 11.9445C38.0214 11.5504 38.0016 11.0664 37.8093 10.702C37.5127 10.1402 37.8608 9.37497 37.7802 8.75227C37.7328 8.38666 37.6306 8.02419 37.651 7.65604C37.6708 7.29988 37.8043 6.96093 37.8752 6.61131C37.9462 6.26175 37.9446 5.86767 37.7268 5.58491C37.5876 5.40414 37.3779 5.29245 37.2137 5.13385C36.7978 4.73205 37.3019 4.19635 36.8188 3.83228C36.3228 3.45864 35.8569 3.79795 35.4721 4.1001C35.0927 4.39793 34.4935 4.56851 34.2434 5.00105C34.0268 5.37592 34.1065 5.93348 33.7432 6.16945C33.3595 6.41868 32.9159 6.26261 32.6336 5.93762C32.2693 5.51811 31.972 4.60456 31.264 4.69631C30.8919 4.74452 30.6442 5.12477 30.2826 5.22503C29.9992 5.30363 29.6971 5.19571 29.4417 5.05007C29.1863 4.90437 28.9507 4.71841 28.6736 4.61981C28.3965 4.52128 28.0528 4.53109 27.8481 4.74212C27.6523 4.944 27.6387 5.26504 27.4707 5.49063C27.1944 5.8618 26.5452 5.84674 26.446 5.34042C26.4161 5.18824 26.4508 5.02901 26.4216 4.87664C26.3555 4.53184 25.9533 4.32063 25.6085 4.38916C25.2638 4.45775 24.9939 4.7452 24.8596 5.0697C24.7736 5.27751 24.7312 5.50773 24.5978 5.68894C24.4644 5.87008 24.1895 5.9796 24.0124 5.84069C23.9654 5.30529 23.2911 5.07378 22.7549 5.11996C22.2071 5.16712 21.6986 5.20441 21.163 5.19744C21.116 5.37364 21.1148 5.55546 21.0815 5.73567C21.0455 5.93083 20.957 6.1324 20.783 6.22834C20.4294 6.42301 20.0424 6.18519 19.8535 6.6415C19.5724 7.32056 19.3111 6.91833 18.79 7.17603C18.5329 7.30321 18.5475 7.66426 18.4626 7.938C18.3706 8.23429 18.1244 8.48155 18.1081 8.79135C18.0916 9.10325 18.3122 9.37188 18.5198 9.6055C18.275 9.92221 18.2346 10.3292 17.7861 10.3479C17.3387 10.3665 16.8912 10.3616 16.4435 10.3643C16.3345 10.365 16.2221 10.3649 16.1214 10.3233C15.9413 10.2486 15.8401 10.061 15.7494 9.8885C15.6213 9.64489 15.4812 9.39873 15.2676 9.22494C15.054 9.05115 14.749 8.96323 14.4968 9.07405C14.1913 9.20833 13.8333 10.2825 13.5157 10.0301C13.3073 9.86455 13.073 9.73157 12.824 9.63754C12.71 9.59457 12.5777 9.5608 12.4705 9.61858C12.3997 9.65668 12.3541 9.7278 12.3115 9.79596C12.1421 10.0671 11.9728 10.3383 11.8034 10.6095C11.5017 10.4648 11.2631 10.1155 10.9319 10.1631C10.6137 10.2087 10.4725 10.6083 10.527 10.9246C10.5815 11.2409 10.7592 11.5266 10.8084 11.8438C10.8239 11.9435 10.8162 12.0652 10.7299 12.1174C10.6744 12.151 10.604 12.1436 10.5404 12.1307C10.258 12.0736 9.99429 11.9275 9.79629 11.7184C9.79944 11.9418 9.52406 12.09 9.30906 12.0282C8.86572 11.9008 8.84625 11.305 8.57098 12.0082C8.40952 12.4206 7.8313 12.5564 7.46158 12.5655C7.43537 12.5661 7.40644 12.5678 7.38758 12.586C7.36811 12.6049 7.36601 12.6351 7.36651 12.6622C7.37052 12.8825 7.46745 13.0997 7.62891 13.2499C7.72584 13.3401 7.84409 13.4066 7.93206 13.5055C8.19088 13.7965 8.10594 14.2449 8.00556 14.6209C7.68411 14.3597 7.35995 13.9094 6.92452 13.8324C6.42178 13.7436 6.45942 14.1971 6.50733 14.5217C6.34525 14.5534 6.18101 14.4957 6.01837 14.4671C5.85573 14.4384 5.66311 14.4499 5.56075 14.5794C5.45838 14.7089 5.4951 14.9075 5.5987 15.0361C5.70237 15.1645 5.85654 15.2397 6.00508 15.312C6.21482 15.414 6.42685 15.5205 6.59622 15.6807C6.7656 15.8409 6.88904 16.0652 6.87451 16.2978C7.0366 16.313 7.18199 16.4403 7.21827 16.5989C7.31934 17.0409 6.71726 16.9903 6.75873 17.391C6.77957 17.5909 6.91111 17.7356 6.85863 17.9398C6.81981 18.0909 6.59004 18.1145 6.58967 18.3381C6.58936 18.5321 6.729 18.7014 6.75064 18.8943C6.77821 19.1406 6.57551 19.3387 6.38166 19.4539C6.65427 19.6925 6.82531 20.1388 6.69061 20.4962C6.6131 20.702 6.44354 20.8581 6.27237 20.9964C6.10126 21.1348 5.91897 21.2678 5.79899 21.4521C5.67894 21.6365 5.63474 21.89 5.75565 22.0737C6.00001 22.4451 6.51796 22.0799 6.86617 22.2341C7.2655 22.4109 7.80447 23.1145 8.26388 22.9798C8.37824 22.9462 8.47331 22.8675 8.58087 22.8162C8.77949 22.7214 9.02316 22.7269 9.21733 22.8307C9.37465 22.9148 9.53568 23.1165 9.5957 23.2845C9.63131 23.3841 9.62296 23.5068 9.54711 23.5811C9.29515 23.8269 9.3001 23.6727 9.34986 24.0008C9.36055 24.0715 9.66203 24.6732 9.70314 24.6757C9.45433 24.6605 9.30758 24.6633 9.16515 24.6399C8.98113 24.6097 8.8023 24.5384 8.61796 24.522C8.42281 24.5046 8.20411 24.8088 8.23705 25.0048C8.27377 25.2229 8.34845 25.4506 8.31605 25.6602C8.27705 25.9133 8.1915 26.1888 8.03894 26.388C7.79217 26.7103 7.50244 26.9823 7.51295 27.439C7.51721 27.6253 7.10039 27.9283 6.91049 27.9051C6.46196 27.8502 6.16351 28.1421 5.88448 28.3901C5.55265 28.6851 5.77896 29.2813 6.27837 29.5505C6.59591 29.7216 6.6487 30.0351 6.41115 30.3143C6.17396 30.593 5.94098 30.8752 5.69371 31.1708C5.74774 31.1988 5.79132 31.2214 5.83496 31.2439C6.09211 31.3769 6.33289 31.455 6.37047 31.8559C6.42233 32.4096 6.52557 32.4227 7.09538 32.3154C7.15343 32.3045 7.24918 32.3345 7.28219 32.379C7.39401 32.5296 7.47277 32.7052 7.58842 32.8522C7.69932 32.9932 7.8308 33.2056 7.97026 33.2197C8.3503 33.2583 8.74085 33.2237 9.12392 33.1852C9.24317 33.1733 9.3519 33.0565 9.47337 32.9828C9.47862 33.0286 9.4882 33.112 9.49871 33.2032C9.73101 33.1782 9.8434 33.2499 9.84111 33.5057C9.83975 33.6577 9.89507 33.852 9.99769 33.9549C10.2537 34.2118 10.5513 34.4275 10.8525 34.6765C10.9307 34.5553 10.9767 34.484 11.0413 34.384C11.0968 34.6214 11.1419 34.8216 11.1909 35.0209C11.2453 35.2429 11.1533 35.5029 11.439 35.6587C11.8875 35.903 11.8799 35.9202 11.7944 36.4345C11.7739 36.5573 11.778 36.7267 11.7013 36.7888C11.5261 36.9306 11.2991 37.0062 11.111 37.1348C11.0186 37.198 10.9662 37.3194 10.8957 37.4145C10.9804 37.4717 11.0616 37.535 11.1505 37.5845C11.2729 37.6526 11.3998 37.713 11.5271 37.7717C11.668 37.8365 11.808 37.9355 11.9546 37.9484C12.2096 37.9708 12.4697 37.9249 12.727 37.9318C13.2689 37.9464 13.8399 37.8632 14.2486 38.3654C14.347 38.4863 14.4692 38.6183 14.6082 38.6687C14.8071 38.7408 15.0314 38.7598 15.245 38.7606C15.2908 38.7608 15.3964 38.5662 15.3724 38.4963C15.2986 38.2822 15.1837 38.0802 15.0691 37.8826C14.9189 37.6237 14.7382 37.3814 14.6039 37.1151C14.5604 37.029 14.5805 36.8506 14.6443 36.7843C14.752 36.6723 14.9076 36.5879 15.0826 36.7222C15.2565 36.8556 15.4446 36.9707 15.6239 37.0922C15.8567 36.9276 16.0331 36.7914 15.8793 36.4827C15.7665 36.2564 15.6925 36.0033 15.6452 35.7537C15.5973 35.5019 15.5597 35.233 15.5982 34.984C15.6392 34.7188 15.6379 34.3721 16.0563 34.3485C16.3067 34.3344 16.5557 34.2965 16.8059 34.2746C17.0442 34.2537 17.1943 34.0312 17.1064 33.8211C16.9813 33.522 16.5331 33.275 16.1952 33.239C15.979 33.2159 15.6779 33.1392 15.5897 32.986C15.486 32.8059 15.4653 32.5086 15.6933 32.2939C15.8463 32.1498 15.8829 31.9292 16.1211 31.8138C16.4082 31.6749 16.6269 31.4002 16.8894 31.2029C16.9769 31.1371 17.1491 31.0663 17.2106 31.1068C17.3606 31.2056 17.5067 31.3189 17.4228 31.582C17.3407 31.8392 17.2394 32.158 17.5617 32.369C17.6437 32.4227 17.7517 32.5317 17.8084 32.5105C17.9453 32.4593 18.0734 32.37 18.023 32.1612C18.0048 32.0857 18.0853 31.9494 18.1602 31.8947C18.5175 31.6338 18.7769 31.3257 18.8956 30.8799C18.9537 30.6616 19.1253 30.4519 19.4185 30.4439C19.5321 30.4408 19.6624 30.4408 19.7547 30.3871C19.9503 30.2733 20.1418 30.1418 20.3045 29.9858C20.4208 29.8743 20.4875 29.7112 20.5773 29.5697C20.8898 29.7623 21.5535 29.6892 21.8395 29.3607C21.8322 29.4766 21.8261 29.5727 21.8239 29.6081C22.184 29.9052 22.5029 30.1682 22.8242 30.4333C22.821 30.4681 22.7914 30.5605 22.8087 30.643C22.8819 30.9914 22.8129 31.3202 22.6784 31.636C22.5412 31.9584 22.5927 32.1288 22.8869 32.3194C22.9599 32.3666 23.0237 32.4744 23.035 32.5617C23.0747 32.8663 22.8181 33.2055 22.516 33.314C22.3107 33.3877 22.1076 33.4769 21.9204 33.5876C21.7461 33.6909 21.7214 34.0207 21.7935 34.2159C21.8686 34.4196 22.0535 34.7062 21.7707 34.8405C21.2856 35.071 21.303 35.4615 21.3448 35.8708C21.3612 36.0316 21.4542 36.1846 21.5066 36.3259C21.4759 36.3623 21.4139 36.4318 21.3565 36.5048C21.2749 36.6085 21.2165 36.772 21.1128 36.8078C20.9101 36.8778 20.6836 36.8879 20.4656 36.9038C19.8245 36.9504 19.7571 36.9135 19.6195 36.4867C19.5484 36.2662 19.2181 36.1333 19.0146 36.2466C18.5339 36.5142 18.2397 36.9575 18.1725 37.4645C18.0965 38.0379 18.0541 38.6318 18.366 39.1969C18.5575 39.5439 18.7571 39.8625 19.1251 39.9912C19.2967 40.0513 19.5817 40.0159 19.7171 39.9045C20.0041 39.6686 20.2711 39.5626 20.6181 39.7253C20.8509 39.8345 21.0927 39.9265 21.3185 40.0483C21.8425 40.3307 22.3923 40.4097 22.965 40.261C23.1559 40.2114 23.424 40.1454 23.4944 40.0055C23.695 39.607 24.0032 39.7935 24.2795 39.7786C24.3759 39.7735 24.4777 39.7675 24.566 39.7333C24.8303 39.6312 24.9045 39.3331 25.252 39.2379C25.9008 39.0602 26.5186 39.1642 27.1482 39.1878C27.5234 39.2018 27.911 39.3193 28.05 38.9062C28.1846 38.9595 28.3154 39.0598 28.3948 39.0288C28.4703 38.9993 28.5172 38.8361 28.5319 38.7257C28.5555 38.5478 28.4778 38.325 28.5596 38.1934C28.689 37.9852 28.9155 37.6947 29.0996 37.6958C29.3894 37.6974 29.5611 37.5527 29.7294 37.4152C30.0809 37.1281 30.657 37.1666 30.8373 37.5782C30.9943 37.9367 31.247 37.9009 31.5235 37.8575C31.9987 37.7828 32.4937 38.1911 32.3741 38.6006C32.2978 38.8621 32.451 39.0629 32.5889 39.1081C32.8184 39.1832 32.9868 39.5609 33.3144 39.2899C33.6328 39.0266 34.0292 38.9491 34.4276 38.8921C34.5342 38.8768 34.6664 38.8124 34.7431 38.8531C35.2171 39.1039 35.6817 39.373 36.1427 39.6473C36.3256 39.7562 36.5721 39.6799 36.6512 39.4824C36.8346 39.0243 37.0624 38.5805 37.2044 38.1105C37.2783 37.8662 37.5082 37.6505 37.3776 37.3375C37.3177 37.1937 37.3264 36.9846 37.3848 36.8371C37.4639 36.6373 37.6066 36.4564 37.7473 36.2886C37.9859 36.0038 38.0655 35.6412 37.9432 35.3875C38.0189 35.3418 38.1459 35.3063 38.1531 35.2542C38.2026 34.8969 38.2621 34.5351 38.2504 34.1769C38.2362 33.7414 38.3509 33.3393 38.5358 32.9716C38.7759 32.4941 39.118 32.0733 39.2496 31.5347C39.3654 31.0606 39.5256 30.6101 39.3113 30.1133" fill="white"/>
</g>
</g>
</g>
</svg>
