<svg width="44" height="44" viewBox="0 0 44 44" fill="none" xmlns="http://www.w3.org/2000/svg">
<g id="icon_orange_5">
<g id="Group 12">
<path id="Fill 3" fill-rule="evenodd" clip-rule="evenodd" d="M21.8197 24.265V24.265C21.9252 24.1869 22.0306 24.1088 22.136 24.0307L21.8197 24.265ZM22.6134 35.0463C22.6843 34.9787 22.7528 34.9086 22.8159 34.8318C22.8267 34.8154 22.8375 34.799 22.8484 34.7826C22.8646 34.7717 22.8808 34.7606 22.8971 34.7497C22.9522 34.6939 23.0074 34.6381 23.0625 34.5823C23.0701 34.5707 23.0777 34.5592 23.0854 34.5476C23.0777 34.5592 23.0701 34.5707 23.0625 34.5823C22.9052 34.8207 22.6233 35.0413 22.4064 35.2373C22.4759 35.1735 22.5457 35.1109 22.6134 35.0463V35.0463ZM23.1963 34.5684C23.1623 34.5692 23.1284 34.5699 23.0944 34.5706V34.5706C23.1284 34.5699 23.1623 34.5692 23.1963 34.5684V34.5684ZM18.9054 32.4185V32.4185C18.9211 32.3857 18.937 32.3529 18.9528 32.3201H18.9529C18.937 32.3529 18.9213 32.3857 18.9054 32.4185V32.4185ZM40.316 19.8778C40.308 19.8375 40.2967 19.799 40.2827 19.7619C40.1832 19.4988 39.9438 19.3121 39.7164 19.1396C39.7283 19.1199 39.739 19.0992 39.7477 19.0771C39.8214 18.8891 39.7399 18.668 39.6005 18.5231C39.461 18.3783 39.2733 18.2934 39.0904 18.2119C38.8188 18.0908 38.5449 17.9692 38.2678 17.8578C37.9741 17.5676 37.6803 17.2774 37.3865 16.9872C37.2918 16.8936 37.1952 16.7986 37.0777 16.7369C36.4223 16.3925 35.9204 16.6415 35.4662 15.9034C35.3486 15.7124 35.2603 15.4775 35.2726 15.249C35.2836 15.0432 35.4624 14.8596 35.4148 14.6501C35.381 14.5013 35.2371 14.4099 35.1058 14.3348C34.7308 14.1206 34.3415 13.9017 33.9128 13.8602C33.5897 13.8289 33.244 13.9224 33.0053 14.1512C32.7518 14.3939 32.6907 14.8574 32.2605 14.8819C32.1547 14.888 32.049 14.8543 31.9437 14.8653C31.7061 14.8903 31.5537 15.1215 31.4054 15.3109C31.2478 15.5123 31.053 15.6926 30.8156 15.7834C29.9837 16.1013 29.251 15.0239 28.448 14.9753C27.9878 14.9475 27.5545 15.1718 27.1082 15.2891C27.0005 15.3173 26.8845 15.339 26.7801 15.3003C26.6996 15.2704 26.6358 15.2079 26.5746 15.1472C26.1677 14.7435 25.3678 14.2192 25.3578 13.5728C25.3549 13.3898 25.4224 13.2142 25.4559 13.0344C25.5007 12.7931 25.4208 12.2975 25.1058 12.4359C24.9228 12.5163 24.8357 13.0339 24.8094 13.2106C24.7737 13.4511 24.6435 13.7187 24.4058 13.7537C24.1807 13.7869 23.983 13.5944 23.7574 13.565C23.5537 13.5385 23.3565 13.6484 23.1972 13.7796C23.0379 13.9107 22.8968 14.0682 22.7159 14.1665C22.1336 14.4825 21.8608 14.0707 21.4519 13.7685C21.3478 13.6916 21.1919 13.6607 21.0948 13.7465C21.2172 13.6395 21.0886 13.4252 20.9325 13.3821C20.7764 13.3391 20.6055 13.3811 20.4516 13.3307C20.3328 13.2918 20.2377 13.2022 20.1275 13.1427C19.683 12.9026 19.1616 13.3226 18.7187 13.4175C18.2031 13.528 17.6581 13.4917 17.3004 13.0514C17.169 12.8896 17.1586 12.656 17.21 12.4531C17.2613 12.2502 17.3657 12.0659 17.446 11.8729C17.6019 11.4987 17.6672 11.0862 17.6349 10.6814C17.624 10.5448 17.5964 10.3976 17.4958 10.3057C17.4277 10.2434 17.3361 10.2161 17.2546 10.1731C16.9876 10.0323 16.964 9.78001 16.7844 9.57891C16.5837 9.3543 16.5433 9.41778 16.2559 9.2974C16.1168 9.23915 16.0857 9.05965 16.0493 8.91184C15.7572 7.72431 14.6453 8.04941 13.7891 7.83696C13.4122 7.74347 13.2731 7.51267 12.9863 7.31664C12.6449 7.08332 12.3164 7.20963 11.9281 7.12774C11.876 7.11676 11.8226 7.09907 11.7855 7.06036C11.707 6.97828 11.7332 6.84594 11.747 6.73261C11.7618 6.61178 11.753 6.47976 11.6795 6.38339C11.5507 6.21465 11.1989 6.30415 11.0068 6.16027C10.932 6.10428 10.6205 5.50115 10.6409 5.5C10.3986 5.5136 10.1997 5.70549 10.0779 5.91785C9.95605 6.13014 9.88832 6.37041 9.76917 6.58427C9.60461 6.87963 9.26947 7.04457 9.04578 7.2641C8.92318 7.38443 8.75458 7.27549 8.61598 7.31685C8.43616 7.37048 8.30011 7.4763 8.13678 7.57182C7.93458 7.69006 7.62898 7.73557 7.50684 7.53417C7.08011 8.14459 6.98227 8.99853 6.39163 9.44779C6.21893 9.57916 6.00695 9.67266 5.89221 9.8579C5.76424 10.0645 5.7914 10.3273 5.77374 10.5705C5.72472 11.2439 5.31945 11.8022 5.0251 12.3842C4.67739 13.0718 4.62014 13.7511 4.54798 14.5097C4.52815 14.5247 4.4833 14.5447 4.45894 14.5794C4.22471 14.9135 3.92605 15.2148 4.00648 15.6625C4.01406 15.7045 4.02559 15.7478 4.05392 15.7796C4.08793 15.8176 4.13987 15.8324 4.18892 15.8455C4.37299 15.8946 4.55704 15.9438 4.74111 15.9929C4.7758 16.0021 4.81328 16.0133 4.83415 16.0427C4.85536 16.0727 4.85333 16.1131 4.84797 16.1496C4.8204 16.3376 4.73418 16.5472 4.84183 16.7029C4.9009 16.7883 5.0034 16.8293 5.09996 16.8656C5.12826 16.8763 5.15677 16.887 5.18547 16.8971C5.17046 16.9461 5.15582 16.9953 5.14194 17.0447C5.11075 17.0334 5.07079 17.0227 5.0174 17.0026C5.05057 17.0717 5.08004 17.1293 5.10594 17.1819C5.05603 17.387 5.02535 17.5952 5.04221 17.8048C5.07119 18.1653 5.2339 18.4855 5.44964 18.7784C5.43814 18.7893 5.42636 18.8001 5.41416 18.8107C5.45198 18.8453 5.48629 18.864 5.51857 18.869C5.63381 19.0155 5.76067 19.1553 5.88851 19.29C5.20323 19.9737 4.45651 20.7901 4.42395 21.5208C4.40558 21.9338 4.52217 22.2255 4.24953 22.5674C4.06496 22.7988 3.66089 22.9159 3.66681 23.2705C3.67088 23.514 3.9012 23.6785 4.05284 23.8676C4.29574 24.1704 4.35068 24.5844 4.34805 24.9745C4.3434 25.6714 4.17853 26.6587 4.97294 26.9927C5.54179 27.2319 5.78175 27.617 6.17071 28.1072C6.17028 28.1067 6.16991 28.1061 6.16954 28.1056C6.12259 28.0372 6.37923 27.9739 6.41407 27.9751C6.37698 28.0899 6.33681 28.2267 6.33361 28.3542L6.66773 28.2915C6.55681 28.4791 6.5687 28.7335 6.69661 28.9098C6.62225 28.8073 6.32858 28.727 6.21658 28.669C6.43284 28.9462 6.60684 29.2704 6.84234 29.531C7.15435 29.8762 7.49149 30.2012 7.85652 30.4888C7.91423 30.5342 7.97367 30.5817 8.00786 30.6472C8.05404 30.7356 8.04676 30.8416 8.0397 30.9414C8.01831 31.2441 7.94081 31.6696 8.01766 31.9649C8.03681 32.0385 8.31368 32.5456 8.34971 32.5132C8.44627 32.4262 8.53132 32.3519 8.61391 32.2748C8.78374 32.1163 8.79709 32.1121 8.97084 32.255C9.45854 32.6561 10.1293 32.3236 10.4228 31.8392C10.6861 31.4044 10.7045 30.859 10.6925 30.3627C10.6918 30.3324 10.6931 30.3008 10.7072 30.2742C10.7593 30.1761 10.9098 30.2318 10.9874 30.3106C11.1186 30.4435 11.2127 30.6135 11.2564 30.7961C11.382 31.3212 11.4441 31.1244 11.8246 31.3078C11.963 31.3745 12.0907 31.4752 12.2428 31.4948C12.5526 31.5348 12.8119 31.1902 12.7835 30.8753C12.7393 30.3871 11.683 29.8278 12.6376 29.5599C12.8143 29.5103 13.0366 29.6333 13.062 29.8C13.0915 29.5492 13.2302 29.3166 13.4087 29.137C13.6086 28.9358 13.856 28.791 14.1004 28.6485C13.7898 29.1157 13.6562 29.7003 13.7325 30.2581C13.7583 30.4468 13.8068 30.6414 13.7541 30.8243C13.7127 30.9684 13.6093 31.1098 13.6517 31.2538C13.6699 31.3158 13.7133 31.3664 13.7448 31.4227C13.9571 31.802 13.4725 32.1137 13.7217 32.5083C13.8599 32.7269 14.1043 32.8639 14.3577 32.9036C14.6215 32.9449 14.9323 32.9051 15.1148 33.1022C15.1889 33.1822 15.2269 33.2892 15.2897 33.3786C15.6082 33.8323 16.5855 33.7671 17.0736 33.8306C17.1431 33.8396 17.2188 33.8473 17.2782 33.8098C17.4181 33.7216 17.3394 33.5091 17.3128 33.3445C17.2318 32.8441 17.8734 32.4727 18.3481 32.6351C18.8396 32.8034 18.7017 33.4923 19.264 33.4541C19.2996 33.4517 19.337 33.4639 19.3712 33.4569C19.4034 33.4504 19.4484 33.4352 19.4599 33.4105C19.5148 33.2923 19.6031 33.1787 19.5426 33.0345C19.556 33.0185 19.5693 33.0024 19.5823 32.986C19.5806 32.9881 19.5788 32.9902 19.577 32.9924C19.5788 32.9903 19.5806 32.9881 19.5823 32.986C19.7911 32.7303 19.8711 32.3935 20.0257 32.1013C20.5174 32.3646 20.8012 32.9746 20.6885 33.5259C20.6797 33.569 20.6675 33.6139 20.637 33.6452C20.6095 33.6733 20.571 33.6866 20.534 33.6991C20.3505 33.7607 20.1671 33.8223 19.9836 33.884C20.2505 34.1281 20.5656 34.3165 20.8443 34.5324C20.8828 34.4642 20.8801 34.3237 20.7671 34.3181C21.0319 34.3312 21.1877 34.0287 21.2755 33.7756C21.4879 34.28 21.9047 34.6926 22.4078 34.8965C22.2971 34.9472 22.1708 34.9472 22.0532 34.9782C21.8353 35.0356 21.6612 35.3413 21.9624 35.4394C22.0564 35.47 22.1583 35.4513 22.2553 35.4324C22.4367 35.397 22.6182 35.3616 22.7996 35.3262C22.8991 35.3068 23.007 35.2825 23.0709 35.203C23.1298 35.1297 23.1361 35.0283 23.1483 34.9346C23.1847 34.6555 23.2976 34.3869 23.471 34.1668C23.49 34.1426 23.5109 34.1161 23.5103 34.0852C23.5097 34.0456 23.4745 34.016 23.4404 33.9965C23.2441 33.8842 22.9908 33.918 22.7942 34.0298C22.5977 34.1417 22.4478 34.3207 22.3123 34.503C22.6023 33.8995 22.485 33.1814 22.5762 32.5358C22.616 32.2542 22.6553 31.9635 22.5836 31.6884C22.5293 31.4805 22.4128 31.2873 22.4021 31.0725C22.4061 31.1523 23.322 31.0929 23.412 31.0707C23.8202 30.9705 23.9539 30.7203 24.2226 30.4216C24.158 30.3718 24.1046 30.3317 24.0524 30.2901C23.7091 30.0173 23.6026 29.5136 23.4364 29.1239C23.1441 29.5491 22.5901 29.6778 22.0883 29.7803C22.0146 29.7953 21.9384 29.8117 21.878 29.857C21.727 29.9703 21.7416 30.2 21.6661 30.3743C21.5679 30.6011 21.324 30.7187 21.0995 30.8173C20.9949 30.8632 20.9002 30.9109 20.7892 30.9321C20.6883 30.5815 21.0017 29.9104 21.1128 29.5452C21.1264 29.4994 21.2007 29.4464 21.2509 29.4419C21.5349 29.4164 21.8541 29.474 22.1276 29.3746C22.4161 29.2698 22.5569 29.0056 22.8376 28.8925C23.4591 28.6419 23.6938 28.7304 23.2611 28.0748C23.4066 28.0897 23.552 28.1046 23.6975 28.1195C23.7382 28.1236 23.7851 28.1257 23.8136 28.096C23.8457 28.0627 23.8375 28.0069 23.8597 27.9663C23.9188 27.858 24.284 28.0287 24.3951 28.0244C24.6726 28.0137 24.9076 27.839 25.0618 27.6183C25.079 27.9304 25.3405 28.0804 25.4946 28.3229C25.6867 28.6253 25.762 28.9745 25.8778 29.3165C25.9026 29.3889 27.2114 28.9011 26.8724 28.2698C26.8135 28.1602 26.713 28.0796 26.6444 27.9758C26.578 27.8753 26.544 27.757 26.511 27.6408C26.3243 26.9836 26.238 26.2562 25.6584 25.8236C25.8987 25.6044 26.1963 25.3125 26.5024 25.212C26.505 25.5975 26.376 25.9952 26.6072 26.3542C26.7487 26.5739 26.986 26.7073 27.2139 26.8321C27.5582 27.0206 27.9024 27.2091 28.2466 27.3976C28.2546 27.402 28.5983 26.7182 28.612 26.6911C28.5985 26.7177 28.855 27.3124 28.8736 27.3568C29.4057 28.6279 30.072 28.0771 30.9912 27.6102C30.9861 27.7871 30.9809 27.964 30.9758 28.1409C30.9717 28.2828 30.9736 28.4415 31.0712 28.5435C31.2892 28.7714 31.4558 28.3806 31.6043 28.301C31.9012 28.1418 32.0625 28.2125 32.3843 28.2506C31.9436 28.1985 32.5421 27.3925 32.6281 27.3151C32.8374 27.1266 33.0969 27.4474 33.1615 27.0056C33.1805 26.8761 33.1709 26.7387 33.226 26.6203C33.3504 26.3531 33.7065 26.3299 33.9775 26.2204C34.4549 26.0276 34.4029 25.4397 34.7616 25.2567C34.968 25.1513 35.2151 25.1308 35.4357 25.2005C35.4641 25.2095 35.495 25.22 35.5229 25.2093C35.5539 25.1974 35.5702 25.1638 35.5836 25.1331C35.9955 24.1874 36.5213 22.6773 37.8381 23.0104C37.9001 23.0287 37.9708 23.0536 38.0255 23.0187C38.0559 22.9993 38.0736 22.9652 38.0885 22.932C38.2284 22.621 38.2416 22.2648 38.3726 21.9498C38.6669 21.2423 39.2359 21.5505 39.8075 21.4836C39.8555 21.478 39.9061 21.4714 39.9446 21.4417C39.9861 21.4098 40.0057 21.3572 40.0227 21.3073C40.1578 20.9102 40.4002 20.2998 40.316 19.8778V19.8778Z" fill="#D8DADD"/>
<path id="Fill 6" fill-rule="evenodd" clip-rule="evenodd" d="M29.5949 34.4038C29.6719 34.2655 29.7429 34.1237 29.8167 33.9836C29.8092 33.9721 29.8016 33.9606 29.794 33.9492C29.4446 34.0988 29.0952 34.2485 28.7458 34.3982C28.7362 34.3866 28.7265 34.3751 28.7168 34.3635C28.7835 34.192 28.8316 34.0098 28.9204 33.851C29.1582 33.426 29.2224 32.9589 29.2746 32.4875C29.286 32.3848 29.2723 32.2847 29.1768 32.2091C29.0854 32.1369 28.9977 32.0553 28.9261 31.9637C28.8453 31.8604 28.7358 31.773 28.7798 31.6004C28.8346 31.3861 28.8627 31.1631 28.8837 30.9421C28.8999 30.7708 28.9837 30.6854 29.1412 30.6503C29.1938 30.6386 29.2426 30.6093 29.3013 30.5845C29.2365 30.4055 29.1809 30.2387 29.1134 30.0771C29.1005 30.0461 29.0413 30.0183 29.0028 30.0175C28.8344 30.0138 28.6653 30.0148 28.4976 30.0285C28.4661 30.0311 28.417 30.0987 28.4152 30.1381C28.4054 30.3508 28.4065 30.5641 28.407 30.7772C28.4074 30.9037 28.3652 30.9985 28.2401 31.0433C28.0148 31.1241 27.889 31.2898 27.8255 31.5195C27.7828 31.674 27.7157 31.8214 27.6648 31.9737C27.6278 32.0844 27.5825 32.1247 27.4531 32.0815C27.1678 31.9862 26.8742 31.9162 26.5755 31.8336C26.5597 31.9327 26.535 32.0183 26.5347 32.1039C26.5341 32.2733 26.4952 32.4697 26.5649 32.6066C26.7211 32.9138 26.9214 33.2012 27.1294 33.4768C27.2272 33.6065 27.2437 33.726 27.2286 33.8784C26.9108 33.9147 26.6195 33.852 26.3562 33.6915C26.2122 33.6038 26.0986 33.5838 25.9466 33.678C25.8684 33.7264 25.7333 33.735 25.645 33.7027C25.3584 33.5978 25.0837 33.4603 24.7994 33.3483C24.7405 33.325 24.6447 33.3331 24.5926 33.3678C24.3123 33.5542 24.0772 33.7763 23.9282 34.0991C23.781 34.4183 23.5836 34.712 23.7243 35.0865C23.7384 35.1242 23.7378 35.1742 23.7627 35.2C24.0389 35.4856 24.3184 35.7679 24.5981 36.05C24.6293 36.0814 24.6669 36.1064 24.715 36.1452C24.7763 36.058 24.8224 35.9764 24.884 35.9095C24.9369 35.8521 25.0009 35.7931 25.0717 35.7672C25.2535 35.7005 25.445 35.6604 25.6259 35.5916C25.699 35.5638 25.7678 35.4987 25.8155 35.4333C25.9104 35.3029 25.9893 35.1605 26.0841 35.0083C26.1622 35.1204 26.225 35.2021 26.279 35.2895C26.3743 35.4441 26.5278 35.5812 26.45 35.7949C26.4297 35.8507 26.3933 35.9003 26.3718 35.9557C26.28 36.1922 26.1807 36.4264 26.1051 36.6682C26.0614 36.8076 25.9861 36.8685 25.8495 36.893C25.6407 36.9304 25.4348 36.9845 25.2176 37.0337C25.3614 37.3081 25.501 37.5266 25.8496 37.4938C26.0623 37.4738 26.2815 37.5248 26.5053 37.5446C26.3339 37.8 26.1792 38.0305 26.0054 38.2895C26.0569 38.3285 26.1108 38.3555 26.1446 38.3986C26.1876 38.4535 26.2376 38.5193 26.2436 38.5843C26.2591 38.7525 26.2462 38.9232 26.2575 39.092C26.2611 39.1464 26.2914 39.2263 26.3323 39.2459C26.4696 39.3118 26.6172 39.3558 26.7796 39.415C26.835 39.233 26.8861 39.0659 26.9366 38.8987C26.9916 38.7164 27.0365 38.5535 27.2766 38.5037C27.544 38.4484 27.797 38.3221 28.0868 38.2155C27.8928 38.1486 27.7128 38.1165 27.6935 37.8883C27.6831 37.7651 27.6476 37.6438 27.62 37.5225C27.5992 37.4314 27.6258 37.3726 27.7167 37.343C27.8337 37.3048 27.9546 37.273 28.0631 37.2171C28.1129 37.1914 28.1647 37.1164 28.1678 37.061C28.1789 36.8643 28.1694 36.6664 28.1677 36.469C28.1656 36.2263 28.1656 36.2263 28.3972 36.2329C28.4023 36.2331 28.4075 36.2331 28.4126 36.2331C28.7621 36.2302 29.0915 36.2877 29.37 36.5284C29.4637 36.6094 29.5766 36.6675 29.6808 36.736C29.6818 36.6599 29.6575 36.6062 29.6273 36.5561C29.4439 36.2515 29.2655 35.9434 29.0716 35.6457C28.9969 35.5309 29.0057 35.4426 29.0689 35.3337C29.2476 35.0257 29.4216 34.7149 29.5949 34.4038" fill="#D8DADD"/>
<path id="Fill 8" fill-rule="evenodd" clip-rule="evenodd" d="M13.6824 36.1122C13.5944 36.0331 13.4875 35.9595 13.3765 35.9265C13.2262 35.8817 13.064 35.8767 12.9065 35.8575C12.7981 35.8444 12.7048 35.8548 12.6102 35.9385C12.5539 35.9884 12.4967 36.0372 12.4389 36.0853C12.4312 36.0856 12.4234 36.0858 12.4157 36.0862C12.1823 36.0963 11.9379 36.1292 11.7232 36.0359C11.5769 35.9723 11.4601 35.856 11.3498 35.7397C10.9351 35.3027 10.5328 34.7255 10.6842 34.1394C10.6958 34.0941 10.7107 34.0487 10.7274 34.0033C10.7509 33.9681 10.7727 33.9289 10.7925 33.8848C10.8367 33.7865 10.8686 33.6917 10.8889 33.5986C10.9479 33.4275 10.9746 33.2601 10.8936 33.1016C10.8856 33.0858 10.8766 33.0711 10.8672 33.057C10.8511 33.0036 10.8314 32.9497 10.807 32.8948C10.7638 32.7977 10.7168 32.7693 10.6292 32.769C10.3677 32.7681 10.1061 32.7718 9.8447 32.7657C9.7249 32.7629 9.66254 32.8225 9.60066 32.9173C9.55362 32.9894 9.49924 33.0631 9.43567 33.1216C9.31208 33.1894 9.19629 33.2697 9.09462 33.3681C8.88181 33.574 8.73898 33.8714 8.76876 34.1658C8.7654 34.1736 8.76174 34.1812 8.75819 34.1888L8.65994 34.0315C8.69265 34.0925 8.72052 34.1547 8.74493 34.2178C8.72539 34.2567 8.70316 34.2934 8.67665 34.3266C8.41856 34.6498 8.37015 35.0113 8.40413 35.4019C8.40992 35.4684 8.40018 35.5421 8.42558 35.6C8.49982 35.7692 8.5788 35.9378 8.67301 36.0962C8.70631 36.1521 8.73861 36.2082 8.7691 36.2648C8.75807 36.3681 8.74848 36.471 8.74197 36.5729C8.71876 36.9367 8.74789 37.3344 8.98435 37.6094C8.99026 37.6163 8.99646 37.6228 9.00257 37.6294C9.13386 37.9597 9.27355 38.2867 9.41745 38.6115C9.43777 38.6575 9.50232 38.6978 9.55417 38.7124C9.72956 38.7617 9.90836 38.7984 10.086 38.8395C10.2293 38.8726 10.5977 38.7185 10.6682 38.5939C10.68 38.5732 10.6843 38.5448 10.6832 38.5204C10.6709 38.2314 10.6593 37.9423 10.6418 37.6536C10.6366 37.5687 10.6606 37.5327 10.7478 37.5266C11.0409 37.5059 11.3336 37.4785 11.6266 37.4559C11.6479 37.4542 11.6705 37.4701 11.7062 37.4826C11.6413 37.6187 11.5748 37.7409 11.5249 37.8696C11.498 37.9387 11.4785 38.0232 11.4921 38.0936C11.544 38.3628 11.6093 38.6294 11.6735 38.8961C11.6825 38.9333 11.7053 38.9847 11.7347 38.9965C11.8672 39.0498 12.0032 39.1258 12.1402 39.1308C12.6019 39.1475 13.0647 39.1361 13.527 39.1386C13.6178 39.1391 13.6576 39.1081 13.6549 39.0119C13.6506 38.8614 13.6627 38.7102 13.6529 38.5603C13.6494 38.506 13.6028 38.4546 13.5759 38.4019C13.6542 38.4581 13.7299 38.4587 13.7947 38.3828C13.9674 38.1803 14.1437 37.9778 13.9912 37.6811C13.9845 37.6681 13.9886 37.6497 13.9836 37.6353C13.8882 37.3631 13.8716 37.1157 14.0949 36.8777C14.225 36.7391 14.1913 36.6424 14.0676 36.5142C13.9386 36.3806 13.8199 36.2359 13.6824 36.1122" fill="#D8DADD"/>
<path id="Fill 10" fill-rule="evenodd" clip-rule="evenodd" d="M14.6059 35.5415C14.4344 35.4225 14.2607 35.3065 14.0936 35.1814C14.0562 35.1533 14.0184 35.0907 14.0219 35.0474C14.0365 34.8672 14.0557 34.6858 14.0953 34.51C14.1211 34.3952 14.0811 34.3445 13.9876 34.3084C13.8155 34.2418 13.6437 34.1745 13.465 34.1049C13.3792 34.3107 13.3016 34.4968 13.224 34.683C13.2079 34.6809 13.1917 34.6789 13.1755 34.6769C13.0938 34.2342 13.0121 33.7916 12.9207 33.2969C12.7963 33.4348 12.6915 33.5309 12.6127 33.6453C12.5609 33.7205 12.5637 33.8341 12.5122 33.9097C12.3493 34.149 12.1778 34.383 11.9983 34.6098C11.9133 34.7173 11.8979 34.8087 11.9623 34.9317C12.0365 35.0734 12.0902 35.2259 12.1549 35.3728C12.1662 35.3983 12.1834 35.4266 12.2058 35.4409C12.3629 35.5408 12.6471 35.602 12.8206 35.4499C12.897 35.3829 12.9995 35.3472 13.0809 35.285C13.226 35.1741 13.3318 35.2342 13.4606 35.3283C13.6154 35.4414 13.7862 35.5439 13.9652 35.6083C14.1748 35.6836 14.4005 35.7129 14.635 35.7657C14.7289 35.6342 14.7277 35.6259 14.6059 35.5415" fill="#D8DADD"/>
</g>
</g>
</svg>
