<svg width="44" height="44" viewBox="0 0 44 44" fill="none" xmlns="http://www.w3.org/2000/svg">
<g id="icon_orange_5">
<g id="Group 3">
<path id="Fill 1" fill-rule="evenodd" clip-rule="evenodd" d="M23.0833 9.96426C23.8268 9.96426 24.5704 9.95791 25.3138 9.96756C25.5955 9.9712 25.8741 10.005 26.0346 10.3065C26.0754 10.383 26.18 10.4593 26.2646 10.4718C26.7772 10.5475 27.3013 10.5516 27.7666 10.3136C27.9516 10.2189 28.054 9.94403 28.1729 9.73867C28.2295 9.64105 28.2608 9.51461 28.2623 9.40076C28.2746 8.46688 28.9701 8.21318 29.6592 7.94983C29.9065 7.85527 30.1388 7.77341 30.3949 7.96654C30.6491 8.15802 30.716 8.29563 30.5596 8.57567C30.5009 8.68082 30.402 8.77374 30.3015 8.84219C29.946 9.08355 29.849 9.50461 30.1231 9.83512C30.2209 9.95274 30.4097 10.0355 30.566 10.0534C31.0941 10.114 31.627 10.1301 32.1566 10.1791C32.6358 10.2236 32.8259 10.5636 32.5693 10.9788C32.3261 11.372 32.0239 11.7295 31.732 12.0896C31.5983 12.2546 31.4084 12.3778 31.4658 12.6353C31.4734 12.6698 31.4653 12.723 31.4428 12.747C31.153 13.0565 31.3678 13.2757 31.5925 13.4521C31.8884 13.6844 32.077 13.955 32.1695 14.3299C32.2067 14.4811 32.3986 14.6562 32.5538 14.7008C32.8114 14.7748 33.0981 14.753 33.296 14.5058C33.3502 14.4381 33.3899 14.3578 33.4317 14.2808C33.7638 13.6697 34.1789 13.4891 34.8506 13.6591C34.9815 13.6923 35.1163 13.7145 35.2506 13.729C35.5318 13.7593 35.7803 13.6998 35.9995 13.4938C36.0868 13.4117 36.2369 13.3652 36.36 13.3617C36.6102 13.3548 36.6689 13.4595 36.5813 13.6934C36.5608 13.748 36.5369 13.8021 36.507 13.8519C36.3577 14.1012 36.4161 14.2993 36.6117 14.5059C36.8969 14.8071 37.1541 15.1354 37.4224 15.453C37.4411 15.475 37.454 15.5024 37.4668 15.5287C37.674 15.9549 37.6229 16.0864 37.169 16.1675C36.7704 16.2388 36.3658 16.2899 35.9618 16.313C35.6892 16.3285 35.4949 16.4047 35.4044 16.6806C35.3405 16.8751 35.2291 17.0121 35.0088 17.0567C34.7146 17.1163 34.5931 17.3327 34.6175 17.6211C34.6477 17.9801 34.7154 18.3362 34.7359 18.6955C34.7545 19.0207 34.7466 19.3495 34.7224 19.6746C34.6973 20.0129 34.623 20.3476 34.6009 20.686C34.5892 20.8663 34.5283 20.9568 34.3583 20.9867C34.0822 21.0356 33.8031 21.074 33.5326 21.1451C33.3506 21.1928 33.174 21.2764 33.0101 21.3709C32.9544 21.403 32.9009 21.5338 32.9218 21.5917C33.0678 21.996 32.8368 22.2456 32.5524 22.418C32.2827 22.5815 32.3069 22.7087 32.4387 22.9526C32.5596 23.1765 32.6203 23.4447 32.6535 23.7005C32.6671 23.8056 32.5678 23.9779 32.4708 24.0361C32.0432 24.2928 31.9864 24.7129 31.939 25.1451C31.9017 25.4854 31.8585 25.825 31.8302 26.1659C31.8111 26.3975 31.701 26.5397 31.493 26.6332C31.4068 26.672 31.2846 26.7719 31.2882 26.8377C31.2933 26.9324 31.3793 27.0694 31.4646 27.1044C31.7976 27.2412 31.8956 27.4924 31.8931 27.8264C31.8923 27.929 31.9344 28.0365 31.975 28.1341C32.1367 28.5231 32.0449 28.7474 31.6587 28.8857C31.1928 29.0526 30.7766 29.624 30.7618 30.1275C30.7596 30.2026 30.7832 30.2814 30.808 30.354C30.8362 30.4367 30.9017 30.5114 30.9121 30.5945C30.9865 31.1887 31.0885 31.7742 31.3259 32.3294C31.3518 32.3901 31.3159 32.4821 31.298 32.557C31.2351 32.8191 31.1483 33.0772 31.1082 33.3427C31.0756 33.5584 31.0021 33.6848 30.7724 33.7015C30.6188 33.7127 30.4679 33.7557 30.315 33.7797C30.0022 33.8289 29.8466 33.9979 29.8234 34.3303C29.8162 34.4341 29.674 34.5973 29.5743 34.6138C29.139 34.6854 28.8791 34.9149 28.7736 35.3456C28.7141 35.589 28.5737 35.7346 28.2941 35.6999C28.0667 35.6716 27.9097 35.7958 27.8001 35.9913C27.6967 36.1758 27.6101 36.5689 27.6267 36.8047C27.6509 37.1475 27.5024 37.4299 27.1804 37.4981C26.5812 37.6251 25.9613 37.8282 25.389 37.417C25.2619 37.3258 25.145 37.1665 25.1049 37.0163C25.0312 36.74 24.8751 36.6081 24.6112 36.5516C24.2242 36.4687 23.8401 36.3715 23.4567 36.2729C23.3356 36.2418 23.2157 36.1965 23.1038 36.1404C22.7703 35.9731 22.7435 35.864 22.8281 35.508C22.8537 35.3999 22.7684 35.2526 22.7049 35.1401C22.6722 35.082 22.5791 35.0522 22.5078 35.0239C22.0517 34.8429 21.8167 34.5414 21.943 34.0215C21.9651 33.9309 21.9473 33.8255 21.9294 33.7304C21.8764 33.448 21.6624 33.3245 21.4167 33.4671C21.2309 33.5748 21.0812 33.5566 20.8998 33.4803C20.7382 33.4124 20.6866 33.3129 20.7535 33.1613C20.8835 32.8673 20.8103 32.5938 20.7116 32.3097C20.5698 31.9013 20.5732 31.4838 20.7068 31.0712C20.8836 30.5249 20.8278 30.3739 20.3426 30.1001C20.1147 29.9715 19.8902 29.8372 19.6613 29.7104C19.4785 29.6091 19.3063 29.5939 19.1229 29.7386C19.0308 29.8113 18.8949 29.8363 18.7743 29.8604C18.6715 29.8811 18.5619 29.8648 18.4559 29.8734C18.1859 29.8954 17.8583 29.8873 17.7681 30.1944C17.6761 30.5073 17.7566 30.8344 18.0173 31.0779C18.0451 31.1039 18.0917 31.1289 18.0957 31.159C18.1519 31.5722 18.227 31.9855 18.239 32.4004C18.2426 32.525 18.0888 32.6855 17.9678 32.7756C17.7324 32.951 17.6178 33.1649 17.6543 33.4532C17.6826 33.676 17.7199 33.899 17.7736 34.1167C17.7982 34.2164 17.8501 34.3546 17.9269 34.3883C18.3318 34.5651 18.1647 34.8371 18.0686 35.1027C18.0388 35.1853 17.9982 35.2653 17.9796 35.3504C17.9112 35.6645 17.7498 35.8149 17.4054 35.8423C16.8809 35.884 16.2548 36.6405 16.2423 37.1775C16.2366 37.422 16.27 37.6716 16.2306 37.9095C16.2074 38.0486 16.0783 38.1713 15.9903 38.2968C15.9705 38.325 15.9247 38.3372 15.8887 38.3508C15.6076 38.4569 15.3137 38.6104 15.0376 38.38C14.7783 38.1637 14.8357 37.8535 14.8814 37.5606C14.9729 36.9757 14.7476 36.7409 14.1905 36.8981C13.9231 36.9735 13.8406 36.8425 13.8082 36.6549C13.7671 36.4178 13.7976 36.1683 13.7604 35.9301C13.7305 35.7398 13.6967 35.5074 13.5754 35.3823C13.1901 34.9854 12.768 34.6241 12.3479 34.2635C12.2646 34.1919 12.1275 34.1841 12.0153 34.1469C11.9893 34.2531 11.9309 34.3636 11.9441 34.4645C11.9763 34.7122 11.8549 34.7539 11.6577 34.7307C11.3986 34.7002 11.222 34.5494 11.1496 34.3088C11.0118 33.8503 10.7405 33.5632 10.2759 33.4202C9.90947 33.3075 9.88189 33.1843 10.0368 32.8314C10.1307 32.6173 10.123 32.4494 9.872 32.3668C9.58961 32.274 9.48698 32.1601 9.62929 31.8192C9.76577 31.4923 9.86444 31.1936 10.1673 30.9616C10.4549 30.7414 10.3399 30.3005 9.99196 30.1823C9.79346 30.1148 9.57146 30.1208 9.3683 30.0637C9.16003 30.0053 8.92604 29.9546 8.76593 29.8229C8.3104 29.4478 7.80495 29.2072 7.22981 29.1175C7.05412 29.0902 6.96801 29.0263 6.91554 28.8422C6.81861 28.502 6.78987 28.1269 6.47921 27.8733C6.41789 27.8232 6.3952 27.6295 6.44092 27.5595C6.55402 27.3865 6.69295 27.207 6.86434 27.1011C7.38491 26.7793 7.65195 26.2424 7.55398 25.6246C7.51139 25.3559 7.46136 25.0877 7.43751 24.8172C7.4289 24.719 7.48475 24.6141 7.51465 24.5133C7.66486 24.0074 7.82008 23.5133 8.21871 23.124C8.32657 23.0187 8.32785 22.7565 8.30877 22.5738C8.27689 22.2674 8.36195 22.0681 8.61141 21.875C8.84715 21.6926 9.02959 21.4322 9.20645 21.1848C9.24985 21.124 9.20052 20.9712 9.15747 20.8778C9.1058 20.7654 9.00632 20.6766 8.94349 20.5682C8.78082 20.2868 8.83598 20.071 9.02505 19.7804C9.36039 19.2647 9.59985 18.6826 9.85001 18.115C9.90458 17.9913 9.88003 17.7886 9.8158 17.6615C9.39029 16.8199 9.59566 15.9912 9.75367 15.1257C9.92878 14.1664 10.6216 13.7701 11.3277 13.3478C11.4542 13.2721 11.6293 13.2255 11.7729 13.2428C12.2589 13.3013 12.7517 13.3555 13.2206 13.4882C13.5328 13.5765 13.8092 13.6254 14.1198 13.5138C14.5195 13.3701 14.9307 13.2595 15.3341 13.1263C15.5463 13.0562 15.6341 12.905 15.6764 12.6713C15.8088 11.9375 16.1494 11.3469 16.85 10.9981C17.2443 10.8019 17.4631 10.4432 17.4967 9.98708C17.4974 9.97732 17.4985 9.96732 17.4971 9.95768C17.4004 9.30031 17.5867 8.74998 18.0859 8.30586C18.25 8.1599 18.2575 7.98618 18.1423 7.77894C17.9881 7.50171 17.9214 7.20061 18.0404 6.87799C18.145 6.59406 18.3009 6.42904 18.63 6.42093C18.9841 6.41223 19.2259 6.17699 19.4243 5.894C19.755 5.42224 19.8414 5.39495 20.3145 5.70135C20.794 6.01174 21.275 6.32625 21.7165 6.68745C21.9709 6.89563 22.1562 7.19403 22.357 7.46372C22.4461 7.58357 22.2667 8.01735 22.0958 8.07757C21.8747 8.15555 21.6212 8.18483 21.6001 8.48723C21.5728 8.88171 21.6241 9.24127 21.8674 9.59494C22.1949 10.0708 22.6403 9.97908 23.0833 9.96426" fill="white"/>
</g>
</g>
</svg>
