<svg width="44" height="44" viewBox="0 0 44 44" fill="none" xmlns="http://www.w3.org/2000/svg">
<g id="icon_orange_5">
<g id="Group 3">
<mask id="mask0_1585_3194" style="mask-type:luminance" maskUnits="userSpaceOnUse" x="3" y="8" width="38" height="29">
<path id="Clip 2" fill-rule="evenodd" clip-rule="evenodd" d="M3.66675 8.25H40.3334V36.6667H3.66675V8.25Z" fill="white"/>
</mask>
<g mask="url(#mask0_1585_3194)">
<path id="Fill 1" fill-rule="evenodd" clip-rule="evenodd" d="M21.2461 15.4337C21.7501 15.0267 22.0541 14.53 22.2981 13.9918C22.3299 13.9215 22.3107 13.8179 22.2914 13.7353C22.2605 13.6038 22.2163 13.4743 22.1661 13.3487C21.9672 12.8493 21.9175 12.429 22.443 12.0413C22.9203 11.6891 22.9838 11.1156 22.9355 10.5303C22.8937 10.0252 22.9987 9.88813 23.4697 9.68989C23.696 9.59458 23.9303 9.51784 24.1631 9.43886C24.4516 9.3409 24.6549 9.17321 24.7877 8.87612C25.0106 8.37767 25.7921 8.0799 26.2928 8.35488C27.0587 8.77557 27.868 8.82415 28.7004 8.80415C28.8075 8.80156 28.932 8.79646 29.0179 8.74251C29.7746 8.26657 30.5664 8.44311 31.323 8.67366C31.8969 8.84857 32.4317 9.9216 32.3985 10.538C32.3492 11.4521 32.3382 12.3684 32.2874 13.2824C32.268 13.6315 32.3785 13.9118 32.62 14.1301C33.239 14.6896 33.4363 15.3594 33.27 16.1834C33.228 16.3916 33.3494 16.6663 33.4675 16.8671C33.632 17.1465 33.8551 17.393 34.0696 17.6389C34.2981 17.9009 34.3811 18.1972 34.2668 18.5187C34.0934 19.0062 33.8946 19.4847 33.6956 19.9623C33.4275 20.6058 33.1238 21.2356 32.8888 21.8908C32.8079 22.1163 32.847 22.41 32.902 22.6564C33.0299 23.23 33.2312 23.3508 33.8036 23.3002C34.1746 23.2674 34.4855 23.1529 34.8062 22.9235C35.1261 22.6947 35.5568 22.5626 35.9532 22.5177C37.0978 22.3882 38.1198 21.9909 39.0949 21.2085C39.3445 21.6247 39.6349 22.0021 39.8102 22.4281C40.0277 22.9569 40.163 23.5224 40.3091 24.0788C40.4131 24.4747 40.174 24.8235 39.7777 24.9407C39.3816 25.0579 38.9779 25.162 38.5997 25.3247C37.922 25.6162 37.3724 26.0306 37.1669 26.8242C37.0767 27.1726 36.7787 27.4607 36.644 27.804C36.5619 28.0129 36.609 28.2747 36.6022 28.5128C36.5928 28.8473 36.8386 28.8669 37.0748 28.9103C37.3927 28.9686 37.7081 29.041 38.0337 29.1093C38.1215 29.4071 38.0551 29.6252 37.8339 29.864C37.4783 30.2479 37.2089 30.7136 36.8548 31.0993C36.673 31.2974 36.3377 31.564 36.1568 31.5096C35.6364 31.3531 35.4528 31.6355 35.2514 32.0064C35.3784 32.16 35.5063 32.3147 35.6576 32.4975C35.1488 32.9513 34.6584 33.4095 34.1404 33.8334C34.0346 33.92 33.8144 33.9239 33.6664 33.8868C33.1061 33.7463 32.5559 33.7816 32.0094 33.9321C31.8936 33.9641 31.7641 34.0414 31.6951 34.1377C30.8868 35.2659 29.869 36.1202 28.5802 36.6317C28.2917 36.7463 27.9202 36.5665 27.7951 36.2799C27.6031 35.8398 27.379 35.4141 27.1767 34.9784C27.1365 34.8918 27.1171 34.7878 27.1156 34.6913C27.1093 34.2628 27.1129 33.8342 27.1129 33.3221C26.8495 33.3772 26.5986 33.3699 26.4174 33.4801C26.0356 33.7122 25.6367 33.7633 25.2216 33.6976C24.5695 33.5946 24.0029 33.6981 23.422 34.0741C22.8165 34.4662 22.1112 34.6994 21.4528 35.0093C21.323 35.0703 21.1827 35.1416 21.091 35.2472C20.6571 35.7465 20.0924 35.8089 19.5209 35.6704C19.1435 35.5789 18.7926 35.5516 18.4457 35.6927C17.9901 35.878 17.5832 35.7302 17.1959 35.5315C16.8244 35.341 16.5033 35.3986 16.1511 35.5715C15.812 35.7381 15.4578 35.8895 15.0941 35.984C14.7016 36.086 14.5709 35.9781 14.3978 35.5978C13.7623 34.2008 13.1228 32.8057 12.4838 31.4104C12.4462 31.3284 12.3965 31.2521 12.3574 31.1707C12.0883 30.61 11.8269 30.5994 11.2663 30.8877C10.9999 31.0247 10.7687 31.2317 10.5217 31.4071C10.4302 31.472 10.341 31.5402 10.2472 31.6015C9.47706 32.1045 9.26498 32.0855 8.63318 31.4378C8.38194 31.1803 8.145 30.9084 7.94226 30.6874C8.12767 30.2894 8.34102 29.9415 8.4524 29.5629C8.57917 29.132 8.52643 28.7001 8.09462 28.4255C7.89087 28.2958 7.85594 28.1171 7.90712 27.8998C7.9305 27.8007 7.93635 27.695 7.9735 27.6018C8.26948 26.86 7.91566 26.3413 7.39362 25.8914C6.78022 25.3629 6.14271 24.8627 5.53852 24.324C5.19752 24.0199 4.90947 23.6557 4.58312 23.3337C4.45709 23.2093 4.29647 23.117 4.1421 23.0268C3.56283 22.6884 3.50405 22.1144 4.015 21.6618C4.24206 21.4607 4.48504 21.278 4.71882 21.0845C5.12981 20.7442 5.37924 20.348 5.43405 19.7722C5.46986 19.3964 5.68644 18.9732 5.95475 18.71C6.10879 18.5588 6.57097 18.5922 6.81643 18.7096C7.11087 18.8504 7.37481 19.1343 7.55908 19.4181C8.01253 20.1166 8.58877 20.6232 9.37179 20.9056C9.66274 21.0105 9.9246 21.1996 10.1968 21.3555C10.4851 21.5205 10.77 21.5382 11.0977 21.4498C11.6876 21.2907 12.2152 21.0372 12.7304 20.6998C13.1446 20.4285 13.6468 20.2931 14.1133 20.1059C14.9631 19.7649 15.0278 19.6486 14.9966 18.7248C14.9783 18.1824 14.9784 17.6357 15.0261 17.096C15.051 16.8132 15.2074 16.5444 15.2856 16.2639C15.4797 15.5669 15.6706 14.8688 15.8459 14.1667C15.8938 13.9745 15.9749 13.8596 16.1719 13.8598C17.2113 13.8607 17.9205 13.2812 18.5267 12.5063C18.7148 12.266 19.2202 12.3105 19.3869 12.5669C20.0013 13.5119 20.6137 14.4582 21.2461 15.4337" fill="white"/>
</g>
</g>
</g>
</svg>
