<svg width="44" height="44" viewBox="0 0 44 44" fill="none" xmlns="http://www.w3.org/2000/svg">
<g id="icon_orange_5">
<g id="Group 3">
<mask id="mask0_1585_3210" style="mask-type:luminance" maskUnits="userSpaceOnUse" x="11" y="5" width="23" height="34">
<path id="Clip 2" fill-rule="evenodd" clip-rule="evenodd" d="M11 5.5H33.9167V38.5H11V5.5Z" fill="white"/>
</mask>
<g mask="url(#mask0_1585_3210)">
<path id="Fill 1" fill-rule="evenodd" clip-rule="evenodd" d="M30.998 22.38C30.9707 22.6328 30.9436 22.8855 30.9094 23.2029C31.0954 23.5153 31.4501 23.8867 31.5459 24.3171C31.7751 25.3475 32.4811 25.0298 33.1819 24.9928C33.3529 25.4929 33.5308 26.0126 33.7093 26.5349C33.388 26.6703 33.128 26.7798 33.0337 26.8196C33.3466 27.7394 33.6306 28.5739 33.9168 29.4151C33.2323 29.8093 32.672 30.0158 32.1192 29.3393C31.8273 28.982 31.5045 28.9683 31.2334 29.44C30.946 29.94 30.592 30.3726 29.7181 29.7284C29.7696 30.4019 29.7399 30.8439 29.8527 31.2448C29.959 31.6224 30.0091 31.9015 29.7877 32.2782C29.6065 32.5864 29.6115 33.0182 29.5759 33.3992C29.5362 33.8229 29.448 34.131 29.0507 34.4295C28.6603 34.7229 28.274 35.2575 28.2233 35.7237C28.1429 36.4629 27.5968 36.6851 27.1551 36.8707C26.8346 37.0055 26.3691 37.1505 25.8737 36.8663C25.4396 36.6174 24.8228 36.7283 24.4436 37.28C24.1171 37.7551 23.2667 37.9153 22.624 37.6737C21.8683 37.3897 21.6127 37.5537 21.5432 38.3945C20.8049 38.7735 20.7181 38.0348 20.3971 37.7006C20.2851 37.5838 20.1656 37.4399 20.0227 37.394C19.5342 37.2372 19.135 37.0431 18.7994 36.5771C18.4997 36.1607 17.9515 35.9222 17.4997 35.6258C17.3282 35.5132 17.1197 35.458 16.8954 35.3627C17.0909 34.6762 16.7289 33.9564 17.1865 33.2996C17.275 33.1728 17.1081 32.7049 16.9301 32.575C16.2239 32.0598 16.0614 31.684 16.3479 30.8884C16.5477 30.3334 16.1084 29.8142 15.4661 29.8012C15.2098 29.796 14.9554 29.6943 14.4759 29.5857C15.4389 28.8409 14.7068 28.5509 14.4152 28.0833C14.7281 27.7308 15.0475 27.3711 15.2522 27.1405C15.0684 26.4059 14.8723 25.7791 14.7808 25.1372C14.7599 24.9904 15.0711 24.7206 15.2804 24.6344C15.5205 24.5357 15.8174 24.5784 16.1306 24.557C15.7221 23.7247 16.0633 23.0112 16.708 22.5426C17.0783 22.2734 17.4123 21.6543 17.3925 21.2095C17.3672 20.64 16.7741 20.7394 16.177 20.9464C16.1175 20.4547 16.0653 20.0234 16.0066 19.5385C15.8762 19.604 15.7261 19.6792 15.5887 19.7481C14.5565 18.9797 13.0246 18.7024 13.0082 16.8848C12.9414 16.9034 12.8745 16.9222 12.8077 16.9408C13.0443 16.7928 13.2807 16.6449 13.4604 16.5324C13.4317 16.1889 13.4182 15.8413 13.369 15.499C13.3298 15.2265 13.1928 14.9599 13.196 14.6918C13.2005 14.3049 13.2901 13.9185 13.3483 13.5326C13.3855 13.2862 13.5533 12.916 13.4535 12.8169C12.9939 12.3611 13.2971 11.9781 13.5092 11.6143C13.9158 10.9174 13.8828 9.99995 13.4745 9.48237C13.0318 9.63544 12.6449 9.76935 12.3096 9.88522C11.8604 9.20405 11.924 8.3258 11 7.99807C11.3246 7.75284 11.5888 7.50491 11.8948 7.3338C12.291 7.11215 12.5837 6.88381 12.7379 6.39435C12.8366 6.08181 13.246 5.84922 13.5498 5.62827C13.9823 5.3136 14.2442 5.65156 14.6227 5.8566C15.0357 6.08025 15.631 5.95089 16.145 5.99462C16.5642 6.03027 16.9607 6.08082 17.1252 6.60479C17.1791 6.77632 17.4638 6.88978 17.6607 6.99585C18.0526 7.20714 18.5826 7.18939 18.767 7.73864C18.8046 7.85096 18.9949 8.009 19.0817 7.99012C19.5666 7.88447 19.7461 8.23449 19.9076 8.54902C20.258 9.2316 20.9947 9.26753 21.5496 9.60335C21.6569 9.66824 21.8482 9.68429 21.9603 9.63274C22.8162 9.23941 23.4517 9.82643 24.155 10.1118C24.22 10.1383 24.2863 10.1618 24.3501 10.1911C24.7374 10.3689 25.3808 10.1747 25.4211 10.8632C25.4813 11.8941 25.0084 12.4562 24.2281 12.9342C23.8282 13.1793 23.6783 13.8389 23.4093 14.3074C23.2909 14.5135 23.1573 14.7106 22.9735 15.0024C23.1172 15.6625 23.2516 15.7166 24.2448 15.2429C23.8431 16.1453 24.6229 16.6053 24.7619 17.2435C24.9313 18.0217 25.6241 18.7195 25.2322 19.6075C25.1245 19.8513 25.0137 20.0939 24.8903 20.368C25.1448 20.8483 25.6272 20.7257 26.0847 20.7541C26.3427 20.7702 26.6238 20.8954 26.8363 21.052C27.1087 21.2527 27.3661 21.5059 27.549 21.7897C27.7289 22.0689 27.8076 22.4148 27.9444 22.7664C28.8884 22.3827 30.0403 23.5651 30.8584 22.1319C30.905 22.2146 30.9515 22.2974 30.998 22.38" fill="white"/>
</g>
</g>
</g>
</svg>
