<svg width="44" height="44" viewBox="0 0 44 44" fill="none" xmlns="http://www.w3.org/2000/svg">
<g id="icon_orange_5">
<g id="Group 5">
<path id="Mask" fill-rule="evenodd" clip-rule="evenodd" d="M36.1517 13.752C34.1433 12.7177 33.1392 12.2007 32.2453 12.0342C29.7099 11.5615 27.4084 12.6464 26.1235 13.2189C24.6369 13.8811 24.116 14.4158 22.567 14.7591C21.3559 15.0274 20.307 15.0035 19.5935 14.9368C19.0379 15.1622 18.6027 15.3768 18.3109 15.5291C17.9134 15.7368 17.7538 15.8439 17.1449 16.1807C16.5041 16.5352 16.1837 16.7124 16.0372 16.7731C14.942 17.2266 14.4589 16.5409 12.8887 16.7139C12.1714 16.7929 11.4467 16.8728 10.9065 17.4248C10.3332 18.0104 10.5283 18.5551 9.7987 19.3204C9.46845 19.6668 9.3719 19.6146 8.69091 20.1497C7.98992 20.7006 7.72837 21.0418 7.29163 21.4529C5.77078 22.8847 5.00882 22.4492 4.25998 23.5264C3.60622 24.4664 3.65616 25.561 3.67689 26.0143C3.7289 27.1554 4.18969 27.9363 4.78456 28.917C5.63558 30.3197 6.20469 31.2576 7.4083 31.7605C8.50542 32.2185 9.81612 32.1843 10.8481 31.7013C11.9082 31.205 11.7915 30.6486 12.7722 30.2795C13.5743 29.9776 14.1458 30.1641 16.1537 30.5164C17.4285 30.7401 18.3025 30.8935 19.2438 30.9904C21.3422 31.2062 22.7875 31.3364 24.1995 30.5757C25.1061 30.0873 24.8562 29.8471 25.7737 29.3909C27.4644 28.55 28.332 29.3558 29.8549 28.5616C30.9865 27.9716 30.7002 27.4262 31.8373 26.903C33.1852 26.2825 33.8606 26.9234 35.1604 26.429C35.9344 26.1346 36.4733 25.4627 37.5509 24.1187C38.7987 22.5626 39.7392 21.3896 40.1162 19.5574C40.3072 18.6297 40.4903 17.7398 40.1162 16.7731C39.9199 16.2658 39.4614 15.4563 36.1517 13.752" fill="white"/>
<mask id="mask0_1585_3367" style="mask-type:luminance" maskUnits="userSpaceOnUse" x="3" y="11" width="38" height="22">
<path id="Mask_2" fill-rule="evenodd" clip-rule="evenodd" d="M36.1517 13.752C34.1433 12.7177 33.1392 12.2007 32.2453 12.0342C29.7099 11.5615 27.4084 12.6464 26.1235 13.2189C24.6369 13.8811 24.116 14.4158 22.567 14.7591C21.3559 15.0274 20.307 15.0035 19.5935 14.9368C19.0379 15.1622 18.6027 15.3768 18.3109 15.5291C17.9134 15.7368 17.7538 15.8439 17.1449 16.1807C16.5041 16.5352 16.1837 16.7124 16.0372 16.7731C14.942 17.2266 14.4589 16.5409 12.8887 16.7139C12.1714 16.7929 11.4467 16.8728 10.9065 17.4248C10.3332 18.0104 10.5283 18.5551 9.7987 19.3204C9.46845 19.6668 9.3719 19.6146 8.69091 20.1497C7.98992 20.7006 7.72837 21.0418 7.29163 21.4529C5.77078 22.8847 5.00882 22.4492 4.25998 23.5264C3.60622 24.4664 3.65616 25.561 3.67689 26.0143C3.7289 27.1554 4.18969 27.9363 4.78456 28.917C5.63558 30.3197 6.20469 31.2576 7.4083 31.7605C8.50542 32.2185 9.81612 32.1843 10.8481 31.7013C11.9082 31.205 11.7915 30.6486 12.7722 30.2795C13.5743 29.9776 14.1458 30.1641 16.1537 30.5164C17.4285 30.7401 18.3025 30.8935 19.2438 30.9904C21.3422 31.2062 22.7875 31.3364 24.1995 30.5757C25.1061 30.0873 24.8562 29.8471 25.7737 29.3909C27.4644 28.55 28.332 29.3558 29.8549 28.5616C30.9865 27.9716 30.7002 27.4262 31.8373 26.903C33.1852 26.2825 33.8606 26.9234 35.1604 26.429C35.9344 26.1346 36.4733 25.4627 37.5509 24.1187C38.7987 22.5626 39.7392 21.3896 40.1162 19.5574C40.3072 18.6297 40.4903 17.7398 40.1162 16.7731C39.9199 16.2658 39.4614 15.4563 36.1517 13.752" fill="white"/>
</mask>
<g mask="url(#mask0_1585_3367)">
</g>
</g>
</g>
</svg>
