<svg width="44" height="44" viewBox="0 0 44 44" fill="none" xmlns="http://www.w3.org/2000/svg">
<g id="icon_orange_5">
<g id="Group 6">
<path id="Fill 1" fill-rule="evenodd" clip-rule="evenodd" d="M40.3111 11.4246C40.275 11.3122 40.19 11.1986 40.0426 11.0938C39.8612 10.9651 39.461 10.5849 39.2634 10.5663C38.9303 10.535 38.9313 10.5374 39.0188 10.2128C39.2767 9.25593 38.8098 7.9664 38.1944 7.21936C37.745 6.67381 37.09 6.38595 36.5196 6.6655C36.1055 6.86852 35.7323 7.05351 35.2495 7.15485C34.7103 7.26801 33.927 7.20383 33.5366 6.77177C33.1927 6.39098 33.2762 6.29761 32.778 6.58985C32.7361 6.61444 32.6918 6.64134 32.6702 6.68463C32.6305 6.76379 32.6821 6.85519 32.7245 6.93292C33.3131 8.01254 32.2516 8.37682 31.7889 9.09587C31.6996 9.23461 31.6556 9.42353 31.5018 9.48639C31.4183 9.5205 31.3233 9.50596 31.2348 9.48727C30.8039 9.39609 30.3923 9.21723 30.0333 8.96511C29.7612 8.77401 29.5174 8.54059 29.2215 8.38775C28.9256 8.23502 28.5503 8.17511 28.2645 8.34577C27.9788 8.51632 27.8791 8.97277 28.1384 9.1806C28.1966 9.22728 28.2715 9.26369 28.2972 9.33322C28.3479 9.47054 28.1791 9.5767 28.0694 9.67476C27.7962 9.919 27.8358 10.3411 27.7916 10.7022C27.7205 11.2834 27.3461 11.7914 26.9734 12.222C26.6355 12.6122 26.8107 13.1439 26.5578 13.5764C26.533 13.6189 26.5044 13.662 26.461 13.6861C26.4002 13.7199 26.325 13.7091 26.2562 13.6976C25.8991 13.6381 25.5154 13.5915 25.189 13.7462C24.8304 13.916 24.6225 14.2898 24.3141 14.5378C24.2361 14.6006 24.1487 14.6563 24.0501 14.6757C23.7235 14.7396 23.4638 14.4166 23.1504 14.4543C22.8272 14.4932 22.4654 14.8984 22.3272 15.1725C22.2572 15.3113 22.2545 15.9095 22.1589 15.9725C21.717 16.1823 21.2114 16.2593 20.726 16.1907C20.5283 16.1629 20.3297 16.1114 20.1317 16.1364C19.9495 16.1595 19.7768 16.2494 19.6548 16.385C19.4833 16.5754 19.4204 16.8354 19.3664 17.0845C19.1026 18.2977 18.7249 19.2675 17.7556 20.0988C17.3532 20.4438 17.1004 20.3455 16.6255 20.4001C16.2495 20.4432 15.8682 20.6329 15.4869 20.6037C15.2874 20.5885 15.0996 20.5037 14.9014 20.4763C14.3506 20.4 13.8511 20.7642 13.3806 21.0571C13.1615 21.1935 12.8799 21.3193 12.6558 21.1911C12.5053 21.1049 12.434 20.9298 12.3099 20.8092C12.1859 20.6886 11.9296 20.6591 11.8736 20.8218C11.8566 20.8714 11.8646 20.9256 11.8756 20.9769C11.9072 21.1243 11.9728 21.2519 11.9721 21.3905C11.5003 21.4896 10.9949 21.5018 10.5133 21.5489C10.3845 21.5616 10.2526 21.575 10.1364 21.6314C9.91459 21.7386 9.79343 21.9796 9.72598 22.2142C9.5944 22.672 9.61002 23.17 9.77006 23.6191C9.8343 23.7991 9.92146 23.9735 9.95037 24.1623C10.0303 24.6861 9.47168 25.3259 9.85744 25.8063C10.3012 26.3591 9.44765 26.1429 9.54079 26.7208C9.57059 26.9056 9.45463 26.9459 9.28805 26.9497C9.04837 26.9554 9.00474 26.7636 8.94404 26.6162C8.91746 26.5516 8.98624 26.4234 9.04704 26.3544C9.19003 26.1921 9.28163 25.8302 9.15304 25.7715C8.58918 25.5144 8.08834 25.612 7.52515 25.8475C7.48118 25.8659 7.43344 25.8895 7.41694 25.9336C7.39955 25.9804 7.42403 26.0316 7.4248 26.0815C7.4268 26.2208 7.25945 26.2919 7.12266 26.3262C6.50077 26.4823 5.99628 26.6227 5.3838 26.3204C4.94819 26.1953 4.40527 26.3179 3.99946 26.4941C3.93456 26.5222 3.86799 26.5556 3.82834 26.6136C3.73852 26.7451 3.83233 26.9269 3.9566 27.0276C4.08075 27.1282 4.23803 27.1946 4.32962 27.325C4.40815 27.4368 4.42598 27.5785 4.47981 27.704C4.56254 27.8964 4.8278 27.9913 4.96425 28.1548C5.11355 28.3334 5.10093 28.5939 5.32299 28.7286C5.40739 28.7799 5.50762 28.798 5.60586 28.8113C6.28734 28.9027 6.47341 28.6405 6.66413 29.3071C6.79017 29.7479 6.88055 30.1238 7.34561 30.333C7.35503 30.3372 7.0458 31.0538 7.03295 31.0842C7.01047 31.1372 6.98676 31.192 6.94357 31.2305C6.74709 31.4059 6.44395 31.0921 6.18722 31.1563C5.98099 31.2078 5.92129 31.4595 5.85229 31.6582C5.7041 32.0847 5.37194 32.3423 4.99083 32.5574C4.72757 32.706 3.95892 33.2009 3.66675 33.1826C4.19827 33.2159 6.67388 33.5709 6.83237 32.98C6.83924 32.9549 6.88941 32.9266 6.92086 32.9249C7.19377 32.9098 7.46667 32.8941 7.73979 32.8803C7.93384 33.1646 7.93262 33.3071 7.90128 33.645C7.882 33.8534 7.97183 34.0689 8.13419 34.2036C8.18459 34.2453 8.24672 34.2893 8.24894 34.3542C8.2506 34.4053 8.21316 34.4486 8.17728 34.4853C8.02111 34.6446 7.84844 34.7883 7.66282 34.913C7.91335 35.1771 8.34142 35.138 8.68742 35.2572C8.78799 35.2917 8.88667 35.3438 8.94925 35.4289C9.27155 35.8678 8.45361 36.3807 8.75653 36.9148C8.89919 37.1664 9.2412 37.3002 9.28905 37.5847C9.28849 37.5819 9.83917 37.1974 9.88115 37.1094C9.91681 37.0344 9.9198 36.9489 9.92213 36.8662C9.92866 36.6312 9.93331 36.3863 9.83241 36.1733C9.77681 36.0558 9.69065 35.9523 9.651 35.8286C9.50214 35.3644 10.0918 34.5399 10.2771 34.1222C10.341 33.9782 10.4237 33.918 10.5834 33.9024C10.6495 33.8958 10.7551 33.7762 10.7549 33.7083C10.7542 33.5022 10.7162 33.2965 10.6995 33.0901C11.1277 33.1072 13.3201 32.9753 13.4911 33.4202C13.5152 33.4828 13.5148 33.5583 13.5631 33.6052C13.6525 33.6921 13.8041 33.5973 13.8648 33.4889C13.9254 33.3804 13.9693 33.2425 14.0879 33.2021C14.154 33.1797 14.2265 33.1955 14.2945 33.2114L14.9405 33.3629C14.9296 33.3604 14.9823 32.967 14.9871 32.9274C15.0292 33.1754 15.0275 33.4368 15.0915 33.6824C15.2844 34.4218 15.507 35.1538 15.7268 35.8861C15.7495 35.9618 15.8278 36.071 15.8887 36.0767C16.1116 36.0974 16.1261 36.2479 16.1398 36.405C16.159 36.6228 16.1706 36.8412 16.1886 37.1066C16.4611 36.8889 16.677 36.7165 16.9037 36.5354C16.8094 36.4333 16.7209 36.3529 16.6535 36.2577C16.625 36.2173 16.6213 36.137 16.6431 36.0924C16.6576 36.0626 16.7541 36.0366 16.7851 36.0553C17.1403 36.2698 17.1144 35.9393 17.2336 35.7652C17.0569 35.6569 16.8961 35.5584 16.7246 35.4532C16.8826 35.1092 17.2255 35.1776 17.4883 35.0889C17.6345 35.0397 17.7266 35.0962 17.7796 35.2504C17.8651 35.4998 17.9651 35.7453 18.0763 35.9846C18.1063 36.0491 18.2113 36.1357 18.2602 36.124C18.363 36.0993 18.5167 36.0302 18.5334 35.9544C18.5748 35.7663 18.5802 35.5595 18.5483 35.3687C18.4252 34.6337 18.2783 33.9026 18.1511 33.1682C18.138 33.0931 18.1974 33.0058 18.2231 32.9241C18.2583 32.9119 18.2934 32.8997 18.3286 32.8875C18.3731 32.9781 18.4178 33.0688 18.4624 33.1595C18.49 33.1524 18.5177 33.1453 18.5454 33.1383C18.6268 32.9673 18.7083 32.7964 18.7892 32.6264C19.1052 32.7338 18.7505 33.2981 19.2087 33.1963C19.1406 33.2781 19.0061 33.3668 18.9894 33.4734C18.937 33.8062 18.9137 34.1473 19.2689 34.3701C19.3272 34.4067 19.3978 34.5386 19.3788 34.5633C19.1736 34.8293 19.3575 35.0702 19.418 35.3148C19.4338 35.3788 19.5134 35.472 19.5632 35.4718C19.6244 35.4716 19.705 35.3987 19.7421 35.3369C19.8115 35.2212 19.8259 35.0616 19.9161 34.9721C20.1574 34.7332 20.1281 34.4998 19.9709 34.2416C19.924 34.1645 19.8949 34.0764 19.8619 33.9917C19.7592 33.7289 19.8632 33.559 20.15 33.5618C20.325 33.5635 20.4119 33.4877 20.4443 33.3409C20.4773 33.1914 20.5012 33.0374 20.505 32.8846C20.5136 32.5306 20.5077 32.1762 20.5077 31.8703C20.7233 31.7487 20.9087 31.6248 21.1099 31.5355C21.3691 31.4204 21.4381 31.2161 21.4525 30.9649C21.4571 30.8848 21.481 30.8013 21.5154 30.728C21.6268 30.4902 21.5608 30.3378 21.3159 30.2363C21.2532 30.2102 21.1942 30.1737 21.1376 30.1334L21.2088 30.0681C21.4422 30.2238 21.6554 30.3892 21.9552 30.0726C22.0995 29.9201 22.2464 29.8282 22.2161 29.5978C22.1806 29.3274 22.3523 29.2625 22.5917 29.2474C22.5781 29.4053 22.566 29.5444 22.5472 29.7631C22.9902 29.5339 23.2012 29.2326 23.2413 28.904C23.3263 29.065 23.3847 29.361 23.5592 29.4621C23.8192 29.6131 23.7904 29.7865 23.7453 29.9824C23.7056 30.1557 23.6031 30.3142 23.5507 30.486C23.5256 30.5685 23.5141 30.7008 23.5614 30.7516C23.8695 31.0829 24.2769 31.1427 24.7019 31.0853C24.9999 31.0451 24.9333 30.7282 25.0632 30.5571C25.0732 30.5442 25.0926 30.5382 25.1293 30.5156C25.315 30.6321 25.4639 30.7663 25.453 31.0248C25.4425 31.2703 25.449 31.517 25.4633 31.7624C25.4691 31.8621 25.5153 31.9595 25.5431 32.0579C25.6641 32.0243 25.8077 32.0206 25.901 31.951C26.0836 31.8145 26.2502 31.6518 26.4009 31.4807C26.567 31.2924 26.727 31.2668 26.9562 31.3781C27.2746 31.5327 27.56 31.371 27.635 31.027C27.6542 30.9383 27.669 30.8466 27.7031 30.7633C27.9061 30.2667 27.9052 29.8068 27.5303 29.3706C27.4077 29.228 27.3223 29.0219 27.3014 28.8359C27.2806 28.6506 27.2172 28.6069 27.0507 28.5528C26.8028 28.4722 26.5761 28.3273 26.3405 28.2096C26.3516 28.1879 26.3627 28.1661 26.3739 28.1444C26.6265 28.2552 26.7784 28.209 26.8847 27.9608C26.9208 27.8764 26.9188 27.7622 26.8968 27.6702C26.8426 27.4434 26.9158 27.2814 27.0661 27.1041C27.2848 26.8463 27.5088 26.6525 27.875 26.6832C28.0009 26.6938 28.1018 26.6396 28.0367 26.484C27.9388 26.25 27.8507 26.0102 27.7301 25.7878C27.7236 25.7757 27.7164 25.7639 27.7097 25.7518L27.8929 25.7049C27.9285 25.7512 27.962 25.7988 27.9981 25.8444C28.0757 25.9426 28.2119 26.0493 28.3261 26.0548C28.5951 26.0676 28.6564 26.2305 28.7181 26.4334C28.7463 26.5264 28.8326 26.6832 28.876 26.6778C29.1593 26.6434 29.4405 26.8212 29.7198 26.6821C29.7273 26.6784 29.7329 26.669 29.737 26.661C29.8572 26.4268 30.0647 26.3708 30.3108 26.3698C30.4855 26.3691 30.661 26.3235 30.8344 26.3328C30.9509 26.339 31.0868 26.3793 31.1745 26.4511C31.4379 26.6669 31.7501 26.6526 31.9087 26.3401C32.0066 26.1473 32.1278 26.1333 32.2968 26.1231C32.5618 26.1073 32.7295 25.9295 32.7393 25.6652C32.7434 25.556 32.7563 25.4435 32.7364 25.3378C32.6401 24.828 32.8351 24.4806 33.3185 24.2895C33.4825 24.2246 33.5321 24.1143 33.5125 23.9452C33.4957 23.8017 33.509 23.6549 33.509 23.5095C33.5276 23.5097 33.5462 23.5098 33.5648 23.5099C33.5817 23.6864 33.5985 23.8627 33.6211 24.098C33.7848 24.0233 33.9077 23.9516 34.0404 23.9122C34.134 23.8844 34.2541 23.8688 34.3396 23.903C34.618 24.0144 34.7065 23.9808 34.7991 23.6923C34.8597 23.5035 34.8837 23.2808 35.0034 23.1382C35.18 22.9279 35.1585 22.7487 35.0505 22.5416C34.9285 22.3073 34.7887 22.0805 34.6873 21.8379C34.6532 21.7561 34.6922 21.6261 34.7363 21.5366C34.7737 21.4605 34.8617 21.4044 34.9358 21.351C35.1124 21.2241 35.1643 21.0765 35.0439 20.883C35.0252 20.8532 35.0343 20.8063 35.0266 20.7251C35.1426 20.8081 35.2195 20.8712 35.304 20.9221C35.5568 21.0744 35.8931 20.9018 35.8881 20.6157C35.885 20.439 35.9252 20.3012 36.0753 20.19C36.1345 20.1462 36.1706 20.0592 36.1947 19.9845C36.2631 19.7735 36.2816 19.5973 36.3064 19.3839C36.3533 18.9809 36.1853 19.2493 36.4107 18.9172C36.6481 18.5672 37.0007 18.3723 36.8217 17.866C36.8032 17.8135 36.7781 17.7608 36.7344 17.7256C36.6738 17.6768 36.5898 17.6709 36.5116 17.6671C36.206 17.6522 35.9003 17.6374 35.5948 17.6225C35.5343 17.6195 35.4684 17.6145 35.4239 17.5741C35.3194 17.4793 35.4227 17.3124 35.5241 17.2147C36.0587 16.6995 36.2247 16.5985 36.9337 16.4507C36.9895 16.4391 37.0809 16.4001 37.0843 16.3658C37.1459 15.7499 37.2206 15.1515 37.2852 14.5496C37.3614 13.8407 36.955 13.1774 37.4669 12.5224C37.526 12.4467 37.6126 12.3975 37.6968 12.3501C37.9852 12.1881 38.2735 12.0261 38.5619 11.8641C38.6433 11.8184 38.7309 11.7711 38.8243 11.7776C39.1251 11.7981 39.2684 12.1285 39.6166 12.1281C39.9729 12.1277 40.4417 11.8306 40.3111 11.4246" fill="#D8DADD"/>
<path id="Fill 4" fill-rule="evenodd" clip-rule="evenodd" d="M25.2658 34.8741C24.8338 34.7 24.7125 34.28 24.4699 33.9358C24.5851 33.8645 24.6688 33.8127 24.7138 33.7849C24.5894 33.4252 24.4797 33.0833 24.3511 32.7486C24.3072 32.6344 24.2343 32.5183 24.1437 32.4366C23.8037 32.13 23.4472 31.8415 23.105 31.5371C22.9822 31.4281 22.8847 31.4148 22.7405 31.5047C22.4792 31.6676 22.2289 31.8586 21.881 31.8207C21.6588 31.7965 21.2011 32.0561 21.2106 32.2096C21.2267 32.4688 21.184 32.7568 21.4299 32.9646C21.8917 33.3551 22.3415 33.7594 22.8029 34.1505C22.8745 34.2112 22.9824 34.2681 23.0705 34.2641C23.2812 34.2546 23.3164 34.3566 23.3176 34.5292C23.3181 34.5992 23.366 34.7216 23.4093 34.7295C23.5903 34.7623 23.7884 34.8031 23.9597 34.7603C24.1497 34.7128 24.2404 34.7241 24.3208 34.9116C24.4351 35.1784 24.5803 35.4324 24.7156 35.6903C24.8295 35.9076 24.971 35.9287 25.1307 35.7338C25.2334 35.6083 25.2934 35.4496 25.3876 35.3161C25.5307 35.1136 25.5078 34.9716 25.2658 34.8741" fill="#D8DADD"/>
</g>
</g>
</svg>
