<svg width="44" height="44" viewBox="0 0 44 44" fill="none" xmlns="http://www.w3.org/2000/svg">
<g id="icon_orange_5">
<g id="Group 3">
<mask id="mask0_1585_3296" style="mask-type:luminance" maskUnits="userSpaceOnUse" x="3" y="9" width="38" height="26">
<path id="Clip 2" fill-rule="evenodd" clip-rule="evenodd" d="M3.66675 9.16797H40.3334V34.8346H3.66675V9.16797Z" fill="white"/>
</mask>
<g mask="url(#mask0_1585_3296)">
<path id="Fill 1" fill-rule="evenodd" clip-rule="evenodd" d="M40.2004 15.9348C39.6427 15.711 39.5687 15.1801 39.417 14.7176C39.2894 14.3286 39.018 14.1211 38.6303 14.2438C38.262 14.3604 37.9082 14.5503 37.5326 14.6056C37.2593 14.6459 36.9586 14.5294 36.6752 14.4624C36.5657 14.4365 36.4756 14.3382 36.3668 14.3004C35.8136 14.108 35.1751 14.0248 35.0685 13.212C34.9005 13.3696 34.8211 13.5329 34.7145 13.6763C34.6535 13.7585 34.5543 13.8417 34.4601 13.8589C34.4115 13.8678 34.3159 13.743 34.2769 13.6619C34.182 13.4646 34.1347 13.2401 34.0162 13.06C33.9278 12.9256 33.7173 12.7317 33.6335 12.7618C33.4629 12.8228 33.2807 12.9957 33.2189 13.164C33.171 13.2942 33.2479 13.5455 33.359 13.6413C33.617 13.8638 33.7161 14.1246 33.5364 14.3808C33.3451 14.6534 33.0385 14.5467 32.8135 14.3846C32.5507 14.1953 32.3112 13.9701 32.0812 13.7412C31.6946 13.3565 31.5191 13.336 31.2449 13.7875C31.0665 14.0811 30.9829 14.4394 30.9003 14.7792C30.8166 15.1232 30.6309 15.2689 30.2922 15.1718C30.0338 15.0978 29.7826 14.9932 29.5203 14.9386C28.9733 14.8247 28.9041 14.7468 28.9605 14.2015C29.0188 13.6378 28.9972 13.6136 28.421 13.5975C28.3577 13.8005 28.3565 14.0846 28.2179 14.1874C27.9716 14.3702 27.6412 14.4662 27.3544 14.1894C27.1213 13.9643 27.1207 13.5797 27.3515 13.306C27.6855 12.91 27.6712 12.6967 27.3325 12.3C27.1927 12.1362 26.9894 11.9186 27.0094 11.7478C27.0781 11.1616 26.6948 10.865 26.3532 10.5216C25.5931 11.2813 25.5931 11.2813 24.6478 11.1406C24.5863 11.5842 24.4744 11.6464 24.0368 11.5207C23.8889 11.4782 23.7034 11.4341 23.573 11.4854C23.1533 11.6503 22.7994 11.5716 22.4197 11.3552C22.2652 11.2672 21.9698 11.2602 21.8224 11.3505C21.3051 11.6678 20.9084 11.6863 20.3841 11.3837C20.076 11.2059 19.977 10.9834 20.0404 10.6474C20.1385 10.1282 19.6558 9.45808 19.1175 9.33641C18.1159 9.1101 17.1219 9.07334 16.1508 9.46799C16.0077 9.52615 15.7671 9.65692 15.7765 9.72748C15.8646 10.3904 15.2915 10.7167 15.0427 11.201C14.6489 11.9676 14.018 12.4158 13.1475 12.6152C12.8272 12.6886 12.548 13.0488 12.3094 13.3279C12.092 13.5823 11.9589 13.8922 11.5357 13.6567C11.4598 13.6144 11.32 13.6785 11.2114 13.7011C10.9804 13.7492 10.7524 13.8147 10.5196 13.8505C10.2938 13.8852 10.0668 13.9148 9.8299 13.9445C9.49513 13.9205 9.16008 13.905 8.82495 13.9023C8.76661 13.8886 8.70666 13.8774 8.64598 13.8712C8.25828 13.8319 7.86616 13.8341 7.47594 13.8183C6.87293 13.7939 6.70658 14.0325 6.9401 14.6064C7.01295 14.7853 7.15802 14.9418 7.20184 15.1246C7.31969 15.6163 7.68367 15.9113 8.26865 15.9243C8.37351 16.066 8.48432 16.2035 8.60234 16.3347C8.83694 16.5953 9.11122 16.8423 9.45131 16.9349C10.0392 17.0948 10.6602 16.7589 11.2647 16.8383C11.3411 16.8482 11.4215 16.8673 11.4755 16.9217C11.5325 16.9789 11.5492 17.063 11.5681 17.141C11.5876 17.2222 11.6143 17.3005 11.6441 17.3776C11.2518 17.4044 10.8526 17.5911 10.6225 17.8702C10.9312 18.0894 11.2414 18.3089 11.5507 18.5296C11.8289 18.7282 12.0986 18.9396 12.3862 19.1238C12.5852 19.2511 12.975 19.9575 12.8672 20.1443C12.8106 20.2422 12.5614 20.3252 12.4578 20.2808C12.2921 20.21 12.1868 20.0124 12.0344 19.8964C11.8762 19.7759 11.7039 19.6515 11.5173 19.5939C10.9484 19.418 10.3706 19.3304 9.76877 19.4652C9.63713 19.4948 9.47114 19.3633 9.31796 19.3151C9.22996 19.2874 9.13592 19.2781 9.04468 19.2605C9.02818 19.3588 9.00518 19.4565 8.99617 19.5554C8.96082 19.9452 9.02069 20.3741 8.87192 20.7143C8.71973 21.0625 8.38811 21.3496 8.09175 21.6163C7.78898 21.8887 7.5358 22.2943 6.99023 22.124C6.85814 22.0828 6.58973 22.1896 6.50993 22.3102C6.07932 22.9597 5.39922 23.2549 4.75726 23.6141C4.67621 23.6595 4.61832 23.8061 4.61147 23.9099C4.58641 24.285 4.66422 24.5592 5.0117 24.8562C5.51165 25.2836 5.66971 25.4353 6.30319 25.2547C6.36811 25.2362 6.44691 25.2681 6.5194 25.2735C6.76933 25.2921 7.01971 25.3048 7.2691 25.328C7.72334 25.3701 8.17803 25.4105 8.63065 25.4667C8.87129 25.4966 9.10788 25.5584 9.43129 25.6229V26.4393C9.28802 26.3601 9.22789 26.3431 9.19146 26.3043C8.65779 25.7352 8.54112 25.748 7.99374 26.301C7.83118 26.4652 7.57773 26.5564 7.35025 26.6389C7.07273 26.7394 6.77979 26.7998 6.49136 26.8687C6.38073 26.895 6.26027 26.9219 6.15118 26.9051C5.81118 26.8525 4.86997 27.1875 4.72102 27.4365C4.36659 28.0286 4.01631 28.6232 3.66675 29.2128C3.95419 29.2972 4.26209 29.3876 4.65836 29.5041C4.4829 29.7546 4.34802 29.9244 4.23982 30.1095C4.16111 30.2442 4.03443 30.4989 4.07158 30.5292C4.36379 30.7674 4.24244 31.0697 4.26516 31.3535C4.27291 31.4506 4.3564 31.5982 4.4371 31.6236C4.92596 31.7777 4.85825 32.1144 4.78188 32.4866C4.75429 32.621 4.78224 32.8721 4.85581 32.9027C5.14857 33.0244 5.4718 33.1441 5.77881 33.1328C5.92794 33.1274 6.07968 32.8408 6.20627 32.6647C6.39128 32.4074 6.57711 32.3273 6.82325 32.5867C6.9154 32.6838 7.01205 32.8229 7.12566 32.8442C7.3351 32.8837 7.60271 32.9241 7.76518 32.8288C7.97345 32.7067 8.09121 32.4411 8.26928 32.2575C8.35376 32.1703 8.52399 32.0501 8.59314 32.0811C9.05865 32.289 9.2901 32.0552 9.44365 31.6788C10.0888 31.7454 10.1761 31.5914 10.0075 30.7352C10.0293 30.7124 10.0457 30.6822 10.0706 30.6713C10.8365 30.3381 10.8468 30.2967 10.4892 29.566C10.4476 29.481 10.4886 29.2782 10.5603 29.2298C11.037 28.9075 11.5156 28.5465 12.1528 28.8346C12.1823 28.8479 12.2344 28.8125 12.2759 28.7998C12.2537 28.777 12.2313 28.7541 12.2089 28.7313C12.3441 28.5862 12.4792 28.4412 12.6144 28.2961C12.8259 28.5032 13.0375 28.7102 13.3341 29.0005C13.6382 29.0235 14.5329 29.6103 14.4752 29.9098C14.3884 30.3597 14.7375 30.536 14.9172 30.8145C15.0159 30.9675 15.1926 31.0711 15.4065 31.2613C15.5534 31.2501 15.937 31.3178 16.0207 31.1912C16.1437 31.0055 16.0524 30.6808 16.0524 30.4118C16.4811 30.2911 16.7435 30.0235 16.8016 29.5562C16.8117 29.4747 16.962 29.358 17.0562 29.3494C17.2798 29.3289 17.5085 29.3636 17.8023 29.3795C17.8153 29.4542 17.8685 29.5946 17.8576 29.7299C17.8372 29.9842 17.7671 30.2364 18.0707 30.3875C18.1082 30.4061 18.1451 30.5028 18.1284 30.5391C17.9687 30.8859 18.1542 31.4013 17.5652 31.5394C17.5733 31.5774 17.5814 31.6153 17.5894 31.6531L18.1398 31.8641C18.188 31.8347 18.2361 31.8054 18.2842 31.7759C18.3386 32.243 18.3931 32.7101 18.4476 33.1771L18.3012 33.1274C18.1053 33.2872 17.9095 33.4472 17.6832 33.6319C18.1259 33.8576 18.4684 34.0635 18.8356 34.2074C19.0569 34.2941 19.3536 34.3758 19.5513 34.2979C19.9149 34.1548 20.2235 33.8804 20.5687 33.6844C20.7531 33.5796 20.9662 33.5244 21.0684 33.4848C21.2734 33.7318 21.4111 33.8977 21.5489 34.0636C21.6765 33.9479 21.8231 33.8467 21.9278 33.7134C22.1189 33.4702 22.3228 33.4754 22.4588 33.7175C22.692 34.1328 23.0238 34.3068 23.4909 34.28C23.5916 34.2742 23.7303 34.282 23.7914 34.3428C24.1276 34.677 24.4255 34.5133 24.7636 34.3362C25.105 34.1574 25.4973 34.0433 25.755 34.4705C25.9844 34.851 26.1573 34.6561 26.3213 34.4441C26.5845 34.1042 26.8199 33.7431 27.0836 33.4035C27.1812 33.2777 27.3185 33.1067 27.4502 33.0951C28.0173 33.0451 28.6023 33.0161 29.0869 33.3941C29.5916 33.7878 30.0673 34.2179 30.5733 34.61C30.7254 34.7278 30.9405 34.8446 31.1189 34.834C31.4578 34.8139 31.4463 34.5073 31.4627 34.2535C31.4762 34.0458 31.5227 33.8339 31.4961 33.6314C31.4374 33.1854 31.6728 32.8982 31.9919 32.6594C32.1313 32.5551 32.3133 32.507 32.4747 32.4308C33.1532 32.1105 33.4089 31.6129 32.8278 31.0106C32.6125 30.7875 32.3667 30.4817 32.8152 30.202C32.861 30.1734 32.8719 30.0727 32.8791 30.0035C32.9527 29.3039 32.7076 28.7437 32.1809 28.2634C31.5088 27.6504 31.5053 27.4982 31.9637 26.7164C32.0536 26.5632 32.1867 26.4328 32.263 26.2745C32.3494 26.0952 32.3984 25.8975 32.4564 25.7056C32.5257 25.4761 32.536 25.2116 32.6611 25.0191C33.1908 24.2047 33.4612 23.2966 33.5605 22.3598C33.6113 21.8808 33.7646 21.5904 34.1717 21.3772C34.8773 21.0076 35.4174 20.469 35.7044 19.727C35.8242 19.4171 35.9533 19.3747 36.271 19.4486C36.5551 19.5146 36.9656 19.5483 37.1567 19.3957C37.4987 19.1227 37.7839 18.8074 38.2501 18.7446C38.3178 18.7355 38.3967 18.6509 38.4306 18.5819C38.5791 18.281 38.7128 17.9731 38.8519 17.6677C38.8728 17.7005 38.8937 17.7332 38.9145 17.7661C39.1591 17.6322 39.4093 17.5074 39.6454 17.3605C39.757 17.2911 39.8263 17.1489 39.9412 17.0923C40.3376 16.8966 40.2026 16.4866 40.329 16.1847C40.3536 16.126 40.27 15.9626 40.2004 15.9348" fill="#D8DADD"/>
</g>
</g>
</g>
</svg>
